<?xml version="1.0" encoding="utf-8" standalone="no"?>
<!DOCTYPE svg PUBLIC "-//W3C//DTD SVG 1.1//EN"
  "http://www.w3.org/Graphics/SVG/1.1/DTD/svg11.dtd">
<svg xmlns:xlink="http://www.w3.org/1999/xlink" width="406.74pt" height="252.618719pt" viewBox="0 0 406.74 252.618719" xmlns="http://www.w3.org/2000/svg" version="1.1">
 <metadata>
  <rdf:RDF xmlns:dc="http://purl.org/dc/elements/1.1/" xmlns:cc="http://creativecommons.org/ns#" xmlns:rdf="http://www.w3.org/1999/02/22-rdf-syntax-ns#">
   <cc:Work>
    <dc:type rdf:resource="http://purl.org/dc/dcmitype/StillImage"/>
    <dc:date>2026-06-18T09:21:25.394481</dc:date>
    <dc:format>image/svg+xml</dc:format>
    <dc:creator>
     <cc:Agent>
      <dc:title>Matplotlib v3.10.0, https://matplotlib.org/</dc:title>
     </cc:Agent>
    </dc:creator>
   </cc:Work>
  </rdf:RDF>
 </metadata>
 <defs>
  <style type="text/css">*{stroke-linejoin: round; stroke-linecap: butt}</style>
 </defs>
 <g id="figure_1">
  <g id="patch_1">
   <path d="M 0 252.618719 
L 406.74 252.618719 
L 406.74 0 
L 0 0 
z
" style="fill: #ffffff"/>
  </g>
  <g id="axes_1">
   <g id="patch_2">
    <path d="M 36.86 217.457156 
L 393.98 217.457156 
L 393.98 34.505156 
L 36.86 34.505156 
z
" style="fill: #ffffff"/>
   </g>
   <g id="matplotlib.axis_1">
    <g id="xtick_1">
     <g id="line2d_1">
      <defs>
       <path id="m5c936ddbaf" d="M 0 0 
L 0 4 
" style="stroke: #272727"/>
      </defs>
      <g>
       <use xlink:href="#m5c936ddbaf" x="36.86" y="217.457156" style="fill: #272727; stroke: #272727"/>
      </g>
     </g>
     <g id="text_1">
      <text style="font-size: 8px; font-family: 'Arial', 'Helvetica', 'DejaVu Sans', sans-serif; text-anchor: middle" x="36.86" y="230.683406" transform="rotate(-0 36.86 230.683406)">0.0</text>
     </g>
    </g>
    <g id="xtick_2">
     <g id="line2d_2">
      <g>
       <use xlink:href="#m5c936ddbaf" x="108.284" y="217.457156" style="fill: #272727; stroke: #272727"/>
      </g>
     </g>
     <g id="text_2">
      <text style="font-size: 8px; font-family: 'Arial', 'Helvetica', 'DejaVu Sans', sans-serif; text-anchor: middle" x="108.284" y="230.683406" transform="rotate(-0 108.284 230.683406)">0.2</text>
     </g>
    </g>
    <g id="xtick_3">
     <g id="line2d_3">
      <g>
       <use xlink:href="#m5c936ddbaf" x="179.708" y="217.457156" style="fill: #272727; stroke: #272727"/>
      </g>
     </g>
     <g id="text_3">
      <text style="font-size: 8px; font-family: 'Arial', 'Helvetica', 'DejaVu Sans', sans-serif; text-anchor: middle" x="179.708" y="230.683406" transform="rotate(-0 179.708 230.683406)">0.4</text>
     </g>
    </g>
    <g id="xtick_4">
     <g id="line2d_4">
      <g>
       <use xlink:href="#m5c936ddbaf" x="251.132" y="217.457156" style="fill: #272727; stroke: #272727"/>
      </g>
     </g>
     <g id="text_4">
      <text style="font-size: 8px; font-family: 'Arial', 'Helvetica', 'DejaVu Sans', sans-serif; text-anchor: middle" x="251.132" y="230.683406" transform="rotate(-0 251.132 230.683406)">0.6</text>
     </g>
    </g>
    <g id="xtick_5">
     <g id="line2d_5">
      <g>
       <use xlink:href="#m5c936ddbaf" x="322.556" y="217.457156" style="fill: #272727; stroke: #272727"/>
      </g>
     </g>
     <g id="text_5">
      <text style="font-size: 8px; font-family: 'Arial', 'Helvetica', 'DejaVu Sans', sans-serif; text-anchor: middle" x="322.556" y="230.683406" transform="rotate(-0 322.556 230.683406)">0.8</text>
     </g>
    </g>
    <g id="xtick_6">
     <g id="line2d_6">
      <g>
       <use xlink:href="#m5c936ddbaf" x="393.98" y="217.457156" style="fill: #272727; stroke: #272727"/>
      </g>
     </g>
     <g id="text_6">
      <text style="font-size: 8px; font-family: 'Arial', 'Helvetica', 'DejaVu Sans', sans-serif; text-anchor: middle" x="393.98" y="230.683406" transform="rotate(-0 393.98 230.683406)">1.0</text>
     </g>
    </g>
    <g id="text_7">
     <text style="font-size: 10px; font-family: 'Arial', 'Helvetica', 'DejaVu Sans', sans-serif; text-anchor: middle" x="215.42" y="243.431219" transform="rotate(-0 215.42 243.431219)">Prediction confidence</text>
    </g>
   </g>
   <g id="matplotlib.axis_2">
    <g id="ytick_1">
     <g id="line2d_7">
      <defs>
       <path id="mf4bb655b12" d="M 0 0 
L -4 0 
" style="stroke: #272727"/>
      </defs>
      <g>
       <use xlink:href="#mf4bb655b12" x="36.86" y="217.457156" style="fill: #272727; stroke: #272727"/>
      </g>
     </g>
     <g id="text_8">
      <text style="font-size: 8px; font-family: 'Arial', 'Helvetica', 'DejaVu Sans', sans-serif; text-anchor: end" x="29.36" y="220.320281" transform="rotate(-0 29.36 220.320281)">0</text>
     </g>
    </g>
    <g id="ytick_2">
     <g id="line2d_8">
      <g>
       <use xlink:href="#mf4bb655b12" x="36.86" y="193.231247" style="fill: #272727; stroke: #272727"/>
      </g>
     </g>
     <g id="text_9">
      <text style="font-size: 8px; font-family: 'Arial', 'Helvetica', 'DejaVu Sans', sans-serif; text-anchor: end" x="29.36" y="196.094372" transform="rotate(-0 29.36 196.094372)">2</text>
     </g>
    </g>
    <g id="ytick_3">
     <g id="line2d_9">
      <g>
       <use xlink:href="#mf4bb655b12" x="36.86" y="169.005337" style="fill: #272727; stroke: #272727"/>
      </g>
     </g>
     <g id="text_10">
      <text style="font-size: 8px; font-family: 'Arial', 'Helvetica', 'DejaVu Sans', sans-serif; text-anchor: end" x="29.36" y="171.868462" transform="rotate(-0 29.36 171.868462)">4</text>
     </g>
    </g>
    <g id="ytick_4">
     <g id="line2d_10">
      <g>
       <use xlink:href="#mf4bb655b12" x="36.86" y="144.779428" style="fill: #272727; stroke: #272727"/>
      </g>
     </g>
     <g id="text_11">
      <text style="font-size: 8px; font-family: 'Arial', 'Helvetica', 'DejaVu Sans', sans-serif; text-anchor: end" x="29.36" y="147.642553" transform="rotate(-0 29.36 147.642553)">6</text>
     </g>
    </g>
    <g id="ytick_5">
     <g id="line2d_11">
      <g>
       <use xlink:href="#mf4bb655b12" x="36.86" y="120.553519" style="fill: #272727; stroke: #272727"/>
      </g>
     </g>
     <g id="text_12">
      <text style="font-size: 8px; font-family: 'Arial', 'Helvetica', 'DejaVu Sans', sans-serif; text-anchor: end" x="29.36" y="123.416644" transform="rotate(-0 29.36 123.416644)">8</text>
     </g>
    </g>
    <g id="ytick_6">
     <g id="line2d_12">
      <g>
       <use xlink:href="#mf4bb655b12" x="36.86" y="96.327609" style="fill: #272727; stroke: #272727"/>
      </g>
     </g>
     <g id="text_13">
      <text style="font-size: 8px; font-family: 'Arial', 'Helvetica', 'DejaVu Sans', sans-serif; text-anchor: end" x="29.36" y="99.190734" transform="rotate(-0 29.36 99.190734)">10</text>
     </g>
    </g>
    <g id="ytick_7">
     <g id="line2d_13">
      <g>
       <use xlink:href="#mf4bb655b12" x="36.86" y="72.1017" style="fill: #272727; stroke: #272727"/>
      </g>
     </g>
     <g id="text_14">
      <text style="font-size: 8px; font-family: 'Arial', 'Helvetica', 'DejaVu Sans', sans-serif; text-anchor: end" x="29.36" y="74.964825" transform="rotate(-0 29.36 74.964825)">12</text>
     </g>
    </g>
    <g id="ytick_8">
     <g id="line2d_14">
      <g>
       <use xlink:href="#mf4bb655b12" x="36.86" y="47.875791" style="fill: #272727; stroke: #272727"/>
      </g>
     </g>
     <g id="text_15">
      <text style="font-size: 8px; font-family: 'Arial', 'Helvetica', 'DejaVu Sans', sans-serif; text-anchor: end" x="29.36" y="50.738916" transform="rotate(-0 29.36 50.738916)">14</text>
     </g>
    </g>
    <g id="text_16">
     <text style="font-size: 10px; font-family: 'Arial', 'Helvetica', 'DejaVu Sans', sans-serif; text-anchor: middle" x="14.357813" y="125.981156" transform="rotate(-90 14.357813 125.981156)">Density</text>
    </g>
   </g>
   <g id="line2d_15">
    <path d="M 119.025917 217.378493 
L 128.191053 217.378493 
L 128.191053 217.221165 
L 137.356188 217.221165 
L 137.356188 217.378493 
L 146.521323 217.378493 
L 146.521323 217.378493 
L 155.686459 217.378493 
L 155.686459 217.299829 
L 164.851594 217.299829 
L 164.851594 217.063838 
L 174.016729 217.063838 
L 174.016729 217.142502 
L 183.181865 217.142502 
L 183.181865 217.299829 
L 192.347 217.299829 
L 192.347 216.985174 
L 201.512135 216.985174 
L 201.512135 217.142502 
L 210.677271 217.142502 
L 210.677271 214.074619 
L 219.842406 214.074619 
L 219.842406 210.928073 
L 229.007542 210.928073 
L 229.007542 210.613418 
L 238.172677 210.613418 
L 238.172677 209.276136 
L 247.337812 209.276136 
L 247.337812 211.872037 
L 256.502948 211.872037 
L 256.502948 210.062773 
L 265.668083 210.062773 
L 265.668083 209.748118 
L 274.833218 209.748118 
L 274.833218 207.781526 
L 283.998354 207.781526 
L 283.998354 207.938854 
L 293.163489 207.938854 
L 293.163489 205.50028 
L 302.328624 205.50028 
L 302.328624 204.005671 
L 311.49376 204.005671 
L 311.49376 199.207188 
L 320.658895 199.207188 
L 320.658895 199.049861 
L 329.824031 199.049861 
L 329.824031 194.015386 
L 338.989166 194.015386 
L 338.989166 190.711513 
L 348.154301 190.711513 
L 348.154301 185.991693 
L 357.319437 185.991693 
L 357.319437 180.721228 
L 366.484572 180.721228 
L 366.484572 174.900118 
L 375.649707 174.900118 
L 375.649707 171.124262 
L 384.814843 171.124262 
L 384.814843 81.919675 
L 393.979978 81.919675 
L 393.979978 81.919675 
" clip-path="url(#p871e61b216)" style="fill: none; stroke: #b64342; stroke-width: 1.5; stroke-linecap: square"/>
   </g>
   <g id="line2d_16">
    <path d="M 119.025917 217.378493 
L 128.191053 217.378493 
L 128.191053 217.457156 
L 137.356188 217.457156 
L 137.356188 217.457156 
L 146.521323 217.457156 
L 146.521323 217.221165 
L 155.686459 217.221165 
L 155.686459 217.457156 
L 164.851594 217.457156 
L 164.851594 217.221165 
L 174.016729 217.221165 
L 174.016729 217.299829 
L 183.181865 217.299829 
L 183.181865 216.749183 
L 192.347 216.749183 
L 192.347 217.457156 
L 201.512135 217.457156 
L 201.512135 216.749183 
L 210.677271 216.749183 
L 210.677271 213.681301 
L 219.842406 213.681301 
L 219.842406 209.276136 
L 229.007542 209.276136 
L 229.007542 211.006736 
L 238.172677 211.006736 
L 238.172677 210.2201 
L 247.337812 210.2201 
L 247.337812 210.928073 
L 256.502948 210.928073 
L 256.502948 212.422682 
L 265.668083 212.422682 
L 265.668083 210.141436 
L 274.833218 210.141436 
L 274.833218 208.096181 
L 283.998354 208.096181 
L 283.998354 208.253508 
L 293.163489 208.253508 
L 293.163489 208.72549 
L 302.328624 208.72549 
L 302.328624 203.691016 
L 311.49376 203.691016 
L 311.49376 205.814935 
L 320.658895 205.814935 
L 320.658895 202.196407 
L 329.824031 202.196407 
L 329.824031 191.340822 
L 338.989166 191.340822 
L 338.989166 186.463675 
L 348.154301 186.463675 
L 348.154301 183.081138 
L 357.319437 183.081138 
L 357.319437 177.574682 
L 366.484572 177.574682 
L 366.484572 165.460479 
L 375.649707 165.460479 
L 375.649707 178.046664 
L 384.814843 178.046664 
L 384.814843 82.863639 
L 393.979978 82.863639 
L 393.979978 82.863639 
" clip-path="url(#p871e61b216)" style="fill: none; stroke: #7c6ccf; stroke-width: 1.5; stroke-linecap: square"/>
   </g>
   <g id="line2d_17">
    <path d="M 119.025917 217.457156 
L 128.191053 217.457156 
L 128.191053 217.457156 
L 137.356188 217.457156 
L 137.356188 217.378493 
L 146.521323 217.378493 
L 146.521323 217.299829 
L 155.686459 217.299829 
L 155.686459 217.063838 
L 164.851594 217.063838 
L 164.851594 217.457156 
L 174.016729 217.457156 
L 174.016729 217.299829 
L 183.181865 217.299829 
L 183.181865 217.063838 
L 192.347 217.063838 
L 192.347 216.827847 
L 201.512135 216.827847 
L 201.512135 217.299829 
L 210.677271 217.299829 
L 210.677271 212.029364 
L 219.842406 212.029364 
L 219.842406 208.253508 
L 229.007542 208.253508 
L 229.007542 210.534754 
L 238.172677 210.534754 
L 238.172677 211.242727 
L 247.337812 211.242727 
L 247.337812 211.0854 
L 256.502948 211.0854 
L 256.502948 208.961481 
L 265.668083 208.961481 
L 265.668083 208.646827 
L 274.833218 208.646827 
L 274.833218 209.276136 
L 283.998354 209.276136 
L 283.998354 210.377427 
L 293.163489 210.377427 
L 293.163489 206.837563 
L 302.328624 206.837563 
L 302.328624 205.264289 
L 311.49376 205.264289 
L 311.49376 204.241662 
L 320.658895 204.241662 
L 320.658895 202.196407 
L 329.824031 202.196407 
L 329.824031 198.656542 
L 338.989166 198.656542 
L 338.989166 190.632849 
L 348.154301 190.632849 
L 348.154301 190.632849 
L 357.319437 190.632849 
L 357.319437 183.946438 
L 366.484572 183.946438 
L 366.484572 182.845147 
L 375.649707 182.845147 
L 375.649707 180.249247 
L 384.814843 180.249247 
L 384.814843 43.217156 
L 393.979978 43.217156 
L 393.979978 43.217156 
" clip-path="url(#p871e61b216)" style="fill: none; stroke: #272727; stroke-width: 1.5; stroke-linecap: square"/>
   </g>
   <g id="line2d_18">
    <path d="M 119.025917 217.457156 
L 128.191053 217.457156 
L 128.191053 217.457156 
L 137.356188 217.457156 
L 137.356188 217.457156 
L 146.521323 217.457156 
L 146.521323 217.457156 
L 155.686459 217.457156 
L 155.686459 217.299829 
L 164.851594 217.299829 
L 164.851594 217.378493 
L 174.016729 217.378493 
L 174.016729 217.221165 
L 183.181865 217.221165 
L 183.181865 217.457156 
L 192.347 217.457156 
L 192.347 217.457156 
L 201.512135 217.457156 
L 201.512135 217.378493 
L 210.677271 217.378493 
L 210.677271 213.995955 
L 219.842406 213.995955 
L 219.842406 211.9507 
L 229.007542 211.9507 
L 229.007542 212.186691 
L 238.172677 212.186691 
L 238.172677 211.9507 
L 247.337812 211.9507 
L 247.337812 209.984109 
L 256.502948 209.984109 
L 256.502948 211.872037 
L 265.668083 211.872037 
L 265.668083 209.3548 
L 274.833218 209.3548 
L 274.833218 207.86019 
L 283.998354 207.86019 
L 283.998354 206.286917 
L 293.163489 206.286917 
L 293.163489 207.152217 
L 302.328624 207.152217 
L 302.328624 205.657608 
L 311.49376 205.657608 
L 311.49376 201.016452 
L 320.658895 201.016452 
L 320.658895 199.443179 
L 329.824031 199.443179 
L 329.824031 195.745987 
L 338.989166 195.745987 
L 338.989166 190.711513 
L 348.154301 190.711513 
L 348.154301 188.351603 
L 357.319437 188.351603 
L 357.319437 185.205057 
L 366.484572 185.205057 
L 366.484572 180.485238 
L 375.649707 180.485238 
L 375.649707 180.013256 
L 384.814843 180.013256 
L 384.814843 48.487621 
L 393.979978 48.487621 
L 393.979978 48.487621 
" clip-path="url(#p871e61b216)" style="fill: none; stroke: #33b5a5; stroke-width: 1.5; stroke-linecap: square"/>
   </g>
   <g id="patch_3">
    <path d="M 36.86 217.457156 
L 36.86 34.505156 
" style="fill: none; stroke: #000000; stroke-width: 1.1; stroke-linejoin: miter; stroke-linecap: square"/>
   </g>
   <g id="patch_4">
    <path d="M 36.86 217.457156 
L 393.98 217.457156 
" style="fill: none; stroke: #000000; stroke-width: 1.1; stroke-linejoin: miter; stroke-linecap: square"/>
   </g>
   <g id="text_17">
    <text style="font-weight: 700; font-size: 13px; font-family: 'Arial', 'Helvetica', 'DejaVu Sans', sans-serif; text-anchor: middle" x="215.42" y="16.505156" transform="rotate(-0 215.42 16.505156)">Confidence distribution</text>
   </g>
   <g id="legend_1">
    <g id="line2d_19">
     <path d="M 44.06 44.728906 
L 52.06 44.728906 
L 60.06 44.728906 
" style="fill: none; stroke: #33b5a5; stroke-width: 1.5; stroke-linecap: square"/>
    </g>
    <g id="text_18">
     <text style="font-size: 8px; font-family: 'Arial', 'Helvetica', 'DejaVu Sans', sans-serif; text-anchor: start" x="66.46" y="47.528906" transform="rotate(-0 66.46 47.528906)">LightGBM</text>
    </g>
    <g id="line2d_20">
     <path d="M 44.06 56.138906 
L 52.06 56.138906 
L 60.06 56.138906 
" style="fill: none; stroke: #272727; stroke-width: 1.5; stroke-linecap: square"/>
    </g>
    <g id="text_19">
     <text style="font-size: 8px; font-family: 'Arial', 'Helvetica', 'DejaVu Sans', sans-serif; text-anchor: start" x="66.46" y="58.938906" transform="rotate(-0 66.46 58.938906)">TabICL</text>
    </g>
    <g id="line2d_21">
     <path d="M 44.06 67.455156 
L 52.06 67.455156 
L 60.06 67.455156 
" style="fill: none; stroke: #7c6ccf; stroke-width: 1.5; stroke-linecap: square"/>
    </g>
    <g id="text_20">
     <text style="font-size: 8px; font-family: 'Arial', 'Helvetica', 'DejaVu Sans', sans-serif; text-anchor: start" x="66.46" y="70.255156" transform="rotate(-0 66.46 70.255156)">TabPFN</text>
    </g>
    <g id="line2d_22">
     <path d="M 44.06 78.771406 
L 52.06 78.771406 
L 60.06 78.771406 
" style="fill: none; stroke: #b64342; stroke-width: 1.5; stroke-linecap: square"/>
    </g>
    <g id="text_21">
     <text style="font-size: 8px; font-family: 'Arial', 'Helvetica', 'DejaVu Sans', sans-serif; text-anchor: start" x="66.46" y="81.571406" transform="rotate(-0 66.46 81.571406)">XGBoost</text>
    </g>
   </g>
  </g>
 </g>
 <defs>
  <clipPath id="p871e61b216">
   <rect x="36.86" y="34.505156" width="357.12" height="182.952"/>
  </clipPath>
 </defs>
</svg>
