<?xml version="1.0" encoding="utf-8" standalone="no"?>
<!DOCTYPE svg PUBLIC "-//W3C//DTD SVG 1.1//EN"
  "http://www.w3.org/Graphics/SVG/1.1/DTD/svg11.dtd">
<svg xmlns:xlink="http://www.w3.org/1999/xlink" width="428.103112pt" height="245.367094pt" viewBox="0 0 428.103112 245.367094" xmlns="http://www.w3.org/2000/svg" version="1.1">
 <metadata>
  <rdf:RDF xmlns:dc="http://purl.org/dc/elements/1.1/" xmlns:cc="http://creativecommons.org/ns#" xmlns:rdf="http://www.w3.org/1999/02/22-rdf-syntax-ns#">
   <cc:Work>
    <dc:type rdf:resource="http://purl.org/dc/dcmitype/StillImage"/>
    <dc:date>2026-06-17T09:44:31.794883</dc:date>
    <dc:format>image/svg+xml</dc:format>
    <dc:creator>
     <cc:Agent>
      <dc:title>Matplotlib v3.10.0, https://matplotlib.org/</dc:title>
     </cc:Agent>
    </dc:creator>
   </cc:Work>
  </rdf:RDF>
 </metadata>
 <defs>
  <style type="text/css">*{stroke-linejoin: round; stroke-linecap: butt}</style>
 </defs>
 <g id="figure_1">
  <g id="patch_1">
   <path d="M 0 245.367094 
L 428.103112 245.367094 
L 428.103112 0 
L 0 0 
z
" style="fill: #ffffff"/>
  </g>
  <g id="axes_1">
   <g id="patch_2">
    <path d="M 38.965312 223.159594 
L 362.605312 223.159594 
L 362.605312 34.663594 
L 38.965312 34.663594 
z
" style="fill: #ffffff"/>
   </g>
   <g id="patch_3">
    <path d="M 59.192812 223.159594 
L 79.420312 223.159594 
L 79.420312 53.539342 
L 59.192812 53.539342 
z
" clip-path="url(#p653a2ab661)" style="fill: #6c84b7"/>
   </g>
   <g id="patch_4">
    <path d="M 140.102812 223.159594 
L 160.330312 223.159594 
L 160.330312 55.199483 
L 140.102812 55.199483 
z
" clip-path="url(#p653a2ab661)" style="fill: #6c84b7"/>
   </g>
   <g id="patch_5">
    <path d="M 221.012812 223.159594 
L 241.240312 223.159594 
L 241.240312 49.727839 
L 221.012812 49.727839 
z
" clip-path="url(#p653a2ab661)" style="fill: #6c84b7"/>
   </g>
   <g id="patch_6">
    <path d="M 301.922812 223.159594 
L 322.150312 223.159594 
L 322.150312 54.345357 
L 301.922812 54.345357 
z
" clip-path="url(#p653a2ab661)" style="fill: #6c84b7"/>
   </g>
   <g id="patch_7">
    <path d="M 79.420312 223.159594 
L 99.647812 223.159594 
L 99.647812 93.550515 
L 79.420312 93.550515 
z
" clip-path="url(#p653a2ab661)" style="fill: #deaba6"/>
   </g>
   <g id="patch_8">
    <path d="M 160.330312 223.159594 
L 180.557812 223.159594 
L 180.557812 99.681919 
L 160.330312 99.681919 
z
" clip-path="url(#p653a2ab661)" style="fill: #deaba6"/>
   </g>
   <g id="patch_9">
    <path d="M 241.240312 223.159594 
L 261.467812 223.159594 
L 261.467812 74.810135 
L 241.240312 74.810135 
z
" clip-path="url(#p653a2ab661)" style="fill: #deaba6"/>
   </g>
   <g id="patch_10">
    <path d="M 322.150312 223.159594 
L 342.377813 223.159594 
L 342.377813 91.149376 
L 322.150312 91.149376 
z
" clip-path="url(#p653a2ab661)" style="fill: #deaba6"/>
   </g>
   <g id="patch_11">
    <path d="M 79.420312 223.159594 
L 79.420312 223.159594 
L 79.420312 223.159594 
L 79.420312 223.159594 
z
" clip-path="url(#p653a2ab661)" style="fill: #6c84b7"/>
   </g>
   <g id="patch_12">
    <path d="M 79.420312 223.159594 
L 79.420312 223.159594 
L 79.420312 223.159594 
L 79.420312 223.159594 
z
" clip-path="url(#p653a2ab661)" style="fill: #deaba6"/>
   </g>
   <g id="matplotlib.axis_1">
    <g id="xtick_1">
     <g id="line2d_1">
      <defs>
       <path id="m6ac971c136" d="M 0 0 
L 0 4 
" style="stroke: #272727"/>
      </defs>
      <g>
       <use xlink:href="#m6ac971c136" x="79.420312" y="223.159594" style="fill: #272727; stroke: #272727"/>
      </g>
     </g>
     <g id="text_1">
      <text style="font-size: 8px; font-family: 'Arial', 'Helvetica', 'DejaVu Sans', sans-serif; text-anchor: middle" x="79.420312" y="236.385844" transform="rotate(-0 79.420312 236.385844)">TabICL</text>
     </g>
    </g>
    <g id="xtick_2">
     <g id="line2d_2">
      <g>
       <use xlink:href="#m6ac971c136" x="160.330312" y="223.159594" style="fill: #272727; stroke: #272727"/>
      </g>
     </g>
     <g id="text_2">
      <text style="font-size: 8px; font-family: 'Arial', 'Helvetica', 'DejaVu Sans', sans-serif; text-anchor: middle" x="160.330312" y="236.385844" transform="rotate(-0 160.330312 236.385844)">TabPFN</text>
     </g>
    </g>
    <g id="xtick_3">
     <g id="line2d_3">
      <g>
       <use xlink:href="#m6ac971c136" x="241.240312" y="223.159594" style="fill: #272727; stroke: #272727"/>
      </g>
     </g>
     <g id="text_3">
      <text style="font-size: 8px; font-family: 'Arial', 'Helvetica', 'DejaVu Sans', sans-serif; text-anchor: middle" x="241.240312" y="236.483344" transform="rotate(-0 241.240312 236.483344)">LightGBM</text>
     </g>
    </g>
    <g id="xtick_4">
     <g id="line2d_4">
      <g>
       <use xlink:href="#m6ac971c136" x="322.150312" y="223.159594" style="fill: #272727; stroke: #272727"/>
      </g>
     </g>
     <g id="text_4">
      <text style="font-size: 8px; font-family: 'Arial', 'Helvetica', 'DejaVu Sans', sans-serif; text-anchor: middle" x="322.150312" y="236.385844" transform="rotate(-0 322.150312 236.385844)">XGBoost</text>
     </g>
    </g>
   </g>
   <g id="matplotlib.axis_2">
    <g id="ytick_1">
     <g id="line2d_5">
      <defs>
       <path id="me9e9e2f0dd" d="M 0 0 
L -4 0 
" style="stroke: #272727"/>
      </defs>
      <g>
       <use xlink:href="#me9e9e2f0dd" x="38.965312" y="223.159594" style="fill: #272727; stroke: #272727"/>
      </g>
     </g>
     <g id="text_5">
      <text style="font-size: 8px; font-family: 'Arial', 'Helvetica', 'DejaVu Sans', sans-serif; text-anchor: end" x="31.465312" y="226.022719" transform="rotate(-0 31.465312 226.022719)">0.0</text>
     </g>
    </g>
    <g id="ytick_2">
     <g id="line2d_6">
      <g>
       <use xlink:href="#me9e9e2f0dd" x="38.965312" y="186.910363" style="fill: #272727; stroke: #272727"/>
      </g>
     </g>
     <g id="text_6">
      <text style="font-size: 8px; font-family: 'Arial', 'Helvetica', 'DejaVu Sans', sans-serif; text-anchor: end" x="31.465312" y="189.773488" transform="rotate(-0 31.465312 189.773488)">0.2</text>
     </g>
    </g>
    <g id="ytick_3">
     <g id="line2d_7">
      <g>
       <use xlink:href="#me9e9e2f0dd" x="38.965312" y="150.661132" style="fill: #272727; stroke: #272727"/>
      </g>
     </g>
     <g id="text_7">
      <text style="font-size: 8px; font-family: 'Arial', 'Helvetica', 'DejaVu Sans', sans-serif; text-anchor: end" x="31.465312" y="153.524257" transform="rotate(-0 31.465312 153.524257)">0.4</text>
     </g>
    </g>
    <g id="ytick_4">
     <g id="line2d_8">
      <g>
       <use xlink:href="#me9e9e2f0dd" x="38.965312" y="114.411901" style="fill: #272727; stroke: #272727"/>
      </g>
     </g>
     <g id="text_8">
      <text style="font-size: 8px; font-family: 'Arial', 'Helvetica', 'DejaVu Sans', sans-serif; text-anchor: end" x="31.465312" y="117.275026" transform="rotate(-0 31.465312 117.275026)">0.6</text>
     </g>
    </g>
    <g id="ytick_5">
     <g id="line2d_9">
      <g>
       <use xlink:href="#me9e9e2f0dd" x="38.965312" y="78.162671" style="fill: #272727; stroke: #272727"/>
      </g>
     </g>
     <g id="text_9">
      <text style="font-size: 8px; font-family: 'Arial', 'Helvetica', 'DejaVu Sans', sans-serif; text-anchor: end" x="31.465312" y="81.025796" transform="rotate(-0 31.465312 81.025796)">0.8</text>
     </g>
    </g>
    <g id="ytick_6">
     <g id="line2d_10">
      <g>
       <use xlink:href="#me9e9e2f0dd" x="38.965312" y="41.91344" style="fill: #272727; stroke: #272727"/>
      </g>
     </g>
     <g id="text_10">
      <text style="font-size: 8px; font-family: 'Arial', 'Helvetica', 'DejaVu Sans', sans-serif; text-anchor: end" x="31.465312" y="44.776565" transform="rotate(-0 31.465312 44.776565)">1.0</text>
     </g>
    </g>
    <g id="text_11">
     <text style="font-size: 10px; font-family: 'Arial', 'Helvetica', 'DejaVu Sans', sans-serif; text-anchor: middle" x="14.357812" y="128.911594" transform="rotate(-90 14.357812 128.911594)">Mean confidence</text>
    </g>
   </g>
   <g id="line2d_11">
    <path d="M 66.070162 64.126372 
L 72.542963 64.126372 
M 69.306562 64.126372 
L 69.306562 42.952311 
M 66.070162 42.952311 
L 72.542963 42.952311 
" clip-path="url(#p653a2ab661)" style="fill: none; stroke: #6f6f6f; stroke-linecap: square"/>
   </g>
   <g id="line2d_12">
    <path d="M 146.980163 65.217186 
L 153.452963 65.217186 
M 150.216563 65.217186 
L 150.216563 45.18178 
M 146.980163 45.18178 
L 153.452963 45.18178 
" clip-path="url(#p653a2ab661)" style="fill: none; stroke: #6f6f6f; stroke-linecap: square"/>
   </g>
   <g id="line2d_13">
    <path d="M 227.890162 59.201651 
L 234.362962 59.201651 
M 231.126562 59.201651 
L 231.126562 40.254027 
M 227.890162 40.254027 
L 234.362962 40.254027 
" clip-path="url(#p653a2ab661)" style="fill: none; stroke: #6f6f6f; stroke-linecap: square"/>
   </g>
   <g id="line2d_14">
    <path d="M 308.800162 62.588912 
L 315.272962 62.588912 
M 312.036562 62.588912 
L 312.036562 46.101802 
M 308.800162 46.101802 
L 315.272962 46.101802 
" clip-path="url(#p653a2ab661)" style="fill: none; stroke: #6f6f6f; stroke-linecap: square"/>
   </g>
   <g id="line2d_15">
    <path d="M 86.297662 108.823519 
L 92.770462 108.823519 
M 89.534062 108.823519 
L 89.534062 78.277511 
M 86.297662 78.277511 
L 92.770462 78.277511 
" clip-path="url(#p653a2ab661)" style="fill: none; stroke: #6f6f6f; stroke-linecap: square"/>
   </g>
   <g id="line2d_16">
    <path d="M 167.207662 116.243855 
L 173.680462 116.243855 
M 170.444062 116.243855 
L 170.444062 83.119982 
M 167.207662 83.119982 
L 173.680462 83.119982 
" clip-path="url(#p653a2ab661)" style="fill: none; stroke: #6f6f6f; stroke-linecap: square"/>
   </g>
   <g id="line2d_17">
    <path d="M 248.117662 83.165548 
L 254.590463 83.165548 
M 251.354062 83.165548 
L 251.354062 66.454722 
M 248.117662 66.454722 
L 254.590463 66.454722 
" clip-path="url(#p653a2ab661)" style="fill: none; stroke: #6f6f6f; stroke-linecap: square"/>
   </g>
   <g id="line2d_18">
    <path d="M 329.027663 102.102552 
L 335.500463 102.102552 
M 332.264063 102.102552 
L 332.264063 80.1962 
M 329.027663 80.1962 
L 335.500463 80.1962 
" clip-path="url(#p653a2ab661)" style="fill: none; stroke: #6f6f6f; stroke-linecap: square"/>
   </g>
   <g id="patch_13">
    <path d="M 38.965312 223.159594 
L 38.965312 34.663594 
" style="fill: none; stroke: #000000; stroke-width: 1.1; stroke-linejoin: miter; stroke-linecap: square"/>
   </g>
   <g id="patch_14">
    <path d="M 38.965312 223.159594 
L 362.605312 223.159594 
" style="fill: none; stroke: #000000; stroke-width: 1.1; stroke-linejoin: miter; stroke-linecap: square"/>
   </g>
   <g id="text_12">
    <text style="font-weight: 700; font-size: 13px; font-family: 'Arial', 'Helvetica', 'DejaVu Sans', sans-serif; text-anchor: middle" x="200.785312" y="16.663594" transform="rotate(-0 200.785312 16.663594)">Confidence reliability</text>
   </g>
   <g id="legend_1">
    <g id="patch_15">
     <path d="M 372.278112 125.274719 
L 385.078112 125.274719 
L 385.078112 119.674719 
L 372.278112 119.674719 
z
" style="fill: #6c84b7"/>
    </g>
    <g id="text_13">
     <text style="font-size: 8px; font-family: 'Arial', 'Helvetica', 'DejaVu Sans', sans-serif; text-anchor: start" x="391.478112" y="125.274719" transform="rotate(-0 391.478112 125.274719)">Correct</text>
    </g>
    <g id="patch_16">
     <path d="M 372.278112 136.590969 
L 385.078112 136.590969 
L 385.078112 130.990969 
L 372.278112 130.990969 
z
" style="fill: #deaba6"/>
    </g>
    <g id="text_14">
     <text style="font-size: 8px; font-family: 'Arial', 'Helvetica', 'DejaVu Sans', sans-serif; text-anchor: start" x="391.478112" y="136.590969" transform="rotate(-0 391.478112 136.590969)">Wrong</text>
    </g>
   </g>
  </g>
 </g>
 <defs>
  <clipPath id="p653a2ab661">
   <rect x="38.965312" y="34.663594" width="323.64" height="188.496"/>
  </clipPath>
 </defs>
</svg>
