<?xml version="1.0" encoding="utf-8" standalone="no"?>
<!DOCTYPE svg PUBLIC "-//W3C//DTD SVG 1.1//EN"
  "http://www.w3.org/Graphics/SVG/1.1/DTD/svg11.dtd">
<svg xmlns:xlink="http://www.w3.org/1999/xlink" width="396.48pt" height="248.618719pt" viewBox="0 0 396.48 248.618719" xmlns="http://www.w3.org/2000/svg" version="1.1">
 <metadata>
  <rdf:RDF xmlns:dc="http://purl.org/dc/elements/1.1/" xmlns:cc="http://creativecommons.org/ns#" xmlns:rdf="http://www.w3.org/1999/02/22-rdf-syntax-ns#">
   <cc:Work>
    <dc:type rdf:resource="http://purl.org/dc/dcmitype/StillImage"/>
    <dc:date>2026-06-18T09:39:38.185076</dc:date>
    <dc:format>image/svg+xml</dc:format>
    <dc:creator>
     <cc:Agent>
      <dc:title>Matplotlib v3.10.0, https://matplotlib.org/</dc:title>
     </cc:Agent>
    </dc:creator>
   </cc:Work>
  </rdf:RDF>
 </metadata>
 <defs>
  <style type="text/css">*{stroke-linejoin: round; stroke-linecap: butt}</style>
 </defs>
 <g id="figure_1">
  <g id="patch_1">
   <path d="M 0 248.618719 
L 396.48 248.618719 
L 396.48 -0 
L 0 -0 
z
" style="fill: #ffffff"/>
  </g>
  <g id="axes_1">
   <g id="patch_2">
    <path d="M 43.53125 213.457156 
L 322.53125 213.457156 
L 322.53125 30.505156 
L 43.53125 30.505156 
z
" style="fill: #ffffff"/>
   </g>
   <g id="FillBetweenPolyCollection_1"/>
   <g id="FillBetweenPolyCollection_2"/>
   <g id="FillBetweenPolyCollection_3"/>
   <g id="FillBetweenPolyCollection_4"/>
   <g id="matplotlib.axis_1">
    <g id="xtick_1">
     <g id="line2d_1">
      <defs>
       <path id="m37717c38c9" d="M 0 0 
L 0 4 
" style="stroke: #272727"/>
      </defs>
      <g>
       <use xlink:href="#m37717c38c9" x="49.709572" y="213.457156" style="fill: #272727; stroke: #272727"/>
      </g>
     </g>
     <g id="text_1">
      <text style="font-size: 8px; font-family: 'Arial', 'Helvetica', 'DejaVu Sans', sans-serif; text-anchor: middle" x="49.709572" y="226.683406" transform="rotate(-0 49.709572 226.683406)">0</text>
     </g>
    </g>
    <g id="xtick_2">
     <g id="line2d_2">
      <g>
       <use xlink:href="#m37717c38c9" x="103.905376" y="213.457156" style="fill: #272727; stroke: #272727"/>
      </g>
     </g>
     <g id="text_2">
      <text style="font-size: 8px; font-family: 'Arial', 'Helvetica', 'DejaVu Sans', sans-serif; text-anchor: middle" x="103.905376" y="226.683406" transform="rotate(-0 103.905376 226.683406)">50</text>
     </g>
    </g>
    <g id="xtick_3">
     <g id="line2d_3">
      <g>
       <use xlink:href="#m37717c38c9" x="158.10118" y="213.457156" style="fill: #272727; stroke: #272727"/>
      </g>
     </g>
     <g id="text_3">
      <text style="font-size: 8px; font-family: 'Arial', 'Helvetica', 'DejaVu Sans', sans-serif; text-anchor: middle" x="158.10118" y="226.683406" transform="rotate(-0 158.10118 226.683406)">100</text>
     </g>
    </g>
    <g id="xtick_4">
     <g id="line2d_4">
      <g>
       <use xlink:href="#m37717c38c9" x="212.296984" y="213.457156" style="fill: #272727; stroke: #272727"/>
      </g>
     </g>
     <g id="text_4">
      <text style="font-size: 8px; font-family: 'Arial', 'Helvetica', 'DejaVu Sans', sans-serif; text-anchor: middle" x="212.296984" y="226.683406" transform="rotate(-0 212.296984 226.683406)">150</text>
     </g>
    </g>
    <g id="xtick_5">
     <g id="line2d_5">
      <g>
       <use xlink:href="#m37717c38c9" x="266.492788" y="213.457156" style="fill: #272727; stroke: #272727"/>
      </g>
     </g>
     <g id="text_5">
      <text style="font-size: 8px; font-family: 'Arial', 'Helvetica', 'DejaVu Sans', sans-serif; text-anchor: middle" x="266.492788" y="226.683406" transform="rotate(-0 266.492788 226.683406)">200</text>
     </g>
    </g>
    <g id="xtick_6">
     <g id="line2d_6">
      <g>
       <use xlink:href="#m37717c38c9" x="320.688593" y="213.457156" style="fill: #272727; stroke: #272727"/>
      </g>
     </g>
     <g id="text_6">
      <text style="font-size: 8px; font-family: 'Arial', 'Helvetica', 'DejaVu Sans', sans-serif; text-anchor: middle" x="320.688593" y="226.683406" transform="rotate(-0 320.688593 226.683406)">250</text>
     </g>
    </g>
    <g id="text_7">
     <text style="font-size: 10px; font-family: 'Arial', 'Helvetica', 'DejaVu Sans', sans-serif; text-anchor: middle" x="183.03125" y="239.431219" transform="rotate(-0 183.03125 239.431219)">Features</text>
    </g>
   </g>
   <g id="matplotlib.axis_2">
    <g id="ytick_1">
     <g id="line2d_7">
      <defs>
       <path id="mbde068a983" d="M 0 0 
L -4 0 
" style="stroke: #272727"/>
      </defs>
      <g>
       <use xlink:href="#mbde068a983" x="43.53125" y="210.928849" style="fill: #272727; stroke: #272727"/>
      </g>
     </g>
     <g id="text_8">
      <text style="font-size: 8px; font-family: 'Arial', 'Helvetica', 'DejaVu Sans', sans-serif; text-anchor: end" x="36.03125" y="213.791974" transform="rotate(-0 36.03125 213.791974)">0.70</text>
     </g>
    </g>
    <g id="ytick_2">
     <g id="line2d_8">
      <g>
       <use xlink:href="#mbde068a983" x="43.53125" y="180.46731" style="fill: #272727; stroke: #272727"/>
      </g>
     </g>
     <g id="text_9">
      <text style="font-size: 8px; font-family: 'Arial', 'Helvetica', 'DejaVu Sans', sans-serif; text-anchor: end" x="36.03125" y="183.330435" transform="rotate(-0 36.03125 183.330435)">0.75</text>
     </g>
    </g>
    <g id="ytick_3">
     <g id="line2d_9">
      <g>
       <use xlink:href="#mbde068a983" x="43.53125" y="150.005772" style="fill: #272727; stroke: #272727"/>
      </g>
     </g>
     <g id="text_10">
      <text style="font-size: 8px; font-family: 'Arial', 'Helvetica', 'DejaVu Sans', sans-serif; text-anchor: end" x="36.03125" y="152.868897" transform="rotate(-0 36.03125 152.868897)">0.80</text>
     </g>
    </g>
    <g id="ytick_4">
     <g id="line2d_10">
      <g>
       <use xlink:href="#mbde068a983" x="43.53125" y="119.544233" style="fill: #272727; stroke: #272727"/>
      </g>
     </g>
     <g id="text_11">
      <text style="font-size: 8px; font-family: 'Arial', 'Helvetica', 'DejaVu Sans', sans-serif; text-anchor: end" x="36.03125" y="122.407358" transform="rotate(-0 36.03125 122.407358)">0.85</text>
     </g>
    </g>
    <g id="ytick_5">
     <g id="line2d_11">
      <g>
       <use xlink:href="#mbde068a983" x="43.53125" y="89.082695" style="fill: #272727; stroke: #272727"/>
      </g>
     </g>
     <g id="text_12">
      <text style="font-size: 8px; font-family: 'Arial', 'Helvetica', 'DejaVu Sans', sans-serif; text-anchor: end" x="36.03125" y="91.94582" transform="rotate(-0 36.03125 91.94582)">0.90</text>
     </g>
    </g>
    <g id="ytick_6">
     <g id="line2d_12">
      <g>
       <use xlink:href="#mbde068a983" x="43.53125" y="58.621156" style="fill: #272727; stroke: #272727"/>
      </g>
     </g>
     <g id="text_13">
      <text style="font-size: 8px; font-family: 'Arial', 'Helvetica', 'DejaVu Sans', sans-serif; text-anchor: end" x="36.03125" y="61.484281" transform="rotate(-0 36.03125 61.484281)">0.95</text>
     </g>
    </g>
    <g id="text_14">
     <text style="font-size: 10px; font-family: 'Arial', 'Helvetica', 'DejaVu Sans', sans-serif; text-anchor: middle" x="14.357813" y="121.981156" transform="rotate(-90 14.357813 121.981156)">Accuracy</text>
    </g>
   </g>
   <g id="line2d_13">
    <path d="M 56.213068 165.236541 
L 100.653628 93.651925 
L 119.080201 43.390387 
L 132.087194 75.375002 
L 283.835446 38.821156 
L 309.849432 43.390387 
" clip-path="url(#pac05e4138d)" style="fill: none; stroke: #272727; stroke-width: 1.45; stroke-linecap: square"/>
    <defs>
     <path id="me1cb142bdc" d="M 0 2.1 
C 0.556927 2.1 1.091118 1.878731 1.484924 1.484924 
C 1.878731 1.091118 2.1 0.556927 2.1 0 
C 2.1 -0.556927 1.878731 -1.091118 1.484924 -1.484924 
C 1.091118 -1.878731 0.556927 -2.1 0 -2.1 
C -0.556927 -2.1 -1.091118 -1.878731 -1.484924 -1.484924 
C -1.878731 -1.091118 -2.1 -0.556927 -2.1 0 
C -2.1 0.556927 -1.878731 1.091118 -1.484924 1.484924 
C -1.091118 1.878731 -0.556927 2.1 0 2.1 
z
" style="stroke: #ffffff; stroke-width: 0.75"/>
    </defs>
    <g clip-path="url(#pac05e4138d)">
     <use xlink:href="#me1cb142bdc" x="56.213068" y="165.236541" style="fill: #272727; stroke: #ffffff; stroke-width: 0.75"/>
     <use xlink:href="#me1cb142bdc" x="100.653628" y="93.651925" style="fill: #272727; stroke: #ffffff; stroke-width: 0.75"/>
     <use xlink:href="#me1cb142bdc" x="119.080201" y="43.390387" style="fill: #272727; stroke: #ffffff; stroke-width: 0.75"/>
     <use xlink:href="#me1cb142bdc" x="132.087194" y="75.375002" style="fill: #272727; stroke: #ffffff; stroke-width: 0.75"/>
     <use xlink:href="#me1cb142bdc" x="283.835446" y="38.821156" style="fill: #272727; stroke: #ffffff; stroke-width: 0.75"/>
     <use xlink:href="#me1cb142bdc" x="309.849432" y="43.390387" style="fill: #272727; stroke: #ffffff; stroke-width: 0.75"/>
    </g>
   </g>
   <g id="line2d_14">
    <path d="M 56.213068 165.236541 
L 100.653628 128.682695 
L 119.080201 46.436541 
L 132.087194 78.421156 
L 283.835446 43.390387 
L 309.849432 49.482695 
" clip-path="url(#pac05e4138d)" style="fill: none; stroke: #7c6ccf; stroke-width: 1.45; stroke-linecap: square"/>
    <defs>
     <path id="md7ec1cc483" d="M 0 2.1 
C 0.556927 2.1 1.091118 1.878731 1.484924 1.484924 
C 1.878731 1.091118 2.1 0.556927 2.1 0 
C 2.1 -0.556927 1.878731 -1.091118 1.484924 -1.484924 
C 1.091118 -1.878731 0.556927 -2.1 0 -2.1 
C -0.556927 -2.1 -1.091118 -1.878731 -1.484924 -1.484924 
C -1.878731 -1.091118 -2.1 -0.556927 -2.1 0 
C -2.1 0.556927 -1.878731 1.091118 -1.484924 1.484924 
C -1.091118 1.878731 -0.556927 2.1 0 2.1 
z
" style="stroke: #ffffff; stroke-width: 0.75"/>
    </defs>
    <g clip-path="url(#pac05e4138d)">
     <use xlink:href="#md7ec1cc483" x="56.213068" y="165.236541" style="fill: #7c6ccf; stroke: #ffffff; stroke-width: 0.75"/>
     <use xlink:href="#md7ec1cc483" x="100.653628" y="128.682695" style="fill: #7c6ccf; stroke: #ffffff; stroke-width: 0.75"/>
     <use xlink:href="#md7ec1cc483" x="119.080201" y="46.436541" style="fill: #7c6ccf; stroke: #ffffff; stroke-width: 0.75"/>
     <use xlink:href="#md7ec1cc483" x="132.087194" y="78.421156" style="fill: #7c6ccf; stroke: #ffffff; stroke-width: 0.75"/>
     <use xlink:href="#md7ec1cc483" x="283.835446" y="43.390387" style="fill: #7c6ccf; stroke: #ffffff; stroke-width: 0.75"/>
     <use xlink:href="#md7ec1cc483" x="309.849432" y="49.482695" style="fill: #7c6ccf; stroke: #ffffff; stroke-width: 0.75"/>
    </g>
   </g>
   <g id="line2d_15">
    <path d="M 56.213068 204.836541 
L 100.653628 168.282695 
L 119.080201 60.144233 
L 132.087194 105.836541 
L 283.835446 47.959618 
L 309.849432 51.005772 
" clip-path="url(#pac05e4138d)" style="fill: none; stroke: #33b5a5; stroke-width: 1.45; stroke-linecap: square"/>
    <defs>
     <path id="m0dd723ea93" d="M 0 2.1 
C 0.556927 2.1 1.091118 1.878731 1.484924 1.484924 
C 1.878731 1.091118 2.1 0.556927 2.1 0 
C 2.1 -0.556927 1.878731 -1.091118 1.484924 -1.484924 
C 1.091118 -1.878731 0.556927 -2.1 0 -2.1 
C -0.556927 -2.1 -1.091118 -1.878731 -1.484924 -1.484924 
C -1.878731 -1.091118 -2.1 -0.556927 -2.1 0 
C -2.1 0.556927 -1.878731 1.091118 -1.484924 1.484924 
C -1.091118 1.878731 -0.556927 2.1 0 2.1 
z
" style="stroke: #ffffff; stroke-width: 0.75"/>
    </defs>
    <g clip-path="url(#pac05e4138d)">
     <use xlink:href="#m0dd723ea93" x="56.213068" y="204.836541" style="fill: #33b5a5; stroke: #ffffff; stroke-width: 0.75"/>
     <use xlink:href="#m0dd723ea93" x="100.653628" y="168.282695" style="fill: #33b5a5; stroke: #ffffff; stroke-width: 0.75"/>
     <use xlink:href="#m0dd723ea93" x="119.080201" y="60.144233" style="fill: #33b5a5; stroke: #ffffff; stroke-width: 0.75"/>
     <use xlink:href="#m0dd723ea93" x="132.087194" y="105.836541" style="fill: #33b5a5; stroke: #ffffff; stroke-width: 0.75"/>
     <use xlink:href="#m0dd723ea93" x="283.835446" y="47.959618" style="fill: #33b5a5; stroke: #ffffff; stroke-width: 0.75"/>
     <use xlink:href="#m0dd723ea93" x="309.849432" y="51.005772" style="fill: #33b5a5; stroke: #ffffff; stroke-width: 0.75"/>
    </g>
   </g>
   <g id="line2d_16">
    <path d="M 56.213068 205.141156 
L 100.653628 157.011925 
L 119.080201 67.150387 
L 132.087194 106.445772 
L 283.835446 48.568849 
L 309.849432 51.919618 
" clip-path="url(#pac05e4138d)" style="fill: none; stroke: #b64342; stroke-width: 1.45; stroke-linecap: square"/>
    <defs>
     <path id="mc71ad2ad88" d="M 0 2.1 
C 0.556927 2.1 1.091118 1.878731 1.484924 1.484924 
C 1.878731 1.091118 2.1 0.556927 2.1 0 
C 2.1 -0.556927 1.878731 -1.091118 1.484924 -1.484924 
C 1.091118 -1.878731 0.556927 -2.1 0 -2.1 
C -0.556927 -2.1 -1.091118 -1.878731 -1.484924 -1.484924 
C -1.878731 -1.091118 -2.1 -0.556927 -2.1 0 
C -2.1 0.556927 -1.878731 1.091118 -1.484924 1.484924 
C -1.091118 1.878731 -0.556927 2.1 0 2.1 
z
" style="stroke: #ffffff; stroke-width: 0.75"/>
    </defs>
    <g clip-path="url(#pac05e4138d)">
     <use xlink:href="#mc71ad2ad88" x="56.213068" y="205.141156" style="fill: #b64342; stroke: #ffffff; stroke-width: 0.75"/>
     <use xlink:href="#mc71ad2ad88" x="100.653628" y="157.011925" style="fill: #b64342; stroke: #ffffff; stroke-width: 0.75"/>
     <use xlink:href="#mc71ad2ad88" x="119.080201" y="67.150387" style="fill: #b64342; stroke: #ffffff; stroke-width: 0.75"/>
     <use xlink:href="#mc71ad2ad88" x="132.087194" y="106.445772" style="fill: #b64342; stroke: #ffffff; stroke-width: 0.75"/>
     <use xlink:href="#mc71ad2ad88" x="283.835446" y="48.568849" style="fill: #b64342; stroke: #ffffff; stroke-width: 0.75"/>
     <use xlink:href="#mc71ad2ad88" x="309.849432" y="51.919618" style="fill: #b64342; stroke: #ffffff; stroke-width: 0.75"/>
    </g>
   </g>
   <g id="line2d_17"/>
   <g id="line2d_18"/>
   <g id="line2d_19"/>
   <g id="line2d_20"/>
   <g id="patch_3">
    <path d="M 43.53125 213.457156 
L 43.53125 30.505156 
" style="fill: none; stroke: #000000; stroke-width: 1.1; stroke-linejoin: miter; stroke-linecap: square"/>
   </g>
   <g id="patch_4">
    <path d="M 43.53125 213.457156 
L 322.53125 213.457156 
" style="fill: none; stroke: #000000; stroke-width: 1.1; stroke-linejoin: miter; stroke-linecap: square"/>
   </g>
   <g id="text_15">
    <text style="font-weight: 700; font-size: 13px; font-family: 'Arial', 'Helvetica', 'DejaVu Sans', sans-serif; text-anchor: middle" x="183.03125" y="16.505156" transform="rotate(-0 183.03125 16.505156)">Feature scaling</text>
   </g>
   <g id="legend_1">
    <g id="line2d_21">
     <path d="M 331.31125 104.179281 
L 337.71125 104.179281 
L 344.11125 104.179281 
" style="fill: none; stroke: #272727; stroke-width: 1.45; stroke-linecap: square"/>
     <g>
      <use xlink:href="#me1cb142bdc" x="337.71125" y="104.179281" style="fill: #272727; stroke: #ffffff; stroke-width: 0.75"/>
     </g>
    </g>
    <g id="text_16">
     <text style="font-size: 8px; font-family: 'Arial', 'Helvetica', 'DejaVu Sans', sans-serif; text-anchor: start" x="350.51125" y="106.979281" transform="rotate(-0 350.51125 106.979281)">TabICL</text>
    </g>
    <g id="line2d_22">
     <path d="M 331.31125 115.495531 
L 337.71125 115.495531 
L 344.11125 115.495531 
" style="fill: none; stroke: #7c6ccf; stroke-width: 1.45; stroke-linecap: square"/>
     <g>
      <use xlink:href="#md7ec1cc483" x="337.71125" y="115.495531" style="fill: #7c6ccf; stroke: #ffffff; stroke-width: 0.75"/>
     </g>
    </g>
    <g id="text_17">
     <text style="font-size: 8px; font-family: 'Arial', 'Helvetica', 'DejaVu Sans', sans-serif; text-anchor: start" x="350.51125" y="118.295531" transform="rotate(-0 350.51125 118.295531)">TabPFN</text>
    </g>
    <g id="line2d_23">
     <path d="M 331.31125 126.909281 
L 337.71125 126.909281 
L 344.11125 126.909281 
" style="fill: none; stroke: #33b5a5; stroke-width: 1.45; stroke-linecap: square"/>
     <g>
      <use xlink:href="#m0dd723ea93" x="337.71125" y="126.909281" style="fill: #33b5a5; stroke: #ffffff; stroke-width: 0.75"/>
     </g>
    </g>
    <g id="text_18">
     <text style="font-size: 8px; font-family: 'Arial', 'Helvetica', 'DejaVu Sans', sans-serif; text-anchor: start" x="350.51125" y="129.709281" transform="rotate(-0 350.51125 129.709281)">LightGBM</text>
    </g>
    <g id="line2d_24">
     <path d="M 331.31125 138.319281 
L 337.71125 138.319281 
L 344.11125 138.319281 
" style="fill: none; stroke: #b64342; stroke-width: 1.45; stroke-linecap: square"/>
     <g>
      <use xlink:href="#mc71ad2ad88" x="337.71125" y="138.319281" style="fill: #b64342; stroke: #ffffff; stroke-width: 0.75"/>
     </g>
    </g>
    <g id="text_19">
     <text style="font-size: 8px; font-family: 'Arial', 'Helvetica', 'DejaVu Sans', sans-serif; text-anchor: start" x="350.51125" y="141.119281" transform="rotate(-0 350.51125 141.119281)">XGBoost</text>
    </g>
   </g>
  </g>
 </g>
 <defs>
  <clipPath id="pac05e4138d">
   <rect x="43.53125" y="30.505156" width="279" height="182.952"/>
  </clipPath>
 </defs>
</svg>
