<?xml version="1.0" encoding="utf-8" standalone="no"?>
<!DOCTYPE svg PUBLIC "-//W3C//DTD SVG 1.1//EN"
  "http://www.w3.org/Graphics/SVG/1.1/DTD/svg11.dtd">
<svg xmlns:xlink="http://www.w3.org/1999/xlink" width="396.362812pt" height="248.618719pt" viewBox="0 0 396.362812 248.618719" xmlns="http://www.w3.org/2000/svg" version="1.1">
 <metadata>
  <rdf:RDF xmlns:dc="http://purl.org/dc/elements/1.1/" xmlns:cc="http://creativecommons.org/ns#" xmlns:rdf="http://www.w3.org/1999/02/22-rdf-syntax-ns#">
   <cc:Work>
    <dc:type rdf:resource="http://purl.org/dc/dcmitype/StillImage"/>
    <dc:date>2026-06-18T09:39:38.973747</dc:date>
    <dc:format>image/svg+xml</dc:format>
    <dc:creator>
     <cc:Agent>
      <dc:title>Matplotlib v3.10.0, https://matplotlib.org/</dc:title>
     </cc:Agent>
    </dc:creator>
   </cc:Work>
  </rdf:RDF>
 </metadata>
 <defs>
  <style type="text/css">*{stroke-linejoin: round; stroke-linecap: butt}</style>
 </defs>
 <g id="figure_1">
  <g id="patch_1">
   <path d="M -0 248.618719 
L 396.362812 248.618719 
L 396.362812 -0 
L -0 -0 
z
" style="fill: #ffffff"/>
  </g>
  <g id="axes_1">
   <g id="patch_2">
    <path d="M 43.414063 213.457156 
L 322.414062 213.457156 
L 322.414062 30.505156 
L 43.414063 30.505156 
z
" style="fill: #ffffff"/>
   </g>
   <g id="FillBetweenPolyCollection_1"/>
   <g id="FillBetweenPolyCollection_2"/>
   <g id="FillBetweenPolyCollection_3"/>
   <g id="FillBetweenPolyCollection_4"/>
   <g id="matplotlib.axis_1">
    <g id="xtick_1">
     <g id="line2d_1">
      <defs>
       <path id="m4f46058471" d="M 0 0 
L 0 4 
" style="stroke: #272727"/>
      </defs>
      <g>
       <use xlink:href="#m4f46058471" x="49.592384" y="213.457156" style="fill: #272727; stroke: #272727"/>
      </g>
     </g>
     <g id="text_1">
      <text style="font-size: 8px; font-family: 'Arial', 'Helvetica', 'DejaVu Sans', sans-serif; text-anchor: middle" x="49.592384" y="226.683406" transform="rotate(-0 49.592384 226.683406)">0</text>
     </g>
    </g>
    <g id="xtick_2">
     <g id="line2d_2">
      <g>
       <use xlink:href="#m4f46058471" x="103.788188" y="213.457156" style="fill: #272727; stroke: #272727"/>
      </g>
     </g>
     <g id="text_2">
      <text style="font-size: 8px; font-family: 'Arial', 'Helvetica', 'DejaVu Sans', sans-serif; text-anchor: middle" x="103.788188" y="226.683406" transform="rotate(-0 103.788188 226.683406)">50</text>
     </g>
    </g>
    <g id="xtick_3">
     <g id="line2d_3">
      <g>
       <use xlink:href="#m4f46058471" x="157.983993" y="213.457156" style="fill: #272727; stroke: #272727"/>
      </g>
     </g>
     <g id="text_3">
      <text style="font-size: 8px; font-family: 'Arial', 'Helvetica', 'DejaVu Sans', sans-serif; text-anchor: middle" x="157.983993" y="226.683406" transform="rotate(-0 157.983993 226.683406)">100</text>
     </g>
    </g>
    <g id="xtick_4">
     <g id="line2d_4">
      <g>
       <use xlink:href="#m4f46058471" x="212.179797" y="213.457156" style="fill: #272727; stroke: #272727"/>
      </g>
     </g>
     <g id="text_4">
      <text style="font-size: 8px; font-family: 'Arial', 'Helvetica', 'DejaVu Sans', sans-serif; text-anchor: middle" x="212.179797" y="226.683406" transform="rotate(-0 212.179797 226.683406)">150</text>
     </g>
    </g>
    <g id="xtick_5">
     <g id="line2d_5">
      <g>
       <use xlink:href="#m4f46058471" x="266.375601" y="213.457156" style="fill: #272727; stroke: #272727"/>
      </g>
     </g>
     <g id="text_5">
      <text style="font-size: 8px; font-family: 'Arial', 'Helvetica', 'DejaVu Sans', sans-serif; text-anchor: middle" x="266.375601" y="226.683406" transform="rotate(-0 266.375601 226.683406)">200</text>
     </g>
    </g>
    <g id="xtick_6">
     <g id="line2d_6">
      <g>
       <use xlink:href="#m4f46058471" x="320.571405" y="213.457156" style="fill: #272727; stroke: #272727"/>
      </g>
     </g>
     <g id="text_6">
      <text style="font-size: 8px; font-family: 'Arial', 'Helvetica', 'DejaVu Sans', sans-serif; text-anchor: middle" x="320.571405" y="226.683406" transform="rotate(-0 320.571405 226.683406)">250</text>
     </g>
    </g>
    <g id="text_7">
     <text style="font-size: 10px; font-family: 'Arial', 'Helvetica', 'DejaVu Sans', sans-serif; text-anchor: middle" x="182.914062" y="239.431219" transform="rotate(-0 182.914062 239.431219)">Features</text>
    </g>
   </g>
   <g id="matplotlib.axis_2">
    <g id="ytick_1">
     <g id="line2d_7">
      <defs>
       <path id="m280dc58fcc" d="M 0 0 
L -4 0 
" style="stroke: #272727"/>
      </defs>
      <g>
       <use xlink:href="#m280dc58fcc" x="43.414063" y="210.138627" style="fill: #272727; stroke: #272727"/>
      </g>
     </g>
     <g id="text_8">
      <text style="font-size: 8px; font-family: 'Arial', 'Helvetica', 'DejaVu Sans', sans-serif; text-anchor: end" x="35.914063" y="213.001752" transform="rotate(-0 35.914063 213.001752)">0.70</text>
     </g>
    </g>
    <g id="ytick_2">
     <g id="line2d_8">
      <g>
       <use xlink:href="#m280dc58fcc" x="43.414063" y="179.816783" style="fill: #272727; stroke: #272727"/>
      </g>
     </g>
     <g id="text_9">
      <text style="font-size: 8px; font-family: 'Arial', 'Helvetica', 'DejaVu Sans', sans-serif; text-anchor: end" x="35.914063" y="182.679908" transform="rotate(-0 35.914063 182.679908)">0.75</text>
     </g>
    </g>
    <g id="ytick_3">
     <g id="line2d_9">
      <g>
       <use xlink:href="#m280dc58fcc" x="43.414063" y="149.494939" style="fill: #272727; stroke: #272727"/>
      </g>
     </g>
     <g id="text_10">
      <text style="font-size: 8px; font-family: 'Arial', 'Helvetica', 'DejaVu Sans', sans-serif; text-anchor: end" x="35.914063" y="152.358064" transform="rotate(-0 35.914063 152.358064)">0.80</text>
     </g>
    </g>
    <g id="ytick_4">
     <g id="line2d_10">
      <g>
       <use xlink:href="#m280dc58fcc" x="43.414063" y="119.173095" style="fill: #272727; stroke: #272727"/>
      </g>
     </g>
     <g id="text_11">
      <text style="font-size: 8px; font-family: 'Arial', 'Helvetica', 'DejaVu Sans', sans-serif; text-anchor: end" x="35.914063" y="122.03622" transform="rotate(-0 35.914063 122.03622)">0.85</text>
     </g>
    </g>
    <g id="ytick_5">
     <g id="line2d_11">
      <g>
       <use xlink:href="#m280dc58fcc" x="43.414063" y="88.851251" style="fill: #272727; stroke: #272727"/>
      </g>
     </g>
     <g id="text_12">
      <text style="font-size: 8px; font-family: 'Arial', 'Helvetica', 'DejaVu Sans', sans-serif; text-anchor: end" x="35.914063" y="91.714376" transform="rotate(-0 35.914063 91.714376)">0.90</text>
     </g>
    </g>
    <g id="ytick_6">
     <g id="line2d_12">
      <g>
       <use xlink:href="#m280dc58fcc" x="43.414063" y="58.529407" style="fill: #272727; stroke: #272727"/>
      </g>
     </g>
     <g id="text_13">
      <text style="font-size: 8px; font-family: 'Arial', 'Helvetica', 'DejaVu Sans', sans-serif; text-anchor: end" x="35.914063" y="61.392532" transform="rotate(-0 35.914063 61.392532)">0.95</text>
     </g>
    </g>
    <g id="text_14">
     <text style="font-size: 10px; font-family: 'Arial', 'Helvetica', 'DejaVu Sans', sans-serif; text-anchor: middle" x="14.357813" y="121.981156" transform="rotate(-90 14.357813 121.981156)">Macro F1</text>
    </g>
   </g>
   <g id="line2d_13">
    <path d="M 56.095881 168.871239 
L 100.53644 94.095612 
L 118.963014 43.358948 
L 131.970007 75.370294 
L 283.718258 38.821156 
L 309.732244 43.400013 
" clip-path="url(#p197ba04784)" style="fill: none; stroke: #272727; stroke-width: 1.45; stroke-linecap: square"/>
    <defs>
     <path id="m736cc965aa" d="M 0 2.1 
C 0.556927 2.1 1.091118 1.878731 1.484924 1.484924 
C 1.878731 1.091118 2.1 0.556927 2.1 0 
C 2.1 -0.556927 1.878731 -1.091118 1.484924 -1.484924 
C 1.091118 -1.878731 0.556927 -2.1 0 -2.1 
C -0.556927 -2.1 -1.091118 -1.878731 -1.484924 -1.484924 
C -1.878731 -1.091118 -2.1 -0.556927 -2.1 0 
C -2.1 0.556927 -1.878731 1.091118 -1.484924 1.484924 
C -1.091118 1.878731 -0.556927 2.1 0 2.1 
z
" style="stroke: #ffffff; stroke-width: 0.75"/>
    </defs>
    <g clip-path="url(#p197ba04784)">
     <use xlink:href="#m736cc965aa" x="56.095881" y="168.871239" style="fill: #272727; stroke: #ffffff; stroke-width: 0.75"/>
     <use xlink:href="#m736cc965aa" x="100.53644" y="94.095612" style="fill: #272727; stroke: #ffffff; stroke-width: 0.75"/>
     <use xlink:href="#m736cc965aa" x="118.963014" y="43.358948" style="fill: #272727; stroke: #ffffff; stroke-width: 0.75"/>
     <use xlink:href="#m736cc965aa" x="131.970007" y="75.370294" style="fill: #272727; stroke: #ffffff; stroke-width: 0.75"/>
     <use xlink:href="#m736cc965aa" x="283.718258" y="38.821156" style="fill: #272727; stroke: #ffffff; stroke-width: 0.75"/>
     <use xlink:href="#m736cc965aa" x="309.732244" y="43.400013" style="fill: #272727; stroke: #ffffff; stroke-width: 0.75"/>
    </g>
   </g>
   <g id="line2d_14">
    <path d="M 56.095881 168.428072 
L 100.53644 130.563755 
L 118.963014 46.458316 
L 131.970007 78.607288 
L 283.718258 43.412829 
L 309.732244 49.472533 
" clip-path="url(#p197ba04784)" style="fill: none; stroke: #7c6ccf; stroke-width: 1.45; stroke-linecap: square"/>
    <defs>
     <path id="m8bef777869" d="M 0 2.1 
C 0.556927 2.1 1.091118 1.878731 1.484924 1.484924 
C 1.878731 1.091118 2.1 0.556927 2.1 0 
C 2.1 -0.556927 1.878731 -1.091118 1.484924 -1.484924 
C 1.091118 -1.878731 0.556927 -2.1 0 -2.1 
C -0.556927 -2.1 -1.091118 -1.878731 -1.484924 -1.484924 
C -1.878731 -1.091118 -2.1 -0.556927 -2.1 0 
C -2.1 0.556927 -1.878731 1.091118 -1.484924 1.484924 
C -1.091118 1.878731 -0.556927 2.1 0 2.1 
z
" style="stroke: #ffffff; stroke-width: 0.75"/>
    </defs>
    <g clip-path="url(#p197ba04784)">
     <use xlink:href="#m8bef777869" x="56.095881" y="168.428072" style="fill: #7c6ccf; stroke: #ffffff; stroke-width: 0.75"/>
     <use xlink:href="#m8bef777869" x="100.53644" y="130.563755" style="fill: #7c6ccf; stroke: #ffffff; stroke-width: 0.75"/>
     <use xlink:href="#m8bef777869" x="118.963014" y="46.458316" style="fill: #7c6ccf; stroke: #ffffff; stroke-width: 0.75"/>
     <use xlink:href="#m8bef777869" x="131.970007" y="78.607288" style="fill: #7c6ccf; stroke: #ffffff; stroke-width: 0.75"/>
     <use xlink:href="#m8bef777869" x="283.718258" y="43.412829" style="fill: #7c6ccf; stroke: #ffffff; stroke-width: 0.75"/>
     <use xlink:href="#m8bef777869" x="309.732244" y="49.472533" style="fill: #7c6ccf; stroke: #ffffff; stroke-width: 0.75"/>
    </g>
   </g>
   <g id="line2d_15">
    <path d="M 56.095881 203.603746 
L 100.53644 164.579731 
L 118.963014 60.348425 
L 131.970007 105.966593 
L 283.718258 48.010252 
L 309.732244 50.836266 
" clip-path="url(#p197ba04784)" style="fill: none; stroke: #33b5a5; stroke-width: 1.45; stroke-linecap: square"/>
    <defs>
     <path id="m0cdc0c25a4" d="M 0 2.1 
C 0.556927 2.1 1.091118 1.878731 1.484924 1.484924 
C 1.878731 1.091118 2.1 0.556927 2.1 0 
C 2.1 -0.556927 1.878731 -1.091118 1.484924 -1.484924 
C 1.091118 -1.878731 0.556927 -2.1 0 -2.1 
C -0.556927 -2.1 -1.091118 -1.878731 -1.484924 -1.484924 
C -1.878731 -1.091118 -2.1 -0.556927 -2.1 0 
C -2.1 0.556927 -1.878731 1.091118 -1.484924 1.484924 
C -1.091118 1.878731 -0.556927 2.1 0 2.1 
z
" style="stroke: #ffffff; stroke-width: 0.75"/>
    </defs>
    <g clip-path="url(#p197ba04784)">
     <use xlink:href="#m0cdc0c25a4" x="56.095881" y="203.603746" style="fill: #33b5a5; stroke: #ffffff; stroke-width: 0.75"/>
     <use xlink:href="#m0cdc0c25a4" x="100.53644" y="164.579731" style="fill: #33b5a5; stroke: #ffffff; stroke-width: 0.75"/>
     <use xlink:href="#m0cdc0c25a4" x="118.963014" y="60.348425" style="fill: #33b5a5; stroke: #ffffff; stroke-width: 0.75"/>
     <use xlink:href="#m0cdc0c25a4" x="131.970007" y="105.966593" style="fill: #33b5a5; stroke: #ffffff; stroke-width: 0.75"/>
     <use xlink:href="#m0cdc0c25a4" x="283.718258" y="48.010252" style="fill: #33b5a5; stroke: #ffffff; stroke-width: 0.75"/>
     <use xlink:href="#m0cdc0c25a4" x="309.732244" y="50.836266" style="fill: #33b5a5; stroke: #ffffff; stroke-width: 0.75"/>
    </g>
   </g>
   <g id="line2d_16">
    <path d="M 56.095881 205.141156 
L 100.53644 154.821444 
L 118.963014 67.45035 
L 131.970007 106.487054 
L 283.718258 48.481555 
L 309.732244 51.746443 
" clip-path="url(#p197ba04784)" style="fill: none; stroke: #b64342; stroke-width: 1.45; stroke-linecap: square"/>
    <defs>
     <path id="m6f59289fec" d="M 0 2.1 
C 0.556927 2.1 1.091118 1.878731 1.484924 1.484924 
C 1.878731 1.091118 2.1 0.556927 2.1 0 
C 2.1 -0.556927 1.878731 -1.091118 1.484924 -1.484924 
C 1.091118 -1.878731 0.556927 -2.1 0 -2.1 
C -0.556927 -2.1 -1.091118 -1.878731 -1.484924 -1.484924 
C -1.878731 -1.091118 -2.1 -0.556927 -2.1 0 
C -2.1 0.556927 -1.878731 1.091118 -1.484924 1.484924 
C -1.091118 1.878731 -0.556927 2.1 0 2.1 
z
" style="stroke: #ffffff; stroke-width: 0.75"/>
    </defs>
    <g clip-path="url(#p197ba04784)">
     <use xlink:href="#m6f59289fec" x="56.095881" y="205.141156" style="fill: #b64342; stroke: #ffffff; stroke-width: 0.75"/>
     <use xlink:href="#m6f59289fec" x="100.53644" y="154.821444" style="fill: #b64342; stroke: #ffffff; stroke-width: 0.75"/>
     <use xlink:href="#m6f59289fec" x="118.963014" y="67.45035" style="fill: #b64342; stroke: #ffffff; stroke-width: 0.75"/>
     <use xlink:href="#m6f59289fec" x="131.970007" y="106.487054" style="fill: #b64342; stroke: #ffffff; stroke-width: 0.75"/>
     <use xlink:href="#m6f59289fec" x="283.718258" y="48.481555" style="fill: #b64342; stroke: #ffffff; stroke-width: 0.75"/>
     <use xlink:href="#m6f59289fec" x="309.732244" y="51.746443" style="fill: #b64342; stroke: #ffffff; stroke-width: 0.75"/>
    </g>
   </g>
   <g id="line2d_17"/>
   <g id="line2d_18"/>
   <g id="line2d_19"/>
   <g id="line2d_20"/>
   <g id="patch_3">
    <path d="M 43.414063 213.457156 
L 43.414063 30.505156 
" style="fill: none; stroke: #000000; stroke-width: 1.1; stroke-linejoin: miter; stroke-linecap: square"/>
   </g>
   <g id="patch_4">
    <path d="M 43.414063 213.457156 
L 322.414063 213.457156 
" style="fill: none; stroke: #000000; stroke-width: 1.1; stroke-linejoin: miter; stroke-linecap: square"/>
   </g>
   <g id="text_15">
    <text style="font-weight: 700; font-size: 13px; font-family: 'Arial', 'Helvetica', 'DejaVu Sans', sans-serif; text-anchor: middle" x="182.914062" y="16.505156" transform="rotate(-0 182.914062 16.505156)">Feature scaling</text>
   </g>
   <g id="legend_1">
    <g id="line2d_21">
     <path d="M 331.194062 104.179281 
L 337.594062 104.179281 
L 343.994062 104.179281 
" style="fill: none; stroke: #272727; stroke-width: 1.45; stroke-linecap: square"/>
     <g>
      <use xlink:href="#m736cc965aa" x="337.594062" y="104.179281" style="fill: #272727; stroke: #ffffff; stroke-width: 0.75"/>
     </g>
    </g>
    <g id="text_16">
     <text style="font-size: 8px; font-family: 'Arial', 'Helvetica', 'DejaVu Sans', sans-serif; text-anchor: start" x="350.394062" y="106.979281" transform="rotate(-0 350.394062 106.979281)">TabICL</text>
    </g>
    <g id="line2d_22">
     <path d="M 331.194062 115.495531 
L 337.594062 115.495531 
L 343.994062 115.495531 
" style="fill: none; stroke: #7c6ccf; stroke-width: 1.45; stroke-linecap: square"/>
     <g>
      <use xlink:href="#m8bef777869" x="337.594062" y="115.495531" style="fill: #7c6ccf; stroke: #ffffff; stroke-width: 0.75"/>
     </g>
    </g>
    <g id="text_17">
     <text style="font-size: 8px; font-family: 'Arial', 'Helvetica', 'DejaVu Sans', sans-serif; text-anchor: start" x="350.394062" y="118.295531" transform="rotate(-0 350.394062 118.295531)">TabPFN</text>
    </g>
    <g id="line2d_23">
     <path d="M 331.194062 126.909281 
L 337.594062 126.909281 
L 343.994062 126.909281 
" style="fill: none; stroke: #33b5a5; stroke-width: 1.45; stroke-linecap: square"/>
     <g>
      <use xlink:href="#m0cdc0c25a4" x="337.594062" y="126.909281" style="fill: #33b5a5; stroke: #ffffff; stroke-width: 0.75"/>
     </g>
    </g>
    <g id="text_18">
     <text style="font-size: 8px; font-family: 'Arial', 'Helvetica', 'DejaVu Sans', sans-serif; text-anchor: start" x="350.394062" y="129.709281" transform="rotate(-0 350.394062 129.709281)">LightGBM</text>
    </g>
    <g id="line2d_24">
     <path d="M 331.194062 138.319281 
L 337.594062 138.319281 
L 343.994062 138.319281 
" style="fill: none; stroke: #b64342; stroke-width: 1.45; stroke-linecap: square"/>
     <g>
      <use xlink:href="#m6f59289fec" x="337.594062" y="138.319281" style="fill: #b64342; stroke: #ffffff; stroke-width: 0.75"/>
     </g>
    </g>
    <g id="text_19">
     <text style="font-size: 8px; font-family: 'Arial', 'Helvetica', 'DejaVu Sans', sans-serif; text-anchor: start" x="350.394062" y="141.119281" transform="rotate(-0 350.394062 141.119281)">XGBoost</text>
    </g>
   </g>
  </g>
 </g>
 <defs>
  <clipPath id="p197ba04784">
   <rect x="43.414063" y="30.505156" width="279" height="182.952"/>
  </clipPath>
 </defs>
</svg>
