<?xml version="1.0" encoding="utf-8" standalone="no"?>
<!DOCTYPE svg PUBLIC "-//W3C//DTD SVG 1.1//EN"
  "http://www.w3.org/Graphics/SVG/1.1/DTD/svg11.dtd">
<svg xmlns:xlink="http://www.w3.org/1999/xlink" width="715.331475pt" height="500.23425pt" viewBox="0 0 715.331475 500.23425" xmlns="http://www.w3.org/2000/svg" version="1.1">
 <metadata>
  <rdf:RDF xmlns:dc="http://purl.org/dc/elements/1.1/" xmlns:cc="http://creativecommons.org/ns#" xmlns:rdf="http://www.w3.org/1999/02/22-rdf-syntax-ns#">
   <cc:Work>
    <dc:type rdf:resource="http://purl.org/dc/dcmitype/StillImage"/>
    <dc:date>2026-06-18T09:39:39.429461</dc:date>
    <dc:format>image/svg+xml</dc:format>
    <dc:creator>
     <cc:Agent>
      <dc:title>Matplotlib v3.10.0, https://matplotlib.org/</dc:title>
     </cc:Agent>
    </dc:creator>
   </cc:Work>
  </rdf:RDF>
 </metadata>
 <defs>
  <style type="text/css">*{stroke-linejoin: round; stroke-linecap: butt}</style>
 </defs>
 <g id="figure_1">
  <g id="patch_1">
   <path d="M 0 500.23425 
L 715.331475 500.23425 
L 715.331475 -0 
L 0 -0 
z
" style="fill: #ffffff"/>
  </g>
  <g id="axes_1">
   <g id="patch_2">
    <path d="M 43.653125 247.104 
L 635.133125 247.104 
L 635.133125 75.744 
L 43.653125 75.744 
z
" style="fill: #ffffff"/>
   </g>
   <g id="patch_3">
    <path d="M 68.298125 247.104 
L 80.620625 247.104 
L 80.620625 237.522753 
L 68.298125 237.522753 
z
" clip-path="url(#p22afa30115)" style="fill: #272727"/>
   </g>
   <g id="patch_4">
    <path d="M 166.878125 247.104 
L 179.200625 247.104 
L 179.200625 217.821175 
L 166.878125 217.821175 
z
" clip-path="url(#p22afa30115)" style="fill: #272727"/>
   </g>
   <g id="patch_5">
    <path d="M 265.458125 247.104 
L 277.780625 247.104 
L 277.780625 208.971746 
L 265.458125 208.971746 
z
" clip-path="url(#p22afa30115)" style="fill: #272727"/>
   </g>
   <g id="patch_6">
    <path d="M 364.038125 247.104 
L 376.360625 247.104 
L 376.360625 202.176479 
L 364.038125 202.176479 
z
" clip-path="url(#p22afa30115)" style="fill: #272727"/>
   </g>
   <g id="patch_7">
    <path d="M 462.618125 247.104 
L 474.940625 247.104 
L 474.940625 127.592227 
L 462.618125 127.592227 
z
" clip-path="url(#p22afa30115)" style="fill: #272727"/>
   </g>
   <g id="patch_8">
    <path d="M 561.198125 247.104 
L 573.520625 247.104 
L 573.520625 122.961547 
L 561.198125 122.961547 
z
" clip-path="url(#p22afa30115)" style="fill: #272727"/>
   </g>
   <g id="patch_9">
    <path d="M 80.620625 247.104 
L 92.943125 247.104 
L 92.943125 241.453212 
L 80.620625 241.453212 
z
" clip-path="url(#p22afa30115)" style="fill: #8478c3"/>
   </g>
   <g id="patch_10">
    <path d="M 179.200625 247.104 
L 191.523125 247.104 
L 191.523125 229.99702 
L 179.200625 229.99702 
z
" clip-path="url(#p22afa30115)" style="fill: #8478c3"/>
   </g>
   <g id="patch_11">
    <path d="M 277.780625 247.104 
L 290.103125 247.104 
L 290.103125 226.206357 
L 277.780625 226.206357 
z
" clip-path="url(#p22afa30115)" style="fill: #8478c3"/>
   </g>
   <g id="patch_12">
    <path d="M 376.360625 247.104 
L 388.683125 247.104 
L 388.683125 222.209792 
L 376.360625 222.209792 
z
" clip-path="url(#p22afa30115)" style="fill: #8478c3"/>
   </g>
   <g id="patch_13">
    <path d="M 474.940625 247.104 
L 487.263125 247.104 
L 487.263125 229.87742 
L 474.940625 229.87742 
z
" clip-path="url(#p22afa30115)" style="fill: #8478c3"/>
   </g>
   <g id="patch_14">
    <path d="M 573.520625 247.104 
L 585.843125 247.104 
L 585.843125 228.898832 
L 573.520625 228.898832 
z
" clip-path="url(#p22afa30115)" style="fill: #8478c3"/>
   </g>
   <g id="patch_15">
    <path d="M 92.943125 247.104 
L 105.265625 247.104 
L 105.265625 245.578998 
L 92.943125 245.578998 
z
" clip-path="url(#p22afa30115)" style="fill: #43a599"/>
   </g>
   <g id="patch_16">
    <path d="M 191.523125 247.104 
L 203.845625 247.104 
L 203.845625 245.490248 
L 191.523125 245.490248 
z
" clip-path="url(#p22afa30115)" style="fill: #43a599"/>
   </g>
   <g id="patch_17">
    <path d="M 290.103125 247.104 
L 302.425625 247.104 
L 302.425625 245.593914 
L 290.103125 245.593914 
z
" clip-path="url(#p22afa30115)" style="fill: #43a599"/>
   </g>
   <g id="patch_18">
    <path d="M 388.683125 247.104 
L 401.005625 247.104 
L 401.005625 245.546096 
L 388.683125 245.546096 
z
" clip-path="url(#p22afa30115)" style="fill: #43a599"/>
   </g>
   <g id="patch_19">
    <path d="M 487.263125 247.104 
L 499.585625 247.104 
L 499.585625 245.469941 
L 487.263125 245.469941 
z
" clip-path="url(#p22afa30115)" style="fill: #43a599"/>
   </g>
   <g id="patch_20">
    <path d="M 585.843125 247.104 
L 598.165625 247.104 
L 598.165625 245.516232 
L 585.843125 245.516232 
z
" clip-path="url(#p22afa30115)" style="fill: #43a599"/>
   </g>
   <g id="patch_21">
    <path d="M 105.265625 247.104 
L 117.588125 247.104 
L 117.588125 245.628819 
L 105.265625 245.628819 
z
" clip-path="url(#p22afa30115)" style="fill: #a85150"/>
   </g>
   <g id="patch_22">
    <path d="M 203.845625 247.104 
L 216.168125 247.104 
L 216.168125 245.554604 
L 203.845625 245.554604 
z
" clip-path="url(#p22afa30115)" style="fill: #a85150"/>
   </g>
   <g id="patch_23">
    <path d="M 302.425625 247.104 
L 314.748125 247.104 
L 314.748125 245.522847 
L 302.425625 245.522847 
z
" clip-path="url(#p22afa30115)" style="fill: #a85150"/>
   </g>
   <g id="patch_24">
    <path d="M 401.005625 247.104 
L 413.328125 247.104 
L 413.328125 245.479705 
L 401.005625 245.479705 
z
" clip-path="url(#p22afa30115)" style="fill: #a85150"/>
   </g>
   <g id="patch_25">
    <path d="M 499.585625 247.104 
L 511.908125 247.104 
L 511.908125 245.4649 
L 499.585625 245.4649 
z
" clip-path="url(#p22afa30115)" style="fill: #a85150"/>
   </g>
   <g id="patch_26">
    <path d="M 598.165625 247.104 
L 610.488125 247.104 
L 610.488125 245.606604 
L 598.165625 245.606604 
z
" clip-path="url(#p22afa30115)" style="fill: #a85150"/>
   </g>
   <g id="patch_27">
    <path d="M 92.943125 247.104 
L 92.943125 247.104 
L 92.943125 247.104 
L 92.943125 247.104 
z
" clip-path="url(#p22afa30115)" style="fill: #272727"/>
   </g>
   <g id="patch_28">
    <path d="M 92.943125 247.104 
L 92.943125 247.104 
L 92.943125 247.104 
L 92.943125 247.104 
z
" clip-path="url(#p22afa30115)" style="fill: #8478c3"/>
   </g>
   <g id="patch_29">
    <path d="M 92.943125 247.104 
L 92.943125 247.104 
L 92.943125 247.104 
L 92.943125 247.104 
z
" clip-path="url(#p22afa30115)" style="fill: #43a599"/>
   </g>
   <g id="patch_30">
    <path d="M 92.943125 247.104 
L 92.943125 247.104 
L 92.943125 247.104 
L 92.943125 247.104 
z
" clip-path="url(#p22afa30115)" style="fill: #a85150"/>
   </g>
   <g id="matplotlib.axis_1">
    <g id="xtick_1">
     <g id="line2d_1">
      <defs>
       <path id="m37ad5a02de" d="M 0 0 
L 0 4 
" style="stroke: #272727"/>
      </defs>
      <g>
       <use xlink:href="#m37ad5a02de" x="92.943125" y="247.104" style="fill: #272727; stroke: #272727"/>
      </g>
     </g>
    </g>
    <g id="xtick_2">
     <g id="line2d_2">
      <g>
       <use xlink:href="#m37ad5a02de" x="191.523125" y="247.104" style="fill: #272727; stroke: #272727"/>
      </g>
     </g>
    </g>
    <g id="xtick_3">
     <g id="line2d_3">
      <g>
       <use xlink:href="#m37ad5a02de" x="290.103125" y="247.104" style="fill: #272727; stroke: #272727"/>
      </g>
     </g>
    </g>
    <g id="xtick_4">
     <g id="line2d_4">
      <g>
       <use xlink:href="#m37ad5a02de" x="388.683125" y="247.104" style="fill: #272727; stroke: #272727"/>
      </g>
     </g>
    </g>
    <g id="xtick_5">
     <g id="line2d_5">
      <g>
       <use xlink:href="#m37ad5a02de" x="487.263125" y="247.104" style="fill: #272727; stroke: #272727"/>
      </g>
     </g>
    </g>
    <g id="xtick_6">
     <g id="line2d_6">
      <g>
       <use xlink:href="#m37ad5a02de" x="585.843125" y="247.104" style="fill: #272727; stroke: #272727"/>
      </g>
     </g>
    </g>
   </g>
   <g id="matplotlib.axis_2">
    <g id="ytick_1">
     <g id="line2d_7">
      <defs>
       <path id="m3df457e5c8" d="M 0 0 
L -4 0 
" style="stroke: #272727"/>
      </defs>
      <g>
       <use xlink:href="#m3df457e5c8" x="43.653125" y="247.104" style="fill: #272727; stroke: #272727"/>
      </g>
     </g>
     <g id="text_1">
      <text style="font-size: 8px; font-family: 'Arial', 'Helvetica', 'DejaVu Sans', sans-serif; text-anchor: end" x="36.153125" y="249.967125" transform="rotate(-0 36.153125 249.967125)">0.0</text>
     </g>
    </g>
    <g id="ytick_2">
     <g id="line2d_8">
      <g>
       <use xlink:href="#m3df457e5c8" x="43.653125" y="226.26071" style="fill: #272727; stroke: #272727"/>
      </g>
     </g>
     <g id="text_2">
      <text style="font-size: 8px; font-family: 'Arial', 'Helvetica', 'DejaVu Sans', sans-serif; text-anchor: end" x="36.153125" y="229.123835" transform="rotate(-0 36.153125 229.123835)">2.5</text>
     </g>
    </g>
    <g id="ytick_3">
     <g id="line2d_9">
      <g>
       <use xlink:href="#m3df457e5c8" x="43.653125" y="205.417421" style="fill: #272727; stroke: #272727"/>
      </g>
     </g>
     <g id="text_3">
      <text style="font-size: 8px; font-family: 'Arial', 'Helvetica', 'DejaVu Sans', sans-serif; text-anchor: end" x="36.153125" y="208.280546" transform="rotate(-0 36.153125 208.280546)">5.0</text>
     </g>
    </g>
    <g id="ytick_4">
     <g id="line2d_10">
      <g>
       <use xlink:href="#m3df457e5c8" x="43.653125" y="184.574131" style="fill: #272727; stroke: #272727"/>
      </g>
     </g>
     <g id="text_4">
      <text style="font-size: 8px; font-family: 'Arial', 'Helvetica', 'DejaVu Sans', sans-serif; text-anchor: end" x="36.153125" y="187.437256" transform="rotate(-0 36.153125 187.437256)">7.5</text>
     </g>
    </g>
    <g id="ytick_5">
     <g id="line2d_11">
      <g>
       <use xlink:href="#m3df457e5c8" x="43.653125" y="163.730842" style="fill: #272727; stroke: #272727"/>
      </g>
     </g>
     <g id="text_5">
      <text style="font-size: 8px; font-family: 'Arial', 'Helvetica', 'DejaVu Sans', sans-serif; text-anchor: end" x="36.153125" y="166.593967" transform="rotate(-0 36.153125 166.593967)">10.0</text>
     </g>
    </g>
    <g id="ytick_6">
     <g id="line2d_12">
      <g>
       <use xlink:href="#m3df457e5c8" x="43.653125" y="142.887552" style="fill: #272727; stroke: #272727"/>
      </g>
     </g>
     <g id="text_6">
      <text style="font-size: 8px; font-family: 'Arial', 'Helvetica', 'DejaVu Sans', sans-serif; text-anchor: end" x="36.153125" y="145.750677" transform="rotate(-0 36.153125 145.750677)">12.5</text>
     </g>
    </g>
    <g id="ytick_7">
     <g id="line2d_13">
      <g>
       <use xlink:href="#m3df457e5c8" x="43.653125" y="122.044262" style="fill: #272727; stroke: #272727"/>
      </g>
     </g>
     <g id="text_7">
      <text style="font-size: 8px; font-family: 'Arial', 'Helvetica', 'DejaVu Sans', sans-serif; text-anchor: end" x="36.153125" y="124.907387" transform="rotate(-0 36.153125 124.907387)">15.0</text>
     </g>
    </g>
    <g id="ytick_8">
     <g id="line2d_14">
      <g>
       <use xlink:href="#m3df457e5c8" x="43.653125" y="101.200973" style="fill: #272727; stroke: #272727"/>
      </g>
     </g>
     <g id="text_8">
      <text style="font-size: 8px; font-family: 'Arial', 'Helvetica', 'DejaVu Sans', sans-serif; text-anchor: end" x="36.153125" y="104.064098" transform="rotate(-0 36.153125 104.064098)">17.5</text>
     </g>
    </g>
    <g id="ytick_9">
     <g id="line2d_15">
      <g>
       <use xlink:href="#m3df457e5c8" x="43.653125" y="80.357683" style="fill: #272727; stroke: #272727"/>
      </g>
     </g>
     <g id="text_9">
      <text style="font-size: 8px; font-family: 'Arial', 'Helvetica', 'DejaVu Sans', sans-serif; text-anchor: end" x="36.153125" y="83.220808" transform="rotate(-0 36.153125 83.220808)">20.0</text>
     </g>
    </g>
    <g id="text_10">
     <text style="font-size: 10px; font-family: 'Arial', 'Helvetica', 'DejaVu Sans', sans-serif; text-anchor: middle" x="14.479688" y="161.424" transform="rotate(-90 14.479688 161.424)">Peak memory (GB)</text>
    </g>
   </g>
   <g id="line2d_16">
    <path d="M 72.241325 237.663714 
L 76.677425 237.663714 
M 74.459375 237.663714 
L 74.459375 237.381792 
M 72.241325 237.381792 
L 76.677425 237.381792 
" clip-path="url(#p22afa30115)" style="fill: none; stroke: #8a8a8a; stroke-linecap: square"/>
   </g>
   <g id="line2d_17">
    <path d="M 170.821325 217.967039 
L 175.257425 217.967039 
M 173.039375 217.967039 
L 173.039375 217.675311 
M 170.821325 217.675311 
L 175.257425 217.675311 
" clip-path="url(#p22afa30115)" style="fill: none; stroke: #8a8a8a; stroke-linecap: square"/>
   </g>
   <g id="line2d_18">
    <path d="M 269.401325 209.112123 
L 273.837425 209.112123 
M 271.619375 209.112123 
L 271.619375 208.831369 
M 269.401325 208.831369 
L 273.837425 208.831369 
" clip-path="url(#p22afa30115)" style="fill: none; stroke: #8a8a8a; stroke-linecap: square"/>
   </g>
   <g id="line2d_19">
    <path d="M 367.981325 202.322771 
L 372.417425 202.322771 
M 370.199375 202.322771 
L 370.199375 202.030188 
M 367.981325 202.030188 
L 372.417425 202.030188 
" clip-path="url(#p22afa30115)" style="fill: none; stroke: #8a8a8a; stroke-linecap: square"/>
   </g>
   <g id="line2d_20">
    <path d="M 466.561325 154.078471 
L 470.997425 154.078471 
M 468.779375 154.078471 
L 468.779375 101.105982 
M 466.561325 101.105982 
L 470.997425 101.105982 
" clip-path="url(#p22afa30115)" style="fill: none; stroke: #8a8a8a; stroke-linecap: square"/>
   </g>
   <g id="line2d_21">
    <path d="M 565.141325 155.077974 
L 569.577425 155.077974 
M 567.359375 155.077974 
L 567.359375 90.84512 
M 565.141325 90.84512 
L 569.577425 90.84512 
" clip-path="url(#p22afa30115)" style="fill: none; stroke: #8a8a8a; stroke-linecap: square"/>
   </g>
   <g id="line2d_22">
    <path d="M 84.563825 241.969044 
L 88.999925 241.969044 
M 86.781875 241.969044 
L 86.781875 240.937381 
M 84.563825 240.937381 
L 88.999925 240.937381 
" clip-path="url(#p22afa30115)" style="fill: none; stroke: #8a8a8a; stroke-linecap: square"/>
   </g>
   <g id="line2d_23">
    <path d="M 183.143825 230.53208 
L 187.579925 230.53208 
M 185.361875 230.53208 
L 185.361875 229.46196 
M 183.143825 229.46196 
L 187.579925 229.46196 
" clip-path="url(#p22afa30115)" style="fill: none; stroke: #8a8a8a; stroke-linecap: square"/>
   </g>
   <g id="line2d_24">
    <path d="M 281.723825 226.687983 
L 286.159925 226.687983 
M 283.941875 226.687983 
L 283.941875 225.724731 
M 281.723825 225.724731 
L 286.159925 225.724731 
" clip-path="url(#p22afa30115)" style="fill: none; stroke: #8a8a8a; stroke-linecap: square"/>
   </g>
   <g id="line2d_25">
    <path d="M 380.303825 222.734687 
L 384.739925 222.734687 
M 382.521875 222.734687 
L 382.521875 221.684897 
M 380.303825 221.684897 
L 384.739925 221.684897 
" clip-path="url(#p22afa30115)" style="fill: none; stroke: #8a8a8a; stroke-linecap: square"/>
   </g>
   <g id="line2d_26">
    <path d="M 478.883825 230.310717 
L 483.319925 230.310717 
M 481.101875 230.310717 
L 481.101875 229.444123 
M 478.883825 229.444123 
L 483.319925 229.444123 
" clip-path="url(#p22afa30115)" style="fill: none; stroke: #8a8a8a; stroke-linecap: square"/>
   </g>
   <g id="line2d_27">
    <path d="M 577.463825 229.429687 
L 581.899925 229.429687 
M 579.681875 229.429687 
L 579.681875 228.367978 
M 577.463825 228.367978 
L 581.899925 228.367978 
" clip-path="url(#p22afa30115)" style="fill: none; stroke: #8a8a8a; stroke-linecap: square"/>
   </g>
   <g id="line2d_28">
    <path d="M 96.886325 245.81637 
L 101.322425 245.81637 
M 99.104375 245.81637 
L 99.104375 245.341626 
M 96.886325 245.341626 
L 101.322425 245.341626 
" clip-path="url(#p22afa30115)" style="fill: none; stroke: #8a8a8a; stroke-linecap: square"/>
   </g>
   <g id="line2d_29">
    <path d="M 195.466325 245.760836 
L 199.902425 245.760836 
M 197.684375 245.760836 
L 197.684375 245.21966 
M 195.466325 245.21966 
L 199.902425 245.21966 
" clip-path="url(#p22afa30115)" style="fill: none; stroke: #8a8a8a; stroke-linecap: square"/>
   </g>
   <g id="line2d_30">
    <path d="M 294.046325 245.757747 
L 298.482425 245.757747 
M 296.264375 245.757747 
L 296.264375 245.430081 
M 294.046325 245.430081 
L 298.482425 245.430081 
" clip-path="url(#p22afa30115)" style="fill: none; stroke: #8a8a8a; stroke-linecap: square"/>
   </g>
   <g id="line2d_31">
    <path d="M 392.626325 245.701541 
L 397.062425 245.701541 
M 394.844375 245.701541 
L 394.844375 245.390652 
M 392.626325 245.390652 
L 397.062425 245.390652 
" clip-path="url(#p22afa30115)" style="fill: none; stroke: #8a8a8a; stroke-linecap: square"/>
   </g>
   <g id="line2d_32">
    <path d="M 491.206325 245.634583 
L 495.642425 245.634583 
M 493.424375 245.634583 
L 493.424375 245.305299 
M 491.206325 245.305299 
L 495.642425 245.305299 
" clip-path="url(#p22afa30115)" style="fill: none; stroke: #8a8a8a; stroke-linecap: square"/>
   </g>
   <g id="line2d_33">
    <path d="M 589.786325 245.628812 
L 594.222425 245.628812 
M 592.004375 245.628812 
L 592.004375 245.403652 
M 589.786325 245.403652 
L 594.222425 245.403652 
" clip-path="url(#p22afa30115)" style="fill: none; stroke: #8a8a8a; stroke-linecap: square"/>
   </g>
   <g id="line2d_34">
    <path d="M 109.208825 245.752554 
L 113.644925 245.752554 
M 111.426875 245.752554 
L 111.426875 245.505085 
M 109.208825 245.505085 
L 113.644925 245.505085 
" clip-path="url(#p22afa30115)" style="fill: none; stroke: #8a8a8a; stroke-linecap: square"/>
   </g>
   <g id="line2d_35">
    <path d="M 207.788825 245.707597 
L 212.224925 245.707597 
M 210.006875 245.707597 
L 210.006875 245.401611 
M 207.788825 245.401611 
L 212.224925 245.401611 
" clip-path="url(#p22afa30115)" style="fill: none; stroke: #8a8a8a; stroke-linecap: square"/>
   </g>
   <g id="line2d_36">
    <path d="M 306.368825 245.623913 
L 310.804925 245.623913 
M 308.586875 245.623913 
L 308.586875 245.421782 
M 306.368825 245.421782 
L 310.804925 245.421782 
" clip-path="url(#p22afa30115)" style="fill: none; stroke: #8a8a8a; stroke-linecap: square"/>
   </g>
   <g id="line2d_37">
    <path d="M 404.948825 245.581333 
L 409.384925 245.581333 
M 407.166875 245.581333 
L 407.166875 245.378077 
M 404.948825 245.378077 
L 409.384925 245.378077 
" clip-path="url(#p22afa30115)" style="fill: none; stroke: #8a8a8a; stroke-linecap: square"/>
   </g>
   <g id="line2d_38">
    <path d="M 503.528825 245.540148 
L 507.964925 245.540148 
M 505.746875 245.540148 
L 505.746875 245.389652 
M 503.528825 245.389652 
L 507.964925 245.389652 
" clip-path="url(#p22afa30115)" style="fill: none; stroke: #8a8a8a; stroke-linecap: square"/>
   </g>
   <g id="line2d_39">
    <path d="M 602.108825 245.700766 
L 606.544925 245.700766 
M 604.326875 245.700766 
L 604.326875 245.512442 
M 602.108825 245.512442 
L 606.544925 245.512442 
" clip-path="url(#p22afa30115)" style="fill: none; stroke: #8a8a8a; stroke-linecap: square"/>
   </g>
   <g id="patch_31">
    <path d="M 43.653125 247.104 
L 43.653125 75.744 
" style="fill: none; stroke: #000000; stroke-width: 1.1; stroke-linejoin: miter; stroke-linecap: square"/>
   </g>
   <g id="patch_32">
    <path d="M 43.653125 247.104 
L 635.133125 247.104 
" style="fill: none; stroke: #000000; stroke-width: 1.1; stroke-linejoin: miter; stroke-linecap: square"/>
   </g>
   <g id="text_11">
    <text style="font-size: 7.5px; font-family: 'Arial', 'Helvetica', 'DejaVu Sans', sans-serif; text-anchor: start; fill: #666666" x="49.567925" y="84.539559" transform="rotate(-0 49.567925 84.539559)">Light laptop</text>
   </g>
  </g>
  <g id="axes_2">
   <g id="patch_33">
    <path d="M 43.653125 452.736 
L 635.133125 452.736 
L 635.133125 281.376 
L 43.653125 281.376 
z
" style="fill: #ffffff"/>
   </g>
   <g id="patch_34">
    <path d="M 68.298125 452.736 
L 80.620625 452.736 
L 80.620625 442.794982 
L 68.298125 442.794982 
z
" clip-path="url(#pea496ab158)" style="fill: #272727"/>
   </g>
   <g id="patch_35">
    <path d="M 166.878125 452.736 
L 179.200625 452.736 
L 179.200625 423.375753 
L 166.878125 423.375753 
z
" clip-path="url(#pea496ab158)" style="fill: #272727"/>
   </g>
   <g id="patch_36">
    <path d="M 265.458125 452.736 
L 277.780625 452.736 
L 277.780625 414.284547 
L 265.458125 414.284547 
z
" clip-path="url(#pea496ab158)" style="fill: #272727"/>
   </g>
   <g id="patch_37">
    <path d="M 364.038125 452.736 
L 376.360625 452.736 
L 376.360625 407.543491 
L 364.038125 407.543491 
z
" clip-path="url(#pea496ab158)" style="fill: #272727"/>
   </g>
   <g id="patch_38">
    <path d="M 462.618125 452.736 
L 474.940625 452.736 
L 474.940625 307.248199 
L 462.618125 307.248199 
z
" clip-path="url(#pea496ab158)" style="fill: #272727"/>
   </g>
   <g id="patch_39">
    <path d="M 561.198125 452.736 
L 573.520625 452.736 
L 573.520625 298.512768 
L 561.198125 298.512768 
z
" clip-path="url(#pea496ab158)" style="fill: #272727"/>
   </g>
   <g id="patch_40">
    <path d="M 80.620625 452.736 
L 92.943125 452.736 
L 92.943125 447.15153 
L 80.620625 447.15153 
z
" clip-path="url(#pea496ab158)" style="fill: #8478c3"/>
   </g>
   <g id="patch_41">
    <path d="M 179.200625 452.736 
L 191.523125 452.736 
L 191.523125 435.58918 
L 179.200625 435.58918 
z
" clip-path="url(#pea496ab158)" style="fill: #8478c3"/>
   </g>
   <g id="patch_42">
    <path d="M 277.780625 452.736 
L 290.103125 452.736 
L 290.103125 431.932625 
L 277.780625 431.932625 
z
" clip-path="url(#pea496ab158)" style="fill: #8478c3"/>
   </g>
   <g id="patch_43">
    <path d="M 376.360625 452.736 
L 388.683125 452.736 
L 388.683125 427.901521 
L 376.360625 427.901521 
z
" clip-path="url(#pea496ab158)" style="fill: #8478c3"/>
   </g>
   <g id="patch_44">
    <path d="M 474.940625 452.736 
L 487.263125 452.736 
L 487.263125 435.544293 
L 474.940625 435.544293 
z
" clip-path="url(#pea496ab158)" style="fill: #8478c3"/>
   </g>
   <g id="patch_45">
    <path d="M 573.520625 452.736 
L 585.843125 452.736 
L 585.843125 434.582541 
L 573.520625 434.582541 
z
" clip-path="url(#pea496ab158)" style="fill: #8478c3"/>
   </g>
   <g id="patch_46">
    <path d="M 92.943125 452.736 
L 105.265625 452.736 
L 105.265625 451.051844 
L 92.943125 451.051844 
z
" clip-path="url(#pea496ab158)" style="fill: #43a599"/>
   </g>
   <g id="patch_47">
    <path d="M 191.523125 452.736 
L 203.845625 452.736 
L 203.845625 451.044041 
L 191.523125 451.044041 
z
" clip-path="url(#pea496ab158)" style="fill: #43a599"/>
   </g>
   <g id="patch_48">
    <path d="M 290.103125 452.736 
L 302.425625 452.736 
L 302.425625 451.036079 
L 290.103125 451.036079 
z
" clip-path="url(#pea496ab158)" style="fill: #43a599"/>
   </g>
   <g id="patch_49">
    <path d="M 388.683125 452.736 
L 401.005625 452.736 
L 401.005625 450.992879 
L 388.683125 450.992879 
z
" clip-path="url(#pea496ab158)" style="fill: #43a599"/>
   </g>
   <g id="patch_50">
    <path d="M 487.263125 452.736 
L 499.585625 452.736 
L 499.585625 450.920884 
L 487.263125 450.920884 
z
" clip-path="url(#pea496ab158)" style="fill: #43a599"/>
   </g>
   <g id="patch_51">
    <path d="M 585.843125 452.736 
L 598.165625 452.736 
L 598.165625 451.032337 
L 585.843125 451.032337 
z
" clip-path="url(#pea496ab158)" style="fill: #43a599"/>
   </g>
   <g id="patch_52">
    <path d="M 105.265625 452.736 
L 117.588125 452.736 
L 117.588125 450.269341 
L 105.265625 450.269341 
z
" clip-path="url(#pea496ab158)" style="fill: #a85150"/>
   </g>
   <g id="patch_53">
    <path d="M 203.845625 452.736 
L 216.168125 452.736 
L 216.168125 450.202414 
L 203.845625 450.202414 
z
" clip-path="url(#pea496ab158)" style="fill: #a85150"/>
   </g>
   <g id="patch_54">
    <path d="M 302.425625 452.736 
L 314.748125 452.736 
L 314.748125 450.187137 
L 302.425625 450.187137 
z
" clip-path="url(#pea496ab158)" style="fill: #a85150"/>
   </g>
   <g id="patch_55">
    <path d="M 401.005625 452.736 
L 413.328125 452.736 
L 413.328125 450.135338 
L 401.005625 450.135338 
z
" clip-path="url(#pea496ab158)" style="fill: #a85150"/>
   </g>
   <g id="patch_56">
    <path d="M 499.585625 452.736 
L 511.908125 452.736 
L 511.908125 450.091639 
L 499.585625 450.091639 
z
" clip-path="url(#pea496ab158)" style="fill: #a85150"/>
   </g>
   <g id="patch_57">
    <path d="M 598.165625 452.736 
L 610.488125 452.736 
L 610.488125 450.266096 
L 598.165625 450.266096 
z
" clip-path="url(#pea496ab158)" style="fill: #a85150"/>
   </g>
   <g id="patch_58">
    <path d="M 92.943125 452.736 
L 92.943125 452.736 
L 92.943125 452.736 
L 92.943125 452.736 
z
" clip-path="url(#pea496ab158)" style="fill: #272727"/>
   </g>
   <g id="patch_59">
    <path d="M 92.943125 452.736 
L 92.943125 452.736 
L 92.943125 452.736 
L 92.943125 452.736 
z
" clip-path="url(#pea496ab158)" style="fill: #8478c3"/>
   </g>
   <g id="patch_60">
    <path d="M 92.943125 452.736 
L 92.943125 452.736 
L 92.943125 452.736 
L 92.943125 452.736 
z
" clip-path="url(#pea496ab158)" style="fill: #43a599"/>
   </g>
   <g id="patch_61">
    <path d="M 92.943125 452.736 
L 92.943125 452.736 
L 92.943125 452.736 
L 92.943125 452.736 
z
" clip-path="url(#pea496ab158)" style="fill: #a85150"/>
   </g>
   <g id="matplotlib.axis_3">
    <g id="xtick_7">
     <g id="line2d_40">
      <g>
       <use xlink:href="#m37ad5a02de" x="92.943125" y="452.736" style="fill: #272727; stroke: #272727"/>
      </g>
     </g>
     <g id="text_12">
      <text style="font-size: 8px; font-family: 'Arial', 'Helvetica', 'DejaVu Sans', sans-serif" transform="translate(69.380625 466.05975)">mfeat morph.</text>
      <text style="font-size: 8px; font-family: 'Arial', 'Helvetica', 'DejaVu Sans', sans-serif" transform="translate(74.489375 474.52125)">2000 rows</text>
      <text style="font-size: 8px; font-family: 'Arial', 'Helvetica', 'DejaVu Sans', sans-serif" transform="translate(84.0475 482.98275)">6feat</text>
      <text style="font-size: 8px; font-family: 'Arial', 'Helvetica', 'DejaVu Sans', sans-serif" transform="translate(75.385 491.44425)">multiclass</text>
     </g>
    </g>
    <g id="xtick_8">
     <g id="line2d_41">
      <g>
       <use xlink:href="#m37ad5a02de" x="191.523125" y="452.736" style="fill: #272727; stroke: #272727"/>
      </g>
     </g>
     <g id="text_13">
      <text style="font-size: 8px; font-family: 'Arial', 'Helvetica', 'DejaVu Sans', sans-serif" transform="translate(167.515 465.96225)">mfeat zernike</text>
      <text style="font-size: 8px; font-family: 'Arial', 'Helvetica', 'DejaVu Sans', sans-serif" transform="translate(173.069375 474.42375)">2000 rows</text>
      <text style="font-size: 8px; font-family: 'Arial', 'Helvetica', 'DejaVu Sans', sans-serif" transform="translate(180.403125 482.88525)">47feat</text>
      <text style="font-size: 8px; font-family: 'Arial', 'Helvetica', 'DejaVu Sans', sans-serif" transform="translate(173.965 491.34675)">multiclass</text>
     </g>
    </g>
    <g id="xtick_9">
     <g id="line2d_42">
      <g>
       <use xlink:href="#m37ad5a02de" x="290.103125" y="452.736" style="fill: #272727; stroke: #272727"/>
      </g>
     </g>
     <g id="text_14">
      <text style="font-size: 8px; font-family: 'Arial', 'Helvetica', 'DejaVu Sans', sans-serif" transform="translate(270.096875 465.96225)">mfeat karh.</text>
      <text style="font-size: 8px; font-family: 'Arial', 'Helvetica', 'DejaVu Sans', sans-serif" transform="translate(271.649375 474.42375)">2000 rows</text>
      <text style="font-size: 8px; font-family: 'Arial', 'Helvetica', 'DejaVu Sans', sans-serif" transform="translate(278.983125 482.88525)">64feat</text>
      <text style="font-size: 8px; font-family: 'Arial', 'Helvetica', 'DejaVu Sans', sans-serif" transform="translate(272.545 491.34675)">multiclass</text>
     </g>
    </g>
    <g id="xtick_10">
     <g id="line2d_43">
      <g>
       <use xlink:href="#m37ad5a02de" x="388.683125" y="452.736" style="fill: #272727; stroke: #272727"/>
      </g>
     </g>
     <g id="text_15">
      <text style="font-size: 8px; font-family: 'Arial', 'Helvetica', 'DejaVu Sans', sans-serif" transform="translate(366.231875 465.96225)">mfeat fourier</text>
      <text style="font-size: 8px; font-family: 'Arial', 'Helvetica', 'DejaVu Sans', sans-serif" transform="translate(370.229375 474.42375)">2000 rows</text>
      <text style="font-size: 8px; font-family: 'Arial', 'Helvetica', 'DejaVu Sans', sans-serif" transform="translate(377.563125 482.88525)">76feat</text>
      <text style="font-size: 8px; font-family: 'Arial', 'Helvetica', 'DejaVu Sans', sans-serif" transform="translate(371.125 491.34675)">multiclass</text>
     </g>
    </g>
    <g id="xtick_11">
     <g id="line2d_44">
      <g>
       <use xlink:href="#m37ad5a02de" x="487.263125" y="452.736" style="fill: #272727; stroke: #272727"/>
      </g>
     </g>
     <g id="text_16">
      <text style="font-size: 8px; font-family: 'Arial', 'Helvetica', 'DejaVu Sans', sans-serif" transform="translate(464.145625 465.96225)">mfeat factors</text>
      <text style="font-size: 8px; font-family: 'Arial', 'Helvetica', 'DejaVu Sans', sans-serif" transform="translate(468.809375 474.42375)">2000 rows</text>
      <text style="font-size: 8px; font-family: 'Arial', 'Helvetica', 'DejaVu Sans', sans-serif" transform="translate(473.91875 482.88525)">216feat</text>
      <text style="font-size: 8px; font-family: 'Arial', 'Helvetica', 'DejaVu Sans', sans-serif" transform="translate(469.705 491.34675)">multiclass</text>
     </g>
    </g>
    <g id="xtick_12">
     <g id="line2d_45">
      <g>
       <use xlink:href="#m37ad5a02de" x="585.843125" y="452.736" style="fill: #272727; stroke: #272727"/>
      </g>
     </g>
     <g id="text_17">
      <text style="font-size: 8px; font-family: 'Arial', 'Helvetica', 'DejaVu Sans', sans-serif" transform="translate(566.5025 466.05975)">mfeat pixel</text>
      <text style="font-size: 8px; font-family: 'Arial', 'Helvetica', 'DejaVu Sans', sans-serif" transform="translate(567.389375 474.52125)">2000 rows</text>
      <text style="font-size: 8px; font-family: 'Arial', 'Helvetica', 'DejaVu Sans', sans-serif" transform="translate(572.49875 482.98275)">240feat</text>
      <text style="font-size: 8px; font-family: 'Arial', 'Helvetica', 'DejaVu Sans', sans-serif" transform="translate(568.285 491.44425)">multiclass</text>
     </g>
    </g>
   </g>
   <g id="matplotlib.axis_4">
    <g id="ytick_10">
     <g id="line2d_46">
      <g>
       <use xlink:href="#m3df457e5c8" x="43.653125" y="452.736" style="fill: #272727; stroke: #272727"/>
      </g>
     </g>
     <g id="text_18">
      <text style="font-size: 8px; font-family: 'Arial', 'Helvetica', 'DejaVu Sans', sans-serif; text-anchor: end" x="36.153125" y="455.599125" transform="rotate(-0 36.153125 455.599125)">0.0</text>
     </g>
    </g>
    <g id="ytick_11">
     <g id="line2d_47">
      <g>
       <use xlink:href="#m3df457e5c8" x="43.653125" y="431.89271" style="fill: #272727; stroke: #272727"/>
      </g>
     </g>
     <g id="text_19">
      <text style="font-size: 8px; font-family: 'Arial', 'Helvetica', 'DejaVu Sans', sans-serif; text-anchor: end" x="36.153125" y="434.755835" transform="rotate(-0 36.153125 434.755835)">2.5</text>
     </g>
    </g>
    <g id="ytick_12">
     <g id="line2d_48">
      <g>
       <use xlink:href="#m3df457e5c8" x="43.653125" y="411.049421" style="fill: #272727; stroke: #272727"/>
      </g>
     </g>
     <g id="text_20">
      <text style="font-size: 8px; font-family: 'Arial', 'Helvetica', 'DejaVu Sans', sans-serif; text-anchor: end" x="36.153125" y="413.912546" transform="rotate(-0 36.153125 413.912546)">5.0</text>
     </g>
    </g>
    <g id="ytick_13">
     <g id="line2d_49">
      <g>
       <use xlink:href="#m3df457e5c8" x="43.653125" y="390.206131" style="fill: #272727; stroke: #272727"/>
      </g>
     </g>
     <g id="text_21">
      <text style="font-size: 8px; font-family: 'Arial', 'Helvetica', 'DejaVu Sans', sans-serif; text-anchor: end" x="36.153125" y="393.069256" transform="rotate(-0 36.153125 393.069256)">7.5</text>
     </g>
    </g>
    <g id="ytick_14">
     <g id="line2d_50">
      <g>
       <use xlink:href="#m3df457e5c8" x="43.653125" y="369.362842" style="fill: #272727; stroke: #272727"/>
      </g>
     </g>
     <g id="text_22">
      <text style="font-size: 8px; font-family: 'Arial', 'Helvetica', 'DejaVu Sans', sans-serif; text-anchor: end" x="36.153125" y="372.225967" transform="rotate(-0 36.153125 372.225967)">10.0</text>
     </g>
    </g>
    <g id="ytick_15">
     <g id="line2d_51">
      <g>
       <use xlink:href="#m3df457e5c8" x="43.653125" y="348.519552" style="fill: #272727; stroke: #272727"/>
      </g>
     </g>
     <g id="text_23">
      <text style="font-size: 8px; font-family: 'Arial', 'Helvetica', 'DejaVu Sans', sans-serif; text-anchor: end" x="36.153125" y="351.382677" transform="rotate(-0 36.153125 351.382677)">12.5</text>
     </g>
    </g>
    <g id="ytick_16">
     <g id="line2d_52">
      <g>
       <use xlink:href="#m3df457e5c8" x="43.653125" y="327.676262" style="fill: #272727; stroke: #272727"/>
      </g>
     </g>
     <g id="text_24">
      <text style="font-size: 8px; font-family: 'Arial', 'Helvetica', 'DejaVu Sans', sans-serif; text-anchor: end" x="36.153125" y="330.539387" transform="rotate(-0 36.153125 330.539387)">15.0</text>
     </g>
    </g>
    <g id="ytick_17">
     <g id="line2d_53">
      <g>
       <use xlink:href="#m3df457e5c8" x="43.653125" y="306.832973" style="fill: #272727; stroke: #272727"/>
      </g>
     </g>
     <g id="text_25">
      <text style="font-size: 8px; font-family: 'Arial', 'Helvetica', 'DejaVu Sans', sans-serif; text-anchor: end" x="36.153125" y="309.696098" transform="rotate(-0 36.153125 309.696098)">17.5</text>
     </g>
    </g>
    <g id="ytick_18">
     <g id="line2d_54">
      <g>
       <use xlink:href="#m3df457e5c8" x="43.653125" y="285.989683" style="fill: #272727; stroke: #272727"/>
      </g>
     </g>
     <g id="text_26">
      <text style="font-size: 8px; font-family: 'Arial', 'Helvetica', 'DejaVu Sans', sans-serif; text-anchor: end" x="36.153125" y="288.852808" transform="rotate(-0 36.153125 288.852808)">20.0</text>
     </g>
    </g>
    <g id="text_27">
     <text style="font-size: 10px; font-family: 'Arial', 'Helvetica', 'DejaVu Sans', sans-serif; text-anchor: middle" x="14.479688" y="367.056" transform="rotate(-90 14.479688 367.056)">Peak memory (GB)</text>
    </g>
   </g>
   <g id="line2d_55">
    <path d="M 72.241325 442.979768 
L 76.677425 442.979768 
M 74.459375 442.979768 
L 74.459375 442.610197 
M 72.241325 442.610197 
L 76.677425 442.610197 
" clip-path="url(#pea496ab158)" style="fill: none; stroke: #8a8a8a; stroke-linecap: square"/>
   </g>
   <g id="line2d_56">
    <path d="M 170.821325 423.775526 
L 175.257425 423.775526 
M 173.039375 423.775526 
L 173.039375 422.97598 
M 170.821325 422.97598 
L 175.257425 422.97598 
" clip-path="url(#pea496ab158)" style="fill: none; stroke: #8a8a8a; stroke-linecap: square"/>
   </g>
   <g id="line2d_57">
    <path d="M 269.401325 414.423628 
L 273.837425 414.423628 
M 271.619375 414.423628 
L 271.619375 414.145467 
M 269.401325 414.145467 
L 273.837425 414.145467 
" clip-path="url(#pea496ab158)" style="fill: none; stroke: #8a8a8a; stroke-linecap: square"/>
   </g>
   <g id="line2d_58">
    <path d="M 367.981325 407.701233 
L 372.417425 407.701233 
M 370.199375 407.701233 
L 370.199375 407.385749 
M 367.981325 407.385749 
L 372.417425 407.385749 
" clip-path="url(#pea496ab158)" style="fill: none; stroke: #8a8a8a; stroke-linecap: square"/>
   </g>
   <g id="line2d_59">
    <path d="M 466.561325 310.695169 
L 470.997425 310.695169 
M 468.779375 310.695169 
L 468.779375 303.801229 
M 466.561325 303.801229 
L 470.997425 303.801229 
" clip-path="url(#pea496ab158)" style="fill: none; stroke: #8a8a8a; stroke-linecap: square"/>
   </g>
   <g id="line2d_60">
    <path d="M 565.141325 307.489535 
L 569.577425 307.489535 
M 567.359375 307.489535 
L 567.359375 289.536 
M 565.141325 289.536 
L 569.577425 289.536 
" clip-path="url(#pea496ab158)" style="fill: none; stroke: #8a8a8a; stroke-linecap: square"/>
   </g>
   <g id="line2d_61">
    <path d="M 84.563825 447.173802 
L 88.999925 447.173802 
M 86.781875 447.173802 
L 86.781875 447.129257 
M 84.563825 447.129257 
L 88.999925 447.129257 
" clip-path="url(#pea496ab158)" style="fill: none; stroke: #8a8a8a; stroke-linecap: square"/>
   </g>
   <g id="line2d_62">
    <path d="M 183.143825 435.762954 
L 187.579925 435.762954 
M 185.361875 435.762954 
L 185.361875 435.415406 
M 183.143825 435.415406 
L 187.579925 435.415406 
" clip-path="url(#pea496ab158)" style="fill: none; stroke: #8a8a8a; stroke-linecap: square"/>
   </g>
   <g id="line2d_63">
    <path d="M 281.723825 431.951622 
L 286.159925 431.951622 
M 283.941875 431.951622 
L 283.941875 431.913628 
M 281.723825 431.913628 
L 286.159925 431.913628 
" clip-path="url(#pea496ab158)" style="fill: none; stroke: #8a8a8a; stroke-linecap: square"/>
   </g>
   <g id="line2d_64">
    <path d="M 380.303825 427.912119 
L 384.739925 427.912119 
M 382.521875 427.912119 
L 382.521875 427.890922 
M 380.303825 427.890922 
L 384.739925 427.890922 
" clip-path="url(#pea496ab158)" style="fill: none; stroke: #8a8a8a; stroke-linecap: square"/>
   </g>
   <g id="line2d_65">
    <path d="M 478.883825 435.600989 
L 483.319925 435.600989 
M 481.101875 435.600989 
L 481.101875 435.487598 
M 478.883825 435.487598 
L 483.319925 435.487598 
" clip-path="url(#pea496ab158)" style="fill: none; stroke: #8a8a8a; stroke-linecap: square"/>
   </g>
   <g id="line2d_66">
    <path d="M 577.463825 434.655407 
L 581.899925 434.655407 
M 579.681875 434.655407 
L 579.681875 434.509675 
M 577.463825 434.509675 
L 581.899925 434.509675 
" clip-path="url(#pea496ab158)" style="fill: none; stroke: #8a8a8a; stroke-linecap: square"/>
   </g>
   <g id="line2d_67">
    <path d="M 96.886325 451.101336 
L 101.322425 451.101336 
M 99.104375 451.101336 
L 99.104375 451.002352 
M 96.886325 451.002352 
L 101.322425 451.002352 
" clip-path="url(#pea496ab158)" style="fill: none; stroke: #8a8a8a; stroke-linecap: square"/>
   </g>
   <g id="line2d_68">
    <path d="M 195.466325 451.088019 
L 199.902425 451.088019 
M 197.684375 451.088019 
L 197.684375 451.000063 
M 195.466325 451.000063 
L 199.902425 451.000063 
" clip-path="url(#pea496ab158)" style="fill: none; stroke: #8a8a8a; stroke-linecap: square"/>
   </g>
   <g id="line2d_69">
    <path d="M 294.046325 451.062982 
L 298.482425 451.062982 
M 296.264375 451.062982 
L 296.264375 451.009177 
M 294.046325 451.009177 
L 298.482425 451.009177 
" clip-path="url(#pea496ab158)" style="fill: none; stroke: #8a8a8a; stroke-linecap: square"/>
   </g>
   <g id="line2d_70">
    <path d="M 392.626325 451.004685 
L 397.062425 451.004685 
M 394.844375 451.004685 
L 394.844375 450.981073 
M 392.626325 450.981073 
L 397.062425 450.981073 
" clip-path="url(#pea496ab158)" style="fill: none; stroke: #8a8a8a; stroke-linecap: square"/>
   </g>
   <g id="line2d_71">
    <path d="M 491.206325 450.94429 
L 495.642425 450.94429 
M 493.424375 450.94429 
L 493.424375 450.897479 
M 491.206325 450.897479 
L 495.642425 450.897479 
" clip-path="url(#pea496ab158)" style="fill: none; stroke: #8a8a8a; stroke-linecap: square"/>
   </g>
   <g id="line2d_72">
    <path d="M 589.786325 451.044652 
L 594.222425 451.044652 
M 592.004375 451.044652 
L 592.004375 451.020022 
M 589.786325 451.020022 
L 594.222425 451.020022 
" clip-path="url(#pea496ab158)" style="fill: none; stroke: #8a8a8a; stroke-linecap: square"/>
   </g>
   <g id="line2d_73">
    <path d="M 109.208825 450.354253 
L 113.644925 450.354253 
M 111.426875 450.354253 
L 111.426875 450.184428 
M 109.208825 450.184428 
L 113.644925 450.184428 
" clip-path="url(#pea496ab158)" style="fill: none; stroke: #8a8a8a; stroke-linecap: square"/>
   </g>
   <g id="line2d_74">
    <path d="M 207.788825 450.293365 
L 212.224925 450.293365 
M 210.006875 450.293365 
L 210.006875 450.111462 
M 207.788825 450.111462 
L 212.224925 450.111462 
" clip-path="url(#pea496ab158)" style="fill: none; stroke: #8a8a8a; stroke-linecap: square"/>
   </g>
   <g id="line2d_75">
    <path d="M 306.368825 450.226554 
L 310.804925 450.226554 
M 308.586875 450.226554 
L 308.586875 450.14772 
M 306.368825 450.14772 
L 310.804925 450.14772 
" clip-path="url(#pea496ab158)" style="fill: none; stroke: #8a8a8a; stroke-linecap: square"/>
   </g>
   <g id="line2d_76">
    <path d="M 404.948825 450.207484 
L 409.384925 450.207484 
M 407.166875 450.207484 
L 407.166875 450.063193 
M 404.948825 450.063193 
L 409.384925 450.063193 
" clip-path="url(#pea496ab158)" style="fill: none; stroke: #8a8a8a; stroke-linecap: square"/>
   </g>
   <g id="line2d_77">
    <path d="M 503.528825 450.149968 
L 507.964925 450.149968 
M 505.746875 450.149968 
L 505.746875 450.033311 
M 503.528825 450.033311 
L 507.964925 450.033311 
" clip-path="url(#pea496ab158)" style="fill: none; stroke: #8a8a8a; stroke-linecap: square"/>
   </g>
   <g id="line2d_78">
    <path d="M 602.108825 450.338224 
L 606.544925 450.338224 
M 604.326875 450.338224 
L 604.326875 450.193968 
M 602.108825 450.193968 
L 606.544925 450.193968 
" clip-path="url(#pea496ab158)" style="fill: none; stroke: #8a8a8a; stroke-linecap: square"/>
   </g>
   <g id="patch_62">
    <path d="M 43.653125 452.736 
L 43.653125 281.376 
" style="fill: none; stroke: #000000; stroke-width: 1.1; stroke-linejoin: miter; stroke-linecap: square"/>
   </g>
   <g id="patch_63">
    <path d="M 43.653125 452.736 
L 635.133125 452.736 
" style="fill: none; stroke: #000000; stroke-width: 1.1; stroke-linejoin: miter; stroke-linecap: square"/>
   </g>
   <g id="text_28">
    <text style="font-size: 7.5px; font-family: 'Arial', 'Helvetica', 'DejaVu Sans', sans-serif; text-anchor: start; fill: #666666" x="49.567925" y="290.262966" transform="rotate(-0 49.567925 290.262966)">Gaming laptop</text>
   </g>
   <g id="legend_1">
    <g id="patch_64">
     <path d="M 650.162725 352.054125 
L 662.962725 352.054125 
L 662.962725 346.454125 
L 650.162725 346.454125 
z
" style="fill: #272727"/>
    </g>
    <g id="text_29">
     <text style="font-size: 8px; font-family: 'Arial', 'Helvetica', 'DejaVu Sans', sans-serif; text-anchor: start" x="669.362725" y="352.054125" transform="rotate(-0 669.362725 352.054125)">TabICL</text>
    </g>
    <g id="patch_65">
     <path d="M 650.162725 363.370375 
L 662.962725 363.370375 
L 662.962725 357.770375 
L 650.162725 357.770375 
z
" style="fill: #8478c3"/>
    </g>
    <g id="text_30">
     <text style="font-size: 8px; font-family: 'Arial', 'Helvetica', 'DejaVu Sans', sans-serif; text-anchor: start" x="669.362725" y="363.370375" transform="rotate(-0 669.362725 363.370375)">TabPFN</text>
    </g>
    <g id="patch_66">
     <path d="M 650.162725 374.784125 
L 662.962725 374.784125 
L 662.962725 369.184125 
L 650.162725 369.184125 
z
" style="fill: #43a599"/>
    </g>
    <g id="text_31">
     <text style="font-size: 8px; font-family: 'Arial', 'Helvetica', 'DejaVu Sans', sans-serif; text-anchor: start" x="669.362725" y="374.784125" transform="rotate(-0 669.362725 374.784125)">LightGBM</text>
    </g>
    <g id="patch_67">
     <path d="M 650.162725 386.194125 
L 662.962725 386.194125 
L 662.962725 380.594125 
L 650.162725 380.594125 
z
" style="fill: #a85150"/>
    </g>
    <g id="text_32">
     <text style="font-size: 8px; font-family: 'Arial', 'Helvetica', 'DejaVu Sans', sans-serif; text-anchor: start" x="669.362725" y="386.194125" transform="rotate(-0 669.362725 386.194125)">XGBoost</text>
    </g>
   </g>
  </g>
  <g id="text_33">
   <text style="font-weight: 700; font-size: 10.8px; font-family: 'Arial', 'Helvetica', 'DejaVu Sans', sans-serif; text-anchor: middle" x="329.853125" y="14.930438" transform="rotate(-0 329.853125 14.930438)">Peak memory</text>
  </g>
 </g>
 <defs>
  <clipPath id="p22afa30115">
   <rect x="43.653125" y="75.744" width="591.48" height="171.36"/>
  </clipPath>
  <clipPath id="pea496ab158">
   <rect x="43.653125" y="281.376" width="591.48" height="171.36"/>
  </clipPath>
 </defs>
</svg>
