<?xml version="1.0" encoding="utf-8" standalone="no"?>
<!DOCTYPE svg PUBLIC "-//W3C//DTD SVG 1.1//EN"
  "http://www.w3.org/Graphics/SVG/1.1/DTD/svg11.dtd">
<svg xmlns:xlink="http://www.w3.org/1999/xlink" width="400.92875pt" height="248.899031pt" viewBox="0 0 400.92875 248.899031" xmlns="http://www.w3.org/2000/svg" version="1.1">
 <metadata>
  <rdf:RDF xmlns:dc="http://purl.org/dc/elements/1.1/" xmlns:cc="http://creativecommons.org/ns#" xmlns:rdf="http://www.w3.org/1999/02/22-rdf-syntax-ns#">
   <cc:Work>
    <dc:type rdf:resource="http://purl.org/dc/dcmitype/StillImage"/>
    <dc:date>2026-06-17T09:43:47.641919</dc:date>
    <dc:format>image/svg+xml</dc:format>
    <dc:creator>
     <cc:Agent>
      <dc:title>Matplotlib v3.10.0, https://matplotlib.org/</dc:title>
     </cc:Agent>
    </dc:creator>
   </cc:Work>
  </rdf:RDF>
 </metadata>
 <defs>
  <style type="text/css">*{stroke-linejoin: round; stroke-linecap: butt}</style>
 </defs>
 <g id="figure_1">
  <g id="patch_1">
   <path d="M 0 248.899031 
L 400.92875 248.899031 
L 400.92875 0 
L 0 0 
z
" style="fill: #ffffff"/>
  </g>
  <g id="axes_1">
   <g id="patch_2">
    <path d="M 47.98 213.615594 
L 326.98 213.615594 
L 326.98 30.663594 
L 47.98 30.663594 
z
" style="fill: #ffffff"/>
   </g>
   <g id="FillBetweenPolyCollection_1"/>
   <g id="FillBetweenPolyCollection_2"/>
   <g id="FillBetweenPolyCollection_3"/>
   <g id="FillBetweenPolyCollection_4"/>
   <g id="matplotlib.axis_1">
    <g id="xtick_1">
     <g id="line2d_1">
      <defs>
       <path id="m51b783734d" d="M 0 0 
L 0 4 
" style="stroke: #272727"/>
      </defs>
      <g>
       <use xlink:href="#m51b783734d" x="50.928099" y="213.615594" style="fill: #272727; stroke: #272727"/>
      </g>
     </g>
     <g id="text_1">
      <text style="font-size: 8px; font-family: 'Arial', 'Helvetica', 'DejaVu Sans', sans-serif; text-anchor: middle" x="50.928099" y="226.841844" transform="rotate(-0 50.928099 226.841844)">0</text>
     </g>
    </g>
    <g id="xtick_2">
     <g id="line2d_2">
      <g>
       <use xlink:href="#m51b783734d" x="105.796866" y="213.615594" style="fill: #272727; stroke: #272727"/>
      </g>
     </g>
     <g id="text_2">
      <text style="font-size: 8px; font-family: 'Arial', 'Helvetica', 'DejaVu Sans', sans-serif; text-anchor: middle" x="105.796866" y="226.841844" transform="rotate(-0 105.796866 226.841844)">5000</text>
     </g>
    </g>
    <g id="xtick_3">
     <g id="line2d_3">
      <g>
       <use xlink:href="#m51b783734d" x="160.665633" y="213.615594" style="fill: #272727; stroke: #272727"/>
      </g>
     </g>
     <g id="text_3">
      <text style="font-size: 8px; font-family: 'Arial', 'Helvetica', 'DejaVu Sans', sans-serif; text-anchor: middle" x="160.665633" y="226.841844" transform="rotate(-0 160.665633 226.841844)">10000</text>
     </g>
    </g>
    <g id="xtick_4">
     <g id="line2d_4">
      <g>
       <use xlink:href="#m51b783734d" x="215.534401" y="213.615594" style="fill: #272727; stroke: #272727"/>
      </g>
     </g>
     <g id="text_4">
      <text style="font-size: 8px; font-family: 'Arial', 'Helvetica', 'DejaVu Sans', sans-serif; text-anchor: middle" x="215.534401" y="226.841844" transform="rotate(-0 215.534401 226.841844)">15000</text>
     </g>
    </g>
    <g id="xtick_5">
     <g id="line2d_5">
      <g>
       <use xlink:href="#m51b783734d" x="270.403168" y="213.615594" style="fill: #272727; stroke: #272727"/>
      </g>
     </g>
     <g id="text_5">
      <text style="font-size: 8px; font-family: 'Arial', 'Helvetica', 'DejaVu Sans', sans-serif; text-anchor: middle" x="270.403168" y="226.841844" transform="rotate(-0 270.403168 226.841844)">20000</text>
     </g>
    </g>
    <g id="xtick_6">
     <g id="line2d_6">
      <g>
       <use xlink:href="#m51b783734d" x="325.271935" y="213.615594" style="fill: #272727; stroke: #272727"/>
      </g>
     </g>
     <g id="text_6">
      <text style="font-size: 8px; font-family: 'Arial', 'Helvetica', 'DejaVu Sans', sans-serif; text-anchor: middle" x="325.271935" y="226.841844" transform="rotate(-0 325.271935 226.841844)">25000</text>
     </g>
    </g>
    <g id="text_7">
     <text style="font-size: 10px; font-family: 'Arial', 'Helvetica', 'DejaVu Sans', sans-serif; text-anchor: middle" x="187.48" y="239.711531" transform="rotate(-0 187.48 239.711531)">Samples</text>
    </g>
   </g>
   <g id="matplotlib.axis_2">
    <g id="ytick_1">
     <g id="line2d_7">
      <defs>
       <path id="mdcdd6aaca1" d="M 0 0 
L -4 0 
" style="stroke: #272727"/>
      </defs>
      <g>
       <use xlink:href="#mdcdd6aaca1" x="47.98" y="191.411578" style="fill: #272727; stroke: #272727"/>
      </g>
     </g>
     <g id="text_8">
      <text style="font-size: 8px; font-family: 'Arial', 'Helvetica', 'DejaVu Sans', sans-serif; text-anchor: end" x="40.48" y="194.274703" transform="rotate(-0 40.48 194.274703)">0.825</text>
     </g>
    </g>
    <g id="ytick_2">
     <g id="line2d_8">
      <g>
       <use xlink:href="#mdcdd6aaca1" x="47.98" y="167.048799" style="fill: #272727; stroke: #272727"/>
      </g>
     </g>
     <g id="text_9">
      <text style="font-size: 8px; font-family: 'Arial', 'Helvetica', 'DejaVu Sans', sans-serif; text-anchor: end" x="40.48" y="169.911924" transform="rotate(-0 40.48 169.911924)">0.850</text>
     </g>
    </g>
    <g id="ytick_3">
     <g id="line2d_9">
      <g>
       <use xlink:href="#mdcdd6aaca1" x="47.98" y="142.68602" style="fill: #272727; stroke: #272727"/>
      </g>
     </g>
     <g id="text_10">
      <text style="font-size: 8px; font-family: 'Arial', 'Helvetica', 'DejaVu Sans', sans-serif; text-anchor: end" x="40.48" y="145.549145" transform="rotate(-0 40.48 145.549145)">0.875</text>
     </g>
    </g>
    <g id="ytick_4">
     <g id="line2d_10">
      <g>
       <use xlink:href="#mdcdd6aaca1" x="47.98" y="118.32324" style="fill: #272727; stroke: #272727"/>
      </g>
     </g>
     <g id="text_11">
      <text style="font-size: 8px; font-family: 'Arial', 'Helvetica', 'DejaVu Sans', sans-serif; text-anchor: end" x="40.48" y="121.186365" transform="rotate(-0 40.48 121.186365)">0.900</text>
     </g>
    </g>
    <g id="ytick_5">
     <g id="line2d_11">
      <g>
       <use xlink:href="#mdcdd6aaca1" x="47.98" y="93.960461" style="fill: #272727; stroke: #272727"/>
      </g>
     </g>
     <g id="text_12">
      <text style="font-size: 8px; font-family: 'Arial', 'Helvetica', 'DejaVu Sans', sans-serif; text-anchor: end" x="40.48" y="96.823586" transform="rotate(-0 40.48 96.823586)">0.925</text>
     </g>
    </g>
    <g id="ytick_6">
     <g id="line2d_12">
      <g>
       <use xlink:href="#mdcdd6aaca1" x="47.98" y="69.597681" style="fill: #272727; stroke: #272727"/>
      </g>
     </g>
     <g id="text_13">
      <text style="font-size: 8px; font-family: 'Arial', 'Helvetica', 'DejaVu Sans', sans-serif; text-anchor: end" x="40.48" y="72.460806" transform="rotate(-0 40.48 72.460806)">0.950</text>
     </g>
    </g>
    <g id="ytick_7">
     <g id="line2d_13">
      <g>
       <use xlink:href="#mdcdd6aaca1" x="47.98" y="45.234902" style="fill: #272727; stroke: #272727"/>
      </g>
     </g>
     <g id="text_14">
      <text style="font-size: 8px; font-family: 'Arial', 'Helvetica', 'DejaVu Sans', sans-serif; text-anchor: end" x="40.48" y="48.098027" transform="rotate(-0 40.48 48.098027)">0.975</text>
     </g>
    </g>
    <g id="text_15">
     <text style="font-size: 10px; font-family: 'Arial', 'Helvetica', 'DejaVu Sans', sans-serif; text-anchor: middle" x="14.357813" y="122.139594" transform="rotate(-90 14.357813 122.139594)">Accuracy</text>
    </g>
   </g>
   <g id="line2d_14">
    <path d="M 60.661818 73.548402 
L 69.440821 140.954068 
L 95.909514 40.837717 
L 115.892719 40.625727 
L 146.487544 190.52749 
L 314.298182 189.462556 
" clip-path="url(#pc54fe71089)" style="fill: none; stroke: #272727; stroke-width: 1.45; stroke-linecap: square"/>
    <defs>
     <path id="m6230c2a4be" d="M 0 2.1 
C 0.556927 2.1 1.091118 1.878731 1.484924 1.484924 
C 1.878731 1.091118 2.1 0.556927 2.1 0 
C 2.1 -0.556927 1.878731 -1.091118 1.484924 -1.484924 
C 1.091118 -1.878731 0.556927 -2.1 0 -2.1 
C -0.556927 -2.1 -1.091118 -1.878731 -1.484924 -1.484924 
C -1.878731 -1.091118 -2.1 -0.556927 -2.1 0 
C -2.1 0.556927 -1.878731 1.091118 -1.484924 1.484924 
C -1.091118 1.878731 -0.556927 2.1 0 2.1 
z
" style="stroke: #ffffff; stroke-width: 0.75"/>
    </defs>
    <g clip-path="url(#pc54fe71089)">
     <use xlink:href="#m6230c2a4be" x="60.661818" y="73.548402" style="fill: #272727; stroke: #ffffff; stroke-width: 0.75"/>
     <use xlink:href="#m6230c2a4be" x="69.440821" y="140.954068" style="fill: #272727; stroke: #ffffff; stroke-width: 0.75"/>
     <use xlink:href="#m6230c2a4be" x="95.909514" y="40.837717" style="fill: #272727; stroke: #ffffff; stroke-width: 0.75"/>
     <use xlink:href="#m6230c2a4be" x="115.892719" y="40.625727" style="fill: #272727; stroke: #ffffff; stroke-width: 0.75"/>
     <use xlink:href="#m6230c2a4be" x="146.487544" y="190.52749" style="fill: #272727; stroke: #ffffff; stroke-width: 0.75"/>
     <use xlink:href="#m6230c2a4be" x="314.298182" y="189.462556" style="fill: #272727; stroke: #ffffff; stroke-width: 0.75"/>
    </g>
   </g>
   <g id="line2d_15">
    <path d="M 60.661818 60.379332 
L 69.440821 140.954068 
L 95.909514 42.739203 
L 115.892719 38.979594 
L 146.487544 200.375559 
L 314.298182 190.518277 
" clip-path="url(#pc54fe71089)" style="fill: none; stroke: #7c6ccf; stroke-width: 1.45; stroke-linecap: square"/>
    <defs>
     <path id="m0f39305884" d="M 0 2.1 
C 0.556927 2.1 1.091118 1.878731 1.484924 1.484924 
C 1.878731 1.091118 2.1 0.556927 2.1 0 
C 2.1 -0.556927 1.878731 -1.091118 1.484924 -1.484924 
C 1.091118 -1.878731 0.556927 -2.1 0 -2.1 
C -0.556927 -2.1 -1.091118 -1.878731 -1.484924 -1.484924 
C -1.878731 -1.091118 -2.1 -0.556927 -2.1 0 
C -2.1 0.556927 -1.878731 1.091118 -1.484924 1.484924 
C -1.091118 1.878731 -0.556927 2.1 0 2.1 
z
" style="stroke: #ffffff; stroke-width: 0.75"/>
    </defs>
    <g clip-path="url(#pc54fe71089)">
     <use xlink:href="#m0f39305884" x="60.661818" y="60.379332" style="fill: #7c6ccf; stroke: #ffffff; stroke-width: 0.75"/>
     <use xlink:href="#m0f39305884" x="69.440821" y="140.954068" style="fill: #7c6ccf; stroke: #ffffff; stroke-width: 0.75"/>
     <use xlink:href="#m0f39305884" x="95.909514" y="42.739203" style="fill: #7c6ccf; stroke: #ffffff; stroke-width: 0.75"/>
     <use xlink:href="#m0f39305884" x="115.892719" y="38.979594" style="fill: #7c6ccf; stroke: #ffffff; stroke-width: 0.75"/>
     <use xlink:href="#m0f39305884" x="146.487544" y="200.375559" style="fill: #7c6ccf; stroke: #ffffff; stroke-width: 0.75"/>
     <use xlink:href="#m0f39305884" x="314.298182" y="190.518277" style="fill: #7c6ccf; stroke: #ffffff; stroke-width: 0.75"/>
    </g>
   </g>
   <g id="line2d_16">
    <path d="M 60.661818 82.327782 
L 69.440821 145.572605 
L 95.909514 75.064451 
L 115.892719 45.893355 
L 146.487544 203.061396 
L 314.298182 191.898834 
" clip-path="url(#pc54fe71089)" style="fill: none; stroke: #33b5a5; stroke-width: 1.45; stroke-linecap: square"/>
    <defs>
     <path id="mde725c6fba" d="M 0 2.1 
C 0.556927 2.1 1.091118 1.878731 1.484924 1.484924 
C 1.878731 1.091118 2.1 0.556927 2.1 0 
C 2.1 -0.556927 1.878731 -1.091118 1.484924 -1.484924 
C 1.091118 -1.878731 0.556927 -2.1 0 -2.1 
C -0.556927 -2.1 -1.091118 -1.878731 -1.484924 -1.484924 
C -1.878731 -1.091118 -2.1 -0.556927 -2.1 0 
C -2.1 0.556927 -1.878731 1.091118 -1.484924 1.484924 
C -1.091118 1.878731 -0.556927 2.1 0 2.1 
z
" style="stroke: #ffffff; stroke-width: 0.75"/>
    </defs>
    <g clip-path="url(#pc54fe71089)">
     <use xlink:href="#mde725c6fba" x="60.661818" y="82.327782" style="fill: #33b5a5; stroke: #ffffff; stroke-width: 0.75"/>
     <use xlink:href="#mde725c6fba" x="69.440821" y="145.572605" style="fill: #33b5a5; stroke: #ffffff; stroke-width: 0.75"/>
     <use xlink:href="#mde725c6fba" x="95.909514" y="75.064451" style="fill: #33b5a5; stroke: #ffffff; stroke-width: 0.75"/>
     <use xlink:href="#mde725c6fba" x="115.892719" y="45.893355" style="fill: #33b5a5; stroke: #ffffff; stroke-width: 0.75"/>
     <use xlink:href="#mde725c6fba" x="146.487544" y="203.061396" style="fill: #33b5a5; stroke: #ffffff; stroke-width: 0.75"/>
     <use xlink:href="#mde725c6fba" x="314.298182" y="191.898834" style="fill: #33b5a5; stroke: #ffffff; stroke-width: 0.75"/>
    </g>
   </g>
   <g id="line2d_17">
    <path d="M 60.661818 73.548402 
L 69.440821 143.263337 
L 95.909514 76.015194 
L 115.892719 51.819437 
L 146.487544 205.299594 
L 314.298182 194.010275 
" clip-path="url(#pc54fe71089)" style="fill: none; stroke: #b64342; stroke-width: 1.45; stroke-linecap: square"/>
    <defs>
     <path id="mf3fd656922" d="M 0 2.1 
C 0.556927 2.1 1.091118 1.878731 1.484924 1.484924 
C 1.878731 1.091118 2.1 0.556927 2.1 0 
C 2.1 -0.556927 1.878731 -1.091118 1.484924 -1.484924 
C 1.091118 -1.878731 0.556927 -2.1 0 -2.1 
C -0.556927 -2.1 -1.091118 -1.878731 -1.484924 -1.484924 
C -1.878731 -1.091118 -2.1 -0.556927 -2.1 0 
C -2.1 0.556927 -1.878731 1.091118 -1.484924 1.484924 
C -1.091118 1.878731 -0.556927 2.1 0 2.1 
z
" style="stroke: #ffffff; stroke-width: 0.75"/>
    </defs>
    <g clip-path="url(#pc54fe71089)">
     <use xlink:href="#mf3fd656922" x="60.661818" y="73.548402" style="fill: #b64342; stroke: #ffffff; stroke-width: 0.75"/>
     <use xlink:href="#mf3fd656922" x="69.440821" y="143.263337" style="fill: #b64342; stroke: #ffffff; stroke-width: 0.75"/>
     <use xlink:href="#mf3fd656922" x="95.909514" y="76.015194" style="fill: #b64342; stroke: #ffffff; stroke-width: 0.75"/>
     <use xlink:href="#mf3fd656922" x="115.892719" y="51.819437" style="fill: #b64342; stroke: #ffffff; stroke-width: 0.75"/>
     <use xlink:href="#mf3fd656922" x="146.487544" y="205.299594" style="fill: #b64342; stroke: #ffffff; stroke-width: 0.75"/>
     <use xlink:href="#mf3fd656922" x="314.298182" y="194.010275" style="fill: #b64342; stroke: #ffffff; stroke-width: 0.75"/>
    </g>
   </g>
   <g id="line2d_18"/>
   <g id="line2d_19"/>
   <g id="line2d_20"/>
   <g id="line2d_21"/>
   <g id="patch_3">
    <path d="M 47.98 213.615594 
L 47.98 30.663594 
" style="fill: none; stroke: #000000; stroke-width: 1.1; stroke-linejoin: miter; stroke-linecap: square"/>
   </g>
   <g id="patch_4">
    <path d="M 47.98 213.615594 
L 326.98 213.615594 
" style="fill: none; stroke: #000000; stroke-width: 1.1; stroke-linejoin: miter; stroke-linecap: square"/>
   </g>
   <g id="text_16">
    <text style="font-weight: 700; font-size: 13px; font-family: 'Arial', 'Helvetica', 'DejaVu Sans', sans-serif; text-anchor: middle" x="187.48" y="16.663594" transform="rotate(-0 187.48 16.663594)">Sample scaling</text>
   </g>
   <g id="legend_1">
    <g id="line2d_22">
     <path d="M 335.76 104.337719 
L 342.16 104.337719 
L 348.56 104.337719 
" style="fill: none; stroke: #272727; stroke-width: 1.45; stroke-linecap: square"/>
     <g>
      <use xlink:href="#m6230c2a4be" x="342.16" y="104.337719" style="fill: #272727; stroke: #ffffff; stroke-width: 0.75"/>
     </g>
    </g>
    <g id="text_17">
     <text style="font-size: 8px; font-family: 'Arial', 'Helvetica', 'DejaVu Sans', sans-serif; text-anchor: start" x="354.96" y="107.137719" transform="rotate(-0 354.96 107.137719)">TabICL</text>
    </g>
    <g id="line2d_23">
     <path d="M 335.76 115.653969 
L 342.16 115.653969 
L 348.56 115.653969 
" style="fill: none; stroke: #7c6ccf; stroke-width: 1.45; stroke-linecap: square"/>
     <g>
      <use xlink:href="#m0f39305884" x="342.16" y="115.653969" style="fill: #7c6ccf; stroke: #ffffff; stroke-width: 0.75"/>
     </g>
    </g>
    <g id="text_18">
     <text style="font-size: 8px; font-family: 'Arial', 'Helvetica', 'DejaVu Sans', sans-serif; text-anchor: start" x="354.96" y="118.453969" transform="rotate(-0 354.96 118.453969)">TabPFN</text>
    </g>
    <g id="line2d_24">
     <path d="M 335.76 127.067719 
L 342.16 127.067719 
L 348.56 127.067719 
" style="fill: none; stroke: #33b5a5; stroke-width: 1.45; stroke-linecap: square"/>
     <g>
      <use xlink:href="#mde725c6fba" x="342.16" y="127.067719" style="fill: #33b5a5; stroke: #ffffff; stroke-width: 0.75"/>
     </g>
    </g>
    <g id="text_19">
     <text style="font-size: 8px; font-family: 'Arial', 'Helvetica', 'DejaVu Sans', sans-serif; text-anchor: start" x="354.96" y="129.867719" transform="rotate(-0 354.96 129.867719)">LightGBM</text>
    </g>
    <g id="line2d_25">
     <path d="M 335.76 138.477719 
L 342.16 138.477719 
L 348.56 138.477719 
" style="fill: none; stroke: #b64342; stroke-width: 1.45; stroke-linecap: square"/>
     <g>
      <use xlink:href="#mf3fd656922" x="342.16" y="138.477719" style="fill: #b64342; stroke: #ffffff; stroke-width: 0.75"/>
     </g>
    </g>
    <g id="text_20">
     <text style="font-size: 8px; font-family: 'Arial', 'Helvetica', 'DejaVu Sans', sans-serif; text-anchor: start" x="354.96" y="141.277719" transform="rotate(-0 354.96 141.277719)">XGBoost</text>
    </g>
   </g>
  </g>
 </g>
 <defs>
  <clipPath id="pc54fe71089">
   <rect x="47.98" y="30.663594" width="279" height="182.952"/>
  </clipPath>
 </defs>
</svg>
