<?xml version="1.0" encoding="utf-8" standalone="no"?>
<!DOCTYPE svg PUBLIC "-//W3C//DTD SVG 1.1//EN"
  "http://www.w3.org/Graphics/SVG/1.1/DTD/svg11.dtd">
<svg xmlns:xlink="http://www.w3.org/1999/xlink" width="391.914062pt" height="248.899031pt" viewBox="0 0 391.914062 248.899031" xmlns="http://www.w3.org/2000/svg" version="1.1">
 <metadata>
  <rdf:RDF xmlns:dc="http://purl.org/dc/elements/1.1/" xmlns:cc="http://creativecommons.org/ns#" xmlns:rdf="http://www.w3.org/1999/02/22-rdf-syntax-ns#">
   <cc:Work>
    <dc:type rdf:resource="http://purl.org/dc/dcmitype/StillImage"/>
    <dc:date>2026-06-17T09:43:50.463540</dc:date>
    <dc:format>image/svg+xml</dc:format>
    <dc:creator>
     <cc:Agent>
      <dc:title>Matplotlib v3.10.0, https://matplotlib.org/</dc:title>
     </cc:Agent>
    </dc:creator>
   </cc:Work>
  </rdf:RDF>
 </metadata>
 <defs>
  <style type="text/css">*{stroke-linejoin: round; stroke-linecap: butt}</style>
 </defs>
 <g id="figure_1">
  <g id="patch_1">
   <path d="M 0 248.899031 
L 391.914062 248.899031 
L 391.914062 0 
L 0 0 
z
" style="fill: #ffffff"/>
  </g>
  <g id="axes_1">
   <g id="patch_2">
    <path d="M 38.965313 213.615594 
L 317.965312 213.615594 
L 317.965312 30.663594 
L 38.965313 30.663594 
z
" style="fill: #ffffff"/>
   </g>
   <g id="FillBetweenPolyCollection_1"/>
   <g id="FillBetweenPolyCollection_2"/>
   <g id="FillBetweenPolyCollection_3"/>
   <g id="FillBetweenPolyCollection_4"/>
   <g id="matplotlib.axis_1">
    <g id="xtick_1">
     <g id="line2d_1">
      <defs>
       <path id="m7a156d0c52" d="M 0 0 
L 0 4 
" style="stroke: #272727"/>
      </defs>
      <g>
       <use xlink:href="#m7a156d0c52" x="41.913411" y="213.615594" style="fill: #272727; stroke: #272727"/>
      </g>
     </g>
     <g id="text_1">
      <text style="font-size: 8px; font-family: 'Arial', 'Helvetica', 'DejaVu Sans', sans-serif; text-anchor: middle" x="41.913411" y="226.841844" transform="rotate(-0 41.913411 226.841844)">0</text>
     </g>
    </g>
    <g id="xtick_2">
     <g id="line2d_2">
      <g>
       <use xlink:href="#m7a156d0c52" x="96.782179" y="213.615594" style="fill: #272727; stroke: #272727"/>
      </g>
     </g>
     <g id="text_2">
      <text style="font-size: 8px; font-family: 'Arial', 'Helvetica', 'DejaVu Sans', sans-serif; text-anchor: middle" x="96.782179" y="226.841844" transform="rotate(-0 96.782179 226.841844)">5000</text>
     </g>
    </g>
    <g id="xtick_3">
     <g id="line2d_3">
      <g>
       <use xlink:href="#m7a156d0c52" x="151.650946" y="213.615594" style="fill: #272727; stroke: #272727"/>
      </g>
     </g>
     <g id="text_3">
      <text style="font-size: 8px; font-family: 'Arial', 'Helvetica', 'DejaVu Sans', sans-serif; text-anchor: middle" x="151.650946" y="226.841844" transform="rotate(-0 151.650946 226.841844)">10000</text>
     </g>
    </g>
    <g id="xtick_4">
     <g id="line2d_4">
      <g>
       <use xlink:href="#m7a156d0c52" x="206.519713" y="213.615594" style="fill: #272727; stroke: #272727"/>
      </g>
     </g>
     <g id="text_4">
      <text style="font-size: 8px; font-family: 'Arial', 'Helvetica', 'DejaVu Sans', sans-serif; text-anchor: middle" x="206.519713" y="226.841844" transform="rotate(-0 206.519713 226.841844)">15000</text>
     </g>
    </g>
    <g id="xtick_5">
     <g id="line2d_5">
      <g>
       <use xlink:href="#m7a156d0c52" x="261.38848" y="213.615594" style="fill: #272727; stroke: #272727"/>
      </g>
     </g>
     <g id="text_5">
      <text style="font-size: 8px; font-family: 'Arial', 'Helvetica', 'DejaVu Sans', sans-serif; text-anchor: middle" x="261.38848" y="226.841844" transform="rotate(-0 261.38848 226.841844)">20000</text>
     </g>
    </g>
    <g id="xtick_6">
     <g id="line2d_6">
      <g>
       <use xlink:href="#m7a156d0c52" x="316.257248" y="213.615594" style="fill: #272727; stroke: #272727"/>
      </g>
     </g>
     <g id="text_6">
      <text style="font-size: 8px; font-family: 'Arial', 'Helvetica', 'DejaVu Sans', sans-serif; text-anchor: middle" x="316.257248" y="226.841844" transform="rotate(-0 316.257248 226.841844)">25000</text>
     </g>
    </g>
    <g id="text_7">
     <text style="font-size: 10px; font-family: 'Arial', 'Helvetica', 'DejaVu Sans', sans-serif; text-anchor: middle" x="178.465313" y="239.711531" transform="rotate(-0 178.465313 239.711531)">Samples</text>
    </g>
   </g>
   <g id="matplotlib.axis_2">
    <g id="ytick_1">
     <g id="line2d_7">
      <defs>
       <path id="mb086797a30" d="M 0 0 
L -4 0 
" style="stroke: #272727"/>
      </defs>
      <g>
       <use xlink:href="#mb086797a30" x="38.965313" y="193.158574" style="fill: #272727; stroke: #272727"/>
      </g>
     </g>
     <g id="text_8">
      <text style="font-size: 8px; font-family: 'Arial', 'Helvetica', 'DejaVu Sans', sans-serif; text-anchor: end" x="31.465313" y="196.021699" transform="rotate(-0 31.465313 196.021699)">0.6</text>
     </g>
    </g>
    <g id="ytick_2">
     <g id="line2d_8">
      <g>
       <use xlink:href="#mb086797a30" x="38.965313" y="152.735907" style="fill: #272727; stroke: #272727"/>
      </g>
     </g>
     <g id="text_9">
      <text style="font-size: 8px; font-family: 'Arial', 'Helvetica', 'DejaVu Sans', sans-serif; text-anchor: end" x="31.465313" y="155.599032" transform="rotate(-0 31.465313 155.599032)">0.7</text>
     </g>
    </g>
    <g id="ytick_3">
     <g id="line2d_9">
      <g>
       <use xlink:href="#mb086797a30" x="38.965313" y="112.313239" style="fill: #272727; stroke: #272727"/>
      </g>
     </g>
     <g id="text_10">
      <text style="font-size: 8px; font-family: 'Arial', 'Helvetica', 'DejaVu Sans', sans-serif; text-anchor: end" x="31.465313" y="115.176364" transform="rotate(-0 31.465313 115.176364)">0.8</text>
     </g>
    </g>
    <g id="ytick_4">
     <g id="line2d_10">
      <g>
       <use xlink:href="#mb086797a30" x="38.965313" y="71.890572" style="fill: #272727; stroke: #272727"/>
      </g>
     </g>
     <g id="text_11">
      <text style="font-size: 8px; font-family: 'Arial', 'Helvetica', 'DejaVu Sans', sans-serif; text-anchor: end" x="31.465313" y="74.753697" transform="rotate(-0 31.465313 74.753697)">0.9</text>
     </g>
    </g>
    <g id="ytick_5">
     <g id="line2d_11">
      <g>
       <use xlink:href="#mb086797a30" x="38.965313" y="31.467904" style="fill: #272727; stroke: #272727"/>
      </g>
     </g>
     <g id="text_12">
      <text style="font-size: 8px; font-family: 'Arial', 'Helvetica', 'DejaVu Sans', sans-serif; text-anchor: end" x="31.465313" y="34.331029" transform="rotate(-0 31.465313 34.331029)">1.0</text>
     </g>
    </g>
    <g id="text_13">
     <text style="font-size: 10px; font-family: 'Arial', 'Helvetica', 'DejaVu Sans', sans-serif; text-anchor: middle" x="14.357813" y="122.139594" transform="rotate(-90 14.357813 122.139594)">Macro F1</text>
    </g>
   </g>
   <g id="line2d_12">
    <path d="M 51.647131 147.458841 
L 60.426133 150.693041 
L 86.894827 39.749653 
L 106.878032 39.664218 
L 137.472856 184.957121 
L 305.283494 154.510205 
" clip-path="url(#p0f806b5664)" style="fill: none; stroke: #272727; stroke-width: 1.45; stroke-linecap: square"/>
    <defs>
     <path id="m34f8bb93ab" d="M 0 2.1 
C 0.556927 2.1 1.091118 1.878731 1.484924 1.484924 
C 1.878731 1.091118 2.1 0.556927 2.1 0 
C 2.1 -0.556927 1.878731 -1.091118 1.484924 -1.484924 
C 1.091118 -1.878731 0.556927 -2.1 0 -2.1 
C -0.556927 -2.1 -1.091118 -1.878731 -1.484924 -1.484924 
C -1.878731 -1.091118 -2.1 -0.556927 -2.1 0 
C -2.1 0.556927 -1.878731 1.091118 -1.484924 1.484924 
C -1.091118 1.878731 -0.556927 2.1 0 2.1 
z
" style="stroke: #ffffff; stroke-width: 0.75"/>
    </defs>
    <g clip-path="url(#p0f806b5664)">
     <use xlink:href="#m34f8bb93ab" x="51.647131" y="147.458841" style="fill: #272727; stroke: #ffffff; stroke-width: 0.75"/>
     <use xlink:href="#m34f8bb93ab" x="60.426133" y="150.693041" style="fill: #272727; stroke: #ffffff; stroke-width: 0.75"/>
     <use xlink:href="#m34f8bb93ab" x="86.894827" y="39.749653" style="fill: #272727; stroke: #ffffff; stroke-width: 0.75"/>
     <use xlink:href="#m34f8bb93ab" x="106.878032" y="39.664218" style="fill: #272727; stroke: #ffffff; stroke-width: 0.75"/>
     <use xlink:href="#m34f8bb93ab" x="137.472856" y="184.957121" style="fill: #272727; stroke: #ffffff; stroke-width: 0.75"/>
     <use xlink:href="#m34f8bb93ab" x="305.283494" y="154.510205" style="fill: #272727; stroke: #ffffff; stroke-width: 0.75"/>
    </g>
   </g>
   <g id="line2d_13">
    <path d="M 51.647131 114.876444 
L 60.426133 159.6818 
L 86.894827 40.538667 
L 106.878032 38.979594 
L 137.472856 205.299594 
L 305.283494 154.50011 
" clip-path="url(#p0f806b5664)" style="fill: none; stroke: #7c6ccf; stroke-width: 1.45; stroke-linecap: square"/>
    <defs>
     <path id="m0e316d51ac" d="M 0 2.1 
C 0.556927 2.1 1.091118 1.878731 1.484924 1.484924 
C 1.878731 1.091118 2.1 0.556927 2.1 0 
C 2.1 -0.556927 1.878731 -1.091118 1.484924 -1.484924 
C 1.091118 -1.878731 0.556927 -2.1 0 -2.1 
C -0.556927 -2.1 -1.091118 -1.878731 -1.484924 -1.484924 
C -1.878731 -1.091118 -2.1 -0.556927 -2.1 0 
C -2.1 0.556927 -1.878731 1.091118 -1.484924 1.484924 
C -1.091118 1.878731 -0.556927 2.1 0 2.1 
z
" style="stroke: #ffffff; stroke-width: 0.75"/>
    </defs>
    <g clip-path="url(#p0f806b5664)">
     <use xlink:href="#m0e316d51ac" x="51.647131" y="114.876444" style="fill: #7c6ccf; stroke: #ffffff; stroke-width: 0.75"/>
     <use xlink:href="#m0e316d51ac" x="60.426133" y="159.6818" style="fill: #7c6ccf; stroke: #ffffff; stroke-width: 0.75"/>
     <use xlink:href="#m0e316d51ac" x="86.894827" y="40.538667" style="fill: #7c6ccf; stroke: #ffffff; stroke-width: 0.75"/>
     <use xlink:href="#m0e316d51ac" x="106.878032" y="38.979594" style="fill: #7c6ccf; stroke: #ffffff; stroke-width: 0.75"/>
     <use xlink:href="#m0e316d51ac" x="137.472856" y="205.299594" style="fill: #7c6ccf; stroke: #ffffff; stroke-width: 0.75"/>
     <use xlink:href="#m0e316d51ac" x="305.283494" y="154.50011" style="fill: #7c6ccf; stroke: #ffffff; stroke-width: 0.75"/>
    </g>
   </g>
   <g id="line2d_14">
    <path d="M 51.647131 147.067509 
L 60.426133 142.15665 
L 86.894827 53.957211 
L 106.878032 41.849427 
L 137.472856 190.258497 
L 305.283494 155.857392 
" clip-path="url(#p0f806b5664)" style="fill: none; stroke: #33b5a5; stroke-width: 1.45; stroke-linecap: square"/>
    <defs>
     <path id="m9d122b076c" d="M 0 2.1 
C 0.556927 2.1 1.091118 1.878731 1.484924 1.484924 
C 1.878731 1.091118 2.1 0.556927 2.1 0 
C 2.1 -0.556927 1.878731 -1.091118 1.484924 -1.484924 
C 1.091118 -1.878731 0.556927 -2.1 0 -2.1 
C -0.556927 -2.1 -1.091118 -1.878731 -1.484924 -1.484924 
C -1.878731 -1.091118 -2.1 -0.556927 -2.1 0 
C -2.1 0.556927 -1.878731 1.091118 -1.484924 1.484924 
C -1.091118 1.878731 -0.556927 2.1 0 2.1 
z
" style="stroke: #ffffff; stroke-width: 0.75"/>
    </defs>
    <g clip-path="url(#p0f806b5664)">
     <use xlink:href="#m9d122b076c" x="51.647131" y="147.067509" style="fill: #33b5a5; stroke: #ffffff; stroke-width: 0.75"/>
     <use xlink:href="#m9d122b076c" x="60.426133" y="142.15665" style="fill: #33b5a5; stroke: #ffffff; stroke-width: 0.75"/>
     <use xlink:href="#m9d122b076c" x="86.894827" y="53.957211" style="fill: #33b5a5; stroke: #ffffff; stroke-width: 0.75"/>
     <use xlink:href="#m9d122b076c" x="106.878032" y="41.849427" style="fill: #33b5a5; stroke: #ffffff; stroke-width: 0.75"/>
     <use xlink:href="#m9d122b076c" x="137.472856" y="190.258497" style="fill: #33b5a5; stroke: #ffffff; stroke-width: 0.75"/>
     <use xlink:href="#m9d122b076c" x="305.283494" y="155.857392" style="fill: #33b5a5; stroke: #ffffff; stroke-width: 0.75"/>
    </g>
   </g>
   <g id="line2d_15">
    <path d="M 51.647131 130.55328 
L 60.426133 144.317356 
L 86.894827 54.347512 
L 106.878032 44.313752 
L 137.472856 197.587471 
L 305.283494 157.926745 
" clip-path="url(#p0f806b5664)" style="fill: none; stroke: #b64342; stroke-width: 1.45; stroke-linecap: square"/>
    <defs>
     <path id="m51a1826078" d="M 0 2.1 
C 0.556927 2.1 1.091118 1.878731 1.484924 1.484924 
C 1.878731 1.091118 2.1 0.556927 2.1 0 
C 2.1 -0.556927 1.878731 -1.091118 1.484924 -1.484924 
C 1.091118 -1.878731 0.556927 -2.1 0 -2.1 
C -0.556927 -2.1 -1.091118 -1.878731 -1.484924 -1.484924 
C -1.878731 -1.091118 -2.1 -0.556927 -2.1 0 
C -2.1 0.556927 -1.878731 1.091118 -1.484924 1.484924 
C -1.091118 1.878731 -0.556927 2.1 0 2.1 
z
" style="stroke: #ffffff; stroke-width: 0.75"/>
    </defs>
    <g clip-path="url(#p0f806b5664)">
     <use xlink:href="#m51a1826078" x="51.647131" y="130.55328" style="fill: #b64342; stroke: #ffffff; stroke-width: 0.75"/>
     <use xlink:href="#m51a1826078" x="60.426133" y="144.317356" style="fill: #b64342; stroke: #ffffff; stroke-width: 0.75"/>
     <use xlink:href="#m51a1826078" x="86.894827" y="54.347512" style="fill: #b64342; stroke: #ffffff; stroke-width: 0.75"/>
     <use xlink:href="#m51a1826078" x="106.878032" y="44.313752" style="fill: #b64342; stroke: #ffffff; stroke-width: 0.75"/>
     <use xlink:href="#m51a1826078" x="137.472856" y="197.587471" style="fill: #b64342; stroke: #ffffff; stroke-width: 0.75"/>
     <use xlink:href="#m51a1826078" x="305.283494" y="157.926745" style="fill: #b64342; stroke: #ffffff; stroke-width: 0.75"/>
    </g>
   </g>
   <g id="line2d_16"/>
   <g id="line2d_17"/>
   <g id="line2d_18"/>
   <g id="line2d_19"/>
   <g id="patch_3">
    <path d="M 38.965313 213.615594 
L 38.965313 30.663594 
" style="fill: none; stroke: #000000; stroke-width: 1.1; stroke-linejoin: miter; stroke-linecap: square"/>
   </g>
   <g id="patch_4">
    <path d="M 38.965313 213.615594 
L 317.965312 213.615594 
" style="fill: none; stroke: #000000; stroke-width: 1.1; stroke-linejoin: miter; stroke-linecap: square"/>
   </g>
   <g id="text_14">
    <text style="font-weight: 700; font-size: 13px; font-family: 'Arial', 'Helvetica', 'DejaVu Sans', sans-serif; text-anchor: middle" x="178.465313" y="16.663594" transform="rotate(-0 178.465313 16.663594)">Sample scaling</text>
   </g>
   <g id="legend_1">
    <g id="line2d_20">
     <path d="M 326.745312 104.337719 
L 333.145312 104.337719 
L 339.545312 104.337719 
" style="fill: none; stroke: #272727; stroke-width: 1.45; stroke-linecap: square"/>
     <g>
      <use xlink:href="#m34f8bb93ab" x="333.145312" y="104.337719" style="fill: #272727; stroke: #ffffff; stroke-width: 0.75"/>
     </g>
    </g>
    <g id="text_15">
     <text style="font-size: 8px; font-family: 'Arial', 'Helvetica', 'DejaVu Sans', sans-serif; text-anchor: start" x="345.945312" y="107.137719" transform="rotate(-0 345.945312 107.137719)">TabICL</text>
    </g>
    <g id="line2d_21">
     <path d="M 326.745312 115.653969 
L 333.145312 115.653969 
L 339.545312 115.653969 
" style="fill: none; stroke: #7c6ccf; stroke-width: 1.45; stroke-linecap: square"/>
     <g>
      <use xlink:href="#m0e316d51ac" x="333.145312" y="115.653969" style="fill: #7c6ccf; stroke: #ffffff; stroke-width: 0.75"/>
     </g>
    </g>
    <g id="text_16">
     <text style="font-size: 8px; font-family: 'Arial', 'Helvetica', 'DejaVu Sans', sans-serif; text-anchor: start" x="345.945312" y="118.453969" transform="rotate(-0 345.945312 118.453969)">TabPFN</text>
    </g>
    <g id="line2d_22">
     <path d="M 326.745312 127.067719 
L 333.145312 127.067719 
L 339.545312 127.067719 
" style="fill: none; stroke: #33b5a5; stroke-width: 1.45; stroke-linecap: square"/>
     <g>
      <use xlink:href="#m9d122b076c" x="333.145312" y="127.067719" style="fill: #33b5a5; stroke: #ffffff; stroke-width: 0.75"/>
     </g>
    </g>
    <g id="text_17">
     <text style="font-size: 8px; font-family: 'Arial', 'Helvetica', 'DejaVu Sans', sans-serif; text-anchor: start" x="345.945312" y="129.867719" transform="rotate(-0 345.945312 129.867719)">LightGBM</text>
    </g>
    <g id="line2d_23">
     <path d="M 326.745312 138.477719 
L 333.145312 138.477719 
L 339.545312 138.477719 
" style="fill: none; stroke: #b64342; stroke-width: 1.45; stroke-linecap: square"/>
     <g>
      <use xlink:href="#m51a1826078" x="333.145312" y="138.477719" style="fill: #b64342; stroke: #ffffff; stroke-width: 0.75"/>
     </g>
    </g>
    <g id="text_18">
     <text style="font-size: 8px; font-family: 'Arial', 'Helvetica', 'DejaVu Sans', sans-serif; text-anchor: start" x="345.945312" y="141.277719" transform="rotate(-0 345.945312 141.277719)">XGBoost</text>
    </g>
   </g>
  </g>
 </g>
 <defs>
  <clipPath id="p0f806b5664">
   <rect x="38.965313" y="30.663594" width="279" height="182.952"/>
  </clipPath>
 </defs>
</svg>
