<?xml version="1.0" encoding="utf-8" standalone="no"?>
<!DOCTYPE svg PUBLIC "-//W3C//DTD SVG 1.1//EN"
  "http://www.w3.org/Graphics/SVG/1.1/DTD/svg11.dtd">
<svg xmlns:xlink="http://www.w3.org/1999/xlink" width="633.828823pt" height="232.605313pt" viewBox="0 0 633.828823 232.605313" xmlns="http://www.w3.org/2000/svg" version="1.1">
 <metadata>
  <rdf:RDF xmlns:dc="http://purl.org/dc/elements/1.1/" xmlns:cc="http://creativecommons.org/ns#" xmlns:rdf="http://www.w3.org/1999/02/22-rdf-syntax-ns#">
   <cc:Work>
    <dc:type rdf:resource="http://purl.org/dc/dcmitype/StillImage"/>
    <dc:date>2026-06-17T09:44:19.307613</dc:date>
    <dc:format>image/svg+xml</dc:format>
    <dc:creator>
     <cc:Agent>
      <dc:title>Matplotlib v3.10.0, https://matplotlib.org/</dc:title>
     </cc:Agent>
    </dc:creator>
   </cc:Work>
  </rdf:RDF>
 </metadata>
 <defs>
  <style type="text/css">*{stroke-linejoin: round; stroke-linecap: butt}</style>
 </defs>
 <g id="figure_1">
  <g id="patch_1">
   <path d="M 0 232.605313 
L 633.828823 232.605313 
L 633.828823 0 
L 0 0 
z
" style="fill: #ffffff"/>
  </g>
  <g id="axes_1">
   <g id="patch_2">
    <path d="M 40.644375 194.92 
L 275.929245 194.92 
L 275.929245 38.825625 
L 40.644375 38.825625 
z
" style="fill: #ffffff"/>
   </g>
   <g id="FillBetweenPolyCollection_1"/>
   <g id="FillBetweenPolyCollection_2"/>
   <g id="FillBetweenPolyCollection_3"/>
   <g id="FillBetweenPolyCollection_4"/>
   <g id="matplotlib.axis_1">
    <g id="xtick_1">
     <g id="line2d_1">
      <defs>
       <path id="m02e887fe9c" d="M 0 0 
L 0 4 
" style="stroke: #272727"/>
      </defs>
      <g>
       <use xlink:href="#m02e887fe9c" x="59.116138" y="194.92" style="fill: #272727; stroke: #272727"/>
      </g>
     </g>
     <g id="text_1">
      <!-- $\mathdefault{10^{3}}$ -->
      <g transform="translate(52.836138 210.67)">
       <text>
        <tspan x="0" y="-0.3995" style="font-size: 8px; font-family: 'Arial'">1</tspan>
        <tspan x="4.449219" y="-0.3995" style="font-size: 8px; font-family: 'Arial'">0</tspan>
        <tspan x="9.037825" y="-5.975" style="font-size: 5.6px; font-family: 'Arial'">3</tspan>
       </text>
      </g>
     </g>
    </g>
    <g id="xtick_2">
     <g id="line2d_2">
      <g>
       <use xlink:href="#m02e887fe9c" x="208.454394" y="194.92" style="fill: #272727; stroke: #272727"/>
      </g>
     </g>
     <g id="text_2">
      <!-- $\mathdefault{10^{4}}$ -->
      <g transform="translate(202.174394 210.59)">
       <text>
        <tspan x="0" y="-0.410438" style="font-size: 8px; font-family: 'Arial'">1</tspan>
        <tspan x="4.449219" y="-0.410438" style="font-size: 8px; font-family: 'Arial'">0</tspan>
        <tspan x="9.037825" y="-5.985938" style="font-size: 5.6px; font-family: 'Arial'">4</tspan>
       </text>
      </g>
     </g>
    </g>
    <g id="xtick_3">
     <g id="line2d_3">
      <defs>
       <path id="m7144dd90f1" d="M 0 0 
L 0 2 
" style="stroke: #000000; stroke-width: 0.6"/>
      </defs>
      <g>
       <use xlink:href="#m7144dd90f1" x="44.643765" y="194.92" style="stroke: #000000; stroke-width: 0.6"/>
      </g>
     </g>
    </g>
    <g id="xtick_4">
     <g id="line2d_4">
      <g>
       <use xlink:href="#m7144dd90f1" x="52.282794" y="194.92" style="stroke: #000000; stroke-width: 0.6"/>
      </g>
     </g>
    </g>
    <g id="xtick_5">
     <g id="line2d_5">
      <g>
       <use xlink:href="#m7144dd90f1" x="104.071432" y="194.92" style="stroke: #000000; stroke-width: 0.6"/>
      </g>
     </g>
    </g>
    <g id="xtick_6">
     <g id="line2d_6">
      <g>
       <use xlink:href="#m7144dd90f1" x="130.368594" y="194.92" style="stroke: #000000; stroke-width: 0.6"/>
      </g>
     </g>
    </g>
    <g id="xtick_7">
     <g id="line2d_7">
      <g>
       <use xlink:href="#m7144dd90f1" x="149.026727" y="194.92" style="stroke: #000000; stroke-width: 0.6"/>
      </g>
     </g>
    </g>
    <g id="xtick_8">
     <g id="line2d_8">
      <g>
       <use xlink:href="#m7144dd90f1" x="163.4991" y="194.92" style="stroke: #000000; stroke-width: 0.6"/>
      </g>
     </g>
    </g>
    <g id="xtick_9">
     <g id="line2d_9">
      <g>
       <use xlink:href="#m7144dd90f1" x="175.323889" y="194.92" style="stroke: #000000; stroke-width: 0.6"/>
      </g>
     </g>
    </g>
    <g id="xtick_10">
     <g id="line2d_10">
      <g>
       <use xlink:href="#m7144dd90f1" x="185.321606" y="194.92" style="stroke: #000000; stroke-width: 0.6"/>
      </g>
     </g>
    </g>
    <g id="xtick_11">
     <g id="line2d_11">
      <g>
       <use xlink:href="#m7144dd90f1" x="193.982022" y="194.92" style="stroke: #000000; stroke-width: 0.6"/>
      </g>
     </g>
    </g>
    <g id="xtick_12">
     <g id="line2d_12">
      <g>
       <use xlink:href="#m7144dd90f1" x="201.62105" y="194.92" style="stroke: #000000; stroke-width: 0.6"/>
      </g>
     </g>
    </g>
    <g id="xtick_13">
     <g id="line2d_13">
      <g>
       <use xlink:href="#m7144dd90f1" x="253.409689" y="194.92" style="stroke: #000000; stroke-width: 0.6"/>
      </g>
     </g>
    </g>
    <g id="text_3">
     <text style="font-size: 10px; font-family: 'Arial', 'Helvetica', 'DejaVu Sans', sans-serif; text-anchor: middle" x="158.28681" y="223.417813" transform="rotate(-0 158.28681 223.417813)">Scale variable</text>
    </g>
   </g>
   <g id="matplotlib.axis_2">
    <g id="ytick_1">
     <g id="line2d_14">
      <defs>
       <path id="m88fe399ccf" d="M 0 0 
L -4 0 
" style="stroke: #272727"/>
      </defs>
      <g>
       <use xlink:href="#m88fe399ccf" x="40.644375" y="130.281393" style="fill: #272727; stroke: #272727"/>
      </g>
     </g>
     <g id="text_4">
      <!-- $\mathdefault{10^{3}}$ -->
      <g transform="translate(20.584375 134.406393)">
       <text>
        <tspan x="0" y="-0.3995" style="font-size: 8px; font-family: 'Arial'">1</tspan>
        <tspan x="4.449219" y="-0.3995" style="font-size: 8px; font-family: 'Arial'">0</tspan>
        <tspan x="9.037825" y="-5.975" style="font-size: 5.6px; font-family: 'Arial'">3</tspan>
       </text>
      </g>
     </g>
    </g>
    <g id="ytick_2">
     <g id="line2d_15">
      <g>
       <use xlink:href="#m88fe399ccf" x="40.644375" y="58.887662" style="fill: #272727; stroke: #272727"/>
      </g>
     </g>
     <g id="text_5">
      <!-- $\mathdefault{10^{4}}$ -->
      <g transform="translate(20.584375 62.972662)">
       <text>
        <tspan x="0" y="-0.410438" style="font-size: 8px; font-family: 'Arial'">1</tspan>
        <tspan x="4.449219" y="-0.410438" style="font-size: 8px; font-family: 'Arial'">0</tspan>
        <tspan x="9.037825" y="-5.985938" style="font-size: 5.6px; font-family: 'Arial'">4</tspan>
       </text>
      </g>
     </g>
    </g>
    <g id="ytick_3">
     <g id="line2d_16">
      <defs>
       <path id="mf5f049f151" d="M 0 0 
L -2 0 
" style="stroke: #000000; stroke-width: 0.6"/>
      </defs>
      <g>
       <use xlink:href="#mf5f049f151" x="40.644375" y="180.183469" style="stroke: #000000; stroke-width: 0.6"/>
      </g>
     </g>
    </g>
    <g id="ytick_4">
     <g id="line2d_17">
      <g>
       <use xlink:href="#mf5f049f151" x="40.644375" y="167.611657" style="stroke: #000000; stroke-width: 0.6"/>
      </g>
     </g>
    </g>
    <g id="ytick_5">
     <g id="line2d_18">
      <g>
       <use xlink:href="#mf5f049f151" x="40.644375" y="158.691814" style="stroke: #000000; stroke-width: 0.6"/>
      </g>
     </g>
    </g>
    <g id="ytick_6">
     <g id="line2d_19">
      <g>
       <use xlink:href="#mf5f049f151" x="40.644375" y="151.773047" style="stroke: #000000; stroke-width: 0.6"/>
      </g>
     </g>
    </g>
    <g id="ytick_7">
     <g id="line2d_20">
      <g>
       <use xlink:href="#mf5f049f151" x="40.644375" y="146.120003" style="stroke: #000000; stroke-width: 0.6"/>
      </g>
     </g>
    </g>
    <g id="ytick_8">
     <g id="line2d_21">
      <g>
       <use xlink:href="#mf5f049f151" x="40.644375" y="141.340422" style="stroke: #000000; stroke-width: 0.6"/>
      </g>
     </g>
    </g>
    <g id="ytick_9">
     <g id="line2d_22">
      <g>
       <use xlink:href="#mf5f049f151" x="40.644375" y="137.20016" style="stroke: #000000; stroke-width: 0.6"/>
      </g>
     </g>
    </g>
    <g id="ytick_10">
     <g id="line2d_23">
      <g>
       <use xlink:href="#mf5f049f151" x="40.644375" y="133.548191" style="stroke: #000000; stroke-width: 0.6"/>
      </g>
     </g>
    </g>
    <g id="ytick_11">
     <g id="line2d_24">
      <g>
       <use xlink:href="#mf5f049f151" x="40.644375" y="108.789738" style="stroke: #000000; stroke-width: 0.6"/>
      </g>
     </g>
    </g>
    <g id="ytick_12">
     <g id="line2d_25">
      <g>
       <use xlink:href="#mf5f049f151" x="40.644375" y="96.217927" style="stroke: #000000; stroke-width: 0.6"/>
      </g>
     </g>
    </g>
    <g id="ytick_13">
     <g id="line2d_26">
      <g>
       <use xlink:href="#mf5f049f151" x="40.644375" y="87.298084" style="stroke: #000000; stroke-width: 0.6"/>
      </g>
     </g>
    </g>
    <g id="ytick_14">
     <g id="line2d_27">
      <g>
       <use xlink:href="#mf5f049f151" x="40.644375" y="80.379317" style="stroke: #000000; stroke-width: 0.6"/>
      </g>
     </g>
    </g>
    <g id="ytick_15">
     <g id="line2d_28">
      <g>
       <use xlink:href="#mf5f049f151" x="40.644375" y="74.726272" style="stroke: #000000; stroke-width: 0.6"/>
      </g>
     </g>
    </g>
    <g id="ytick_16">
     <g id="line2d_29">
      <g>
       <use xlink:href="#mf5f049f151" x="40.644375" y="69.946691" style="stroke: #000000; stroke-width: 0.6"/>
      </g>
     </g>
    </g>
    <g id="ytick_17">
     <g id="line2d_30">
      <g>
       <use xlink:href="#mf5f049f151" x="40.644375" y="65.80643" style="stroke: #000000; stroke-width: 0.6"/>
      </g>
     </g>
    </g>
    <g id="ytick_18">
     <g id="line2d_31">
      <g>
       <use xlink:href="#mf5f049f151" x="40.644375" y="62.15446" style="stroke: #000000; stroke-width: 0.6"/>
      </g>
     </g>
    </g>
    <g id="text_6">
     <text style="font-size: 10px; font-family: 'Arial', 'Helvetica', 'DejaVu Sans', sans-serif; text-anchor: middle" x="14.479688" y="116.872813" transform="rotate(-90 14.479688 116.872813)">Peak memory (MB)</text>
    </g>
   </g>
   <g id="line2d_32">
    <path d="M 51.339142 187.701848 
L 93.033108 187.501069 
L 150.61239 187.051182 
L 174.453315 186.640154 
L 199.481916 186.112552 
L 265.234478 183.602372 
" clip-path="url(#pfe78cbb4e2)" style="fill: none; stroke: #33b5a5; stroke-width: 1.45; stroke-linecap: square"/>
    <defs>
     <path id="mee70275ed9" d="M 0 2.1 
C 0.556927 2.1 1.091118 1.878731 1.484924 1.484924 
C 1.878731 1.091118 2.1 0.556927 2.1 0 
C 2.1 -0.556927 1.878731 -1.091118 1.484924 -1.484924 
C 1.091118 -1.878731 0.556927 -2.1 0 -2.1 
C -0.556927 -2.1 -1.091118 -1.878731 -1.484924 -1.484924 
C -1.878731 -1.091118 -2.1 -0.556927 -2.1 0 
C -2.1 0.556927 -1.878731 1.091118 -1.484924 1.484924 
C -1.091118 1.878731 -0.556927 2.1 0 2.1 
z
" style="stroke: #ffffff; stroke-width: 0.75"/>
    </defs>
    <g clip-path="url(#pfe78cbb4e2)">
     <use xlink:href="#mee70275ed9" x="51.339142" y="187.701848" style="fill: #33b5a5; stroke: #ffffff; stroke-width: 0.75"/>
     <use xlink:href="#mee70275ed9" x="93.033108" y="187.501069" style="fill: #33b5a5; stroke: #ffffff; stroke-width: 0.75"/>
     <use xlink:href="#mee70275ed9" x="150.61239" y="187.051182" style="fill: #33b5a5; stroke: #ffffff; stroke-width: 0.75"/>
     <use xlink:href="#mee70275ed9" x="174.453315" y="186.640154" style="fill: #33b5a5; stroke: #ffffff; stroke-width: 0.75"/>
     <use xlink:href="#mee70275ed9" x="199.481916" y="186.112552" style="fill: #33b5a5; stroke: #ffffff; stroke-width: 0.75"/>
     <use xlink:href="#mee70275ed9" x="265.234478" y="183.602372" style="fill: #33b5a5; stroke: #ffffff; stroke-width: 0.75"/>
    </g>
   </g>
   <g id="line2d_33">
    <path d="M 51.339142 121.009053 
L 93.033108 104.036035 
L 150.61239 84.671533 
L 174.453315 73.603418 
L 199.481916 58.772042 
L 265.234478 45.920824 
" clip-path="url(#pfe78cbb4e2)" style="fill: none; stroke: #272727; stroke-width: 1.45; stroke-linecap: square"/>
    <defs>
     <path id="m44ee07296b" d="M 0 2.1 
C 0.556927 2.1 1.091118 1.878731 1.484924 1.484924 
C 1.878731 1.091118 2.1 0.556927 2.1 0 
C 2.1 -0.556927 1.878731 -1.091118 1.484924 -1.484924 
C 1.091118 -1.878731 0.556927 -2.1 0 -2.1 
C -0.556927 -2.1 -1.091118 -1.878731 -1.484924 -1.484924 
C -1.878731 -1.091118 -2.1 -0.556927 -2.1 0 
C -2.1 0.556927 -1.878731 1.091118 -1.484924 1.484924 
C -1.091118 1.878731 -0.556927 2.1 0 2.1 
z
" style="stroke: #ffffff; stroke-width: 0.75"/>
    </defs>
    <g clip-path="url(#pfe78cbb4e2)">
     <use xlink:href="#m44ee07296b" x="51.339142" y="121.009053" style="fill: #272727; stroke: #ffffff; stroke-width: 0.75"/>
     <use xlink:href="#m44ee07296b" x="93.033108" y="104.036035" style="fill: #272727; stroke: #ffffff; stroke-width: 0.75"/>
     <use xlink:href="#m44ee07296b" x="150.61239" y="84.671533" style="fill: #272727; stroke: #ffffff; stroke-width: 0.75"/>
     <use xlink:href="#m44ee07296b" x="174.453315" y="73.603418" style="fill: #272727; stroke: #ffffff; stroke-width: 0.75"/>
     <use xlink:href="#m44ee07296b" x="199.481916" y="58.772042" style="fill: #272727; stroke: #ffffff; stroke-width: 0.75"/>
     <use xlink:href="#m44ee07296b" x="265.234478" y="45.920824" style="fill: #272727; stroke: #ffffff; stroke-width: 0.75"/>
    </g>
   </g>
   <g id="line2d_34">
    <path d="M 51.339142 130.812655 
L 93.033108 122.023815 
L 150.61239 105.305931 
L 174.453315 97.006199 
L 199.481916 115.952759 
L 265.234478 81.145479 
" clip-path="url(#pfe78cbb4e2)" style="fill: none; stroke: #7c6ccf; stroke-width: 1.45; stroke-linecap: square"/>
    <defs>
     <path id="m1234159d55" d="M 0 2.1 
C 0.556927 2.1 1.091118 1.878731 1.484924 1.484924 
C 1.878731 1.091118 2.1 0.556927 2.1 0 
C 2.1 -0.556927 1.878731 -1.091118 1.484924 -1.484924 
C 1.091118 -1.878731 0.556927 -2.1 0 -2.1 
C -0.556927 -2.1 -1.091118 -1.878731 -1.484924 -1.484924 
C -1.878731 -1.091118 -2.1 -0.556927 -2.1 0 
C -2.1 0.556927 -1.878731 1.091118 -1.484924 1.484924 
C -1.091118 1.878731 -0.556927 2.1 0 2.1 
z
" style="stroke: #ffffff; stroke-width: 0.75"/>
    </defs>
    <g clip-path="url(#pfe78cbb4e2)">
     <use xlink:href="#m1234159d55" x="51.339142" y="130.812655" style="fill: #7c6ccf; stroke: #ffffff; stroke-width: 0.75"/>
     <use xlink:href="#m1234159d55" x="93.033108" y="122.023815" style="fill: #7c6ccf; stroke: #ffffff; stroke-width: 0.75"/>
     <use xlink:href="#m1234159d55" x="150.61239" y="105.305931" style="fill: #7c6ccf; stroke: #ffffff; stroke-width: 0.75"/>
     <use xlink:href="#m1234159d55" x="174.453315" y="97.006199" style="fill: #7c6ccf; stroke: #ffffff; stroke-width: 0.75"/>
     <use xlink:href="#m1234159d55" x="199.481916" y="115.952759" style="fill: #7c6ccf; stroke: #ffffff; stroke-width: 0.75"/>
     <use xlink:href="#m1234159d55" x="265.234478" y="81.145479" style="fill: #7c6ccf; stroke: #ffffff; stroke-width: 0.75"/>
    </g>
   </g>
   <g id="line2d_35">
    <path d="M 51.339142 187.824801 
L 93.033108 187.319873 
L 150.61239 186.971931 
L 174.453315 186.446854 
L 199.481916 186.118419 
L 265.234478 183.867551 
" clip-path="url(#pfe78cbb4e2)" style="fill: none; stroke: #b64342; stroke-width: 1.45; stroke-linecap: square"/>
    <defs>
     <path id="m41295e9005" d="M 0 2.1 
C 0.556927 2.1 1.091118 1.878731 1.484924 1.484924 
C 1.878731 1.091118 2.1 0.556927 2.1 0 
C 2.1 -0.556927 1.878731 -1.091118 1.484924 -1.484924 
C 1.091118 -1.878731 0.556927 -2.1 0 -2.1 
C -0.556927 -2.1 -1.091118 -1.878731 -1.484924 -1.484924 
C -1.878731 -1.091118 -2.1 -0.556927 -2.1 0 
C -2.1 0.556927 -1.878731 1.091118 -1.484924 1.484924 
C -1.091118 1.878731 -0.556927 2.1 0 2.1 
z
" style="stroke: #ffffff; stroke-width: 0.75"/>
    </defs>
    <g clip-path="url(#pfe78cbb4e2)">
     <use xlink:href="#m41295e9005" x="51.339142" y="187.824801" style="fill: #b64342; stroke: #ffffff; stroke-width: 0.75"/>
     <use xlink:href="#m41295e9005" x="93.033108" y="187.319873" style="fill: #b64342; stroke: #ffffff; stroke-width: 0.75"/>
     <use xlink:href="#m41295e9005" x="150.61239" y="186.971931" style="fill: #b64342; stroke: #ffffff; stroke-width: 0.75"/>
     <use xlink:href="#m41295e9005" x="174.453315" y="186.446854" style="fill: #b64342; stroke: #ffffff; stroke-width: 0.75"/>
     <use xlink:href="#m41295e9005" x="199.481916" y="186.118419" style="fill: #b64342; stroke: #ffffff; stroke-width: 0.75"/>
     <use xlink:href="#m41295e9005" x="265.234478" y="183.867551" style="fill: #b64342; stroke: #ffffff; stroke-width: 0.75"/>
    </g>
   </g>
   <g id="line2d_36"/>
   <g id="line2d_37"/>
   <g id="line2d_38"/>
   <g id="line2d_39"/>
   <g id="patch_3">
    <path d="M 40.644375 194.92 
L 40.644375 38.825625 
" style="fill: none; stroke: #000000; stroke-width: 1.1; stroke-linejoin: miter; stroke-linecap: square"/>
   </g>
   <g id="patch_4">
    <path d="M 40.644375 194.92 
L 275.929245 194.92 
" style="fill: none; stroke: #000000; stroke-width: 1.1; stroke-linejoin: miter; stroke-linecap: square"/>
   </g>
   <g id="text_7">
    <text style="font-weight: 700; font-size: 10px; font-family: 'Arial', 'Helvetica', 'DejaVu Sans', sans-serif; text-anchor: middle" x="158.28681" y="32.825625" transform="rotate(-0 158.28681 32.825625)">Light laptop | Sample scale</text>
   </g>
  </g>
  <g id="axes_2">
   <g id="patch_5">
    <path d="M 324.518453 194.92 
L 559.803323 194.92 
L 559.803323 38.825625 
L 324.518453 38.825625 
z
" style="fill: #ffffff"/>
   </g>
   <g id="FillBetweenPolyCollection_5"/>
   <g id="FillBetweenPolyCollection_6"/>
   <g id="FillBetweenPolyCollection_7"/>
   <g id="FillBetweenPolyCollection_8"/>
   <g id="matplotlib.axis_3">
    <g id="xtick_14">
     <g id="line2d_40">
      <g>
       <use xlink:href="#m02e887fe9c" x="364.832843" y="194.92" style="fill: #272727; stroke: #272727"/>
      </g>
     </g>
     <g id="text_8">
      <!-- $\mathdefault{10^{1}}$ -->
      <g transform="translate(358.552843 210.67)">
       <text>
        <tspan x="0" y="-0.3995" style="font-size: 8px; font-family: 'Arial'">1</tspan>
        <tspan x="4.449219" y="-0.3995" style="font-size: 8px; font-family: 'Arial'">0</tspan>
        <tspan x="9.037825" y="-5.975" style="font-size: 5.6px; font-family: 'Arial'">1</tspan>
       </text>
      </g>
     </g>
    </g>
    <g id="xtick_15">
     <g id="line2d_41">
      <g>
       <use xlink:href="#m02e887fe9c" x="498.345531" y="194.92" style="fill: #272727; stroke: #272727"/>
      </g>
     </g>
     <g id="text_9">
      <!-- $\mathdefault{10^{2}}$ -->
      <g transform="translate(492.065531 210.67)">
       <text>
        <tspan x="0" y="-0.3995" style="font-size: 8px; font-family: 'Arial'">1</tspan>
        <tspan x="4.449219" y="-0.3995" style="font-size: 8px; font-family: 'Arial'">0</tspan>
        <tspan x="9.037825" y="-5.975" style="font-size: 5.6px; font-family: 'Arial'">2</tspan>
       </text>
      </g>
     </g>
    </g>
    <g id="xtick_16">
     <g id="line2d_42">
      <g>
       <use xlink:href="#m7144dd90f1" x="324.641519" y="194.92" style="stroke: #000000; stroke-width: 0.6"/>
      </g>
     </g>
    </g>
    <g id="xtick_17">
     <g id="line2d_43">
      <g>
       <use xlink:href="#m7144dd90f1" x="335.21322" y="194.92" style="stroke: #000000; stroke-width: 0.6"/>
      </g>
     </g>
    </g>
    <g id="xtick_18">
     <g id="line2d_44">
      <g>
       <use xlink:href="#m7144dd90f1" x="344.151466" y="194.92" style="stroke: #000000; stroke-width: 0.6"/>
      </g>
     </g>
    </g>
    <g id="xtick_19">
     <g id="line2d_45">
      <g>
       <use xlink:href="#m7144dd90f1" x="351.894127" y="194.92" style="stroke: #000000; stroke-width: 0.6"/>
      </g>
     </g>
    </g>
    <g id="xtick_20">
     <g id="line2d_46">
      <g>
       <use xlink:href="#m7144dd90f1" x="358.723637" y="194.92" style="stroke: #000000; stroke-width: 0.6"/>
      </g>
     </g>
    </g>
    <g id="xtick_21">
     <g id="line2d_47">
      <g>
       <use xlink:href="#m7144dd90f1" x="405.024167" y="194.92" style="stroke: #000000; stroke-width: 0.6"/>
      </g>
     </g>
    </g>
    <g id="xtick_22">
     <g id="line2d_48">
      <g>
       <use xlink:href="#m7144dd90f1" x="428.534584" y="194.92" style="stroke: #000000; stroke-width: 0.6"/>
      </g>
     </g>
    </g>
    <g id="xtick_23">
     <g id="line2d_49">
      <g>
       <use xlink:href="#m7144dd90f1" x="445.215491" y="194.92" style="stroke: #000000; stroke-width: 0.6"/>
      </g>
     </g>
    </g>
    <g id="xtick_24">
     <g id="line2d_50">
      <g>
       <use xlink:href="#m7144dd90f1" x="458.154207" y="194.92" style="stroke: #000000; stroke-width: 0.6"/>
      </g>
     </g>
    </g>
    <g id="xtick_25">
     <g id="line2d_51">
      <g>
       <use xlink:href="#m7144dd90f1" x="468.725908" y="194.92" style="stroke: #000000; stroke-width: 0.6"/>
      </g>
     </g>
    </g>
    <g id="xtick_26">
     <g id="line2d_52">
      <g>
       <use xlink:href="#m7144dd90f1" x="477.664154" y="194.92" style="stroke: #000000; stroke-width: 0.6"/>
      </g>
     </g>
    </g>
    <g id="xtick_27">
     <g id="line2d_53">
      <g>
       <use xlink:href="#m7144dd90f1" x="485.406815" y="194.92" style="stroke: #000000; stroke-width: 0.6"/>
      </g>
     </g>
    </g>
    <g id="xtick_28">
     <g id="line2d_54">
      <g>
       <use xlink:href="#m7144dd90f1" x="492.236326" y="194.92" style="stroke: #000000; stroke-width: 0.6"/>
      </g>
     </g>
    </g>
    <g id="xtick_29">
     <g id="line2d_55">
      <g>
       <use xlink:href="#m7144dd90f1" x="538.536855" y="194.92" style="stroke: #000000; stroke-width: 0.6"/>
      </g>
     </g>
    </g>
    <g id="text_10">
     <text style="font-size: 10px; font-family: 'Arial', 'Helvetica', 'DejaVu Sans', sans-serif; text-anchor: middle" x="442.160888" y="223.417813" transform="rotate(-0 442.160888 223.417813)">Scale variable</text>
    </g>
   </g>
   <g id="matplotlib.axis_4">
    <g id="ytick_19">
     <g id="line2d_56">
      <g>
       <use xlink:href="#m88fe399ccf" x="324.518453" y="133.138166" style="fill: #272727; stroke: #272727"/>
      </g>
     </g>
     <g id="text_11">
      <!-- $\mathdefault{10^{3}}$ -->
      <g transform="translate(304.458453 137.263166)">
       <text>
        <tspan x="0" y="-0.3995" style="font-size: 8px; font-family: 'Arial'">1</tspan>
        <tspan x="4.449219" y="-0.3995" style="font-size: 8px; font-family: 'Arial'">0</tspan>
        <tspan x="9.037825" y="-5.975" style="font-size: 5.6px; font-family: 'Arial'">3</tspan>
       </text>
      </g>
     </g>
    </g>
    <g id="ytick_20">
     <g id="line2d_57">
      <g>
       <use xlink:href="#m88fe399ccf" x="324.518453" y="59.424692" style="fill: #272727; stroke: #272727"/>
      </g>
     </g>
     <g id="text_12">
      <!-- $\mathdefault{10^{4}}$ -->
      <g transform="translate(304.458453 63.509692)">
       <text>
        <tspan x="0" y="-0.410438" style="font-size: 8px; font-family: 'Arial'">1</tspan>
        <tspan x="4.449219" y="-0.410438" style="font-size: 8px; font-family: 'Arial'">0</tspan>
        <tspan x="9.037825" y="-5.985938" style="font-size: 5.6px; font-family: 'Arial'">4</tspan>
       </text>
      </g>
     </g>
    </g>
    <g id="ytick_21">
     <g id="line2d_58">
      <g>
       <use xlink:href="#mf5f049f151" x="324.518453" y="184.661673" style="stroke: #000000; stroke-width: 0.6"/>
      </g>
     </g>
    </g>
    <g id="ytick_22">
     <g id="line2d_59">
      <g>
       <use xlink:href="#mf5f049f151" x="324.518453" y="171.681375" style="stroke: #000000; stroke-width: 0.6"/>
      </g>
     </g>
    </g>
    <g id="ytick_23">
     <g id="line2d_60">
      <g>
       <use xlink:href="#mf5f049f151" x="324.518453" y="162.471706" style="stroke: #000000; stroke-width: 0.6"/>
      </g>
     </g>
    </g>
    <g id="ytick_24">
     <g id="line2d_61">
      <g>
       <use xlink:href="#mf5f049f151" x="324.518453" y="155.328133" style="stroke: #000000; stroke-width: 0.6"/>
      </g>
     </g>
    </g>
    <g id="ytick_25">
     <g id="line2d_62">
      <g>
       <use xlink:href="#mf5f049f151" x="324.518453" y="149.491408" style="stroke: #000000; stroke-width: 0.6"/>
      </g>
     </g>
    </g>
    <g id="ytick_26">
     <g id="line2d_63">
      <g>
       <use xlink:href="#mf5f049f151" x="324.518453" y="144.556527" style="stroke: #000000; stroke-width: 0.6"/>
      </g>
     </g>
    </g>
    <g id="ytick_27">
     <g id="line2d_64">
      <g>
       <use xlink:href="#mf5f049f151" x="324.518453" y="140.281739" style="stroke: #000000; stroke-width: 0.6"/>
      </g>
     </g>
    </g>
    <g id="ytick_28">
     <g id="line2d_65">
      <g>
       <use xlink:href="#mf5f049f151" x="324.518453" y="136.511109" style="stroke: #000000; stroke-width: 0.6"/>
      </g>
     </g>
    </g>
    <g id="ytick_29">
     <g id="line2d_66">
      <g>
       <use xlink:href="#mf5f049f151" x="324.518453" y="110.948199" style="stroke: #000000; stroke-width: 0.6"/>
      </g>
     </g>
    </g>
    <g id="ytick_30">
     <g id="line2d_67">
      <g>
       <use xlink:href="#mf5f049f151" x="324.518453" y="97.967901" style="stroke: #000000; stroke-width: 0.6"/>
      </g>
     </g>
    </g>
    <g id="ytick_31">
     <g id="line2d_68">
      <g>
       <use xlink:href="#mf5f049f151" x="324.518453" y="88.758232" style="stroke: #000000; stroke-width: 0.6"/>
      </g>
     </g>
    </g>
    <g id="ytick_32">
     <g id="line2d_69">
      <g>
       <use xlink:href="#mf5f049f151" x="324.518453" y="81.614659" style="stroke: #000000; stroke-width: 0.6"/>
      </g>
     </g>
    </g>
    <g id="ytick_33">
     <g id="line2d_70">
      <g>
       <use xlink:href="#mf5f049f151" x="324.518453" y="75.777934" style="stroke: #000000; stroke-width: 0.6"/>
      </g>
     </g>
    </g>
    <g id="ytick_34">
     <g id="line2d_71">
      <g>
       <use xlink:href="#mf5f049f151" x="324.518453" y="70.843053" style="stroke: #000000; stroke-width: 0.6"/>
      </g>
     </g>
    </g>
    <g id="ytick_35">
     <g id="line2d_72">
      <g>
       <use xlink:href="#mf5f049f151" x="324.518453" y="66.568266" style="stroke: #000000; stroke-width: 0.6"/>
      </g>
     </g>
    </g>
    <g id="ytick_36">
     <g id="line2d_73">
      <g>
       <use xlink:href="#mf5f049f151" x="324.518453" y="62.797635" style="stroke: #000000; stroke-width: 0.6"/>
      </g>
     </g>
    </g>
    <g id="text_13">
     <text style="font-size: 10px; font-family: 'Arial', 'Helvetica', 'DejaVu Sans', sans-serif; text-anchor: middle" x="298.353766" y="116.872813" transform="rotate(-90 298.353766 116.872813)">Peak memory (MB)</text>
    </g>
   </g>
   <g id="line2d_74">
    <path d="M 335.21322 186.761466 
L 454.566435 184.950593 
L 472.468099 187.076134 
L 482.432634 186.07813 
L 542.999351 184.550258 
L 549.108556 185.470257 
" clip-path="url(#pcf713a33a6)" style="fill: none; stroke: #33b5a5; stroke-width: 1.45; stroke-linecap: square"/>
    <g clip-path="url(#pcf713a33a6)">
     <use xlink:href="#mee70275ed9" x="335.21322" y="186.761466" style="fill: #33b5a5; stroke: #ffffff; stroke-width: 0.75"/>
     <use xlink:href="#mee70275ed9" x="454.566435" y="184.950593" style="fill: #33b5a5; stroke: #ffffff; stroke-width: 0.75"/>
     <use xlink:href="#mee70275ed9" x="472.468099" y="187.076134" style="fill: #33b5a5; stroke: #ffffff; stroke-width: 0.75"/>
     <use xlink:href="#mee70275ed9" x="482.432634" y="186.07813" style="fill: #33b5a5; stroke: #ffffff; stroke-width: 0.75"/>
     <use xlink:href="#mee70275ed9" x="542.999351" y="184.550258" style="fill: #33b5a5; stroke: #ffffff; stroke-width: 0.75"/>
     <use xlink:href="#mee70275ed9" x="549.108556" y="185.470257" style="fill: #33b5a5; stroke: #ffffff; stroke-width: 0.75"/>
    </g>
   </g>
   <g id="line2d_75">
    <path d="M 335.21322 127.926937 
L 454.566435 92.161828 
L 472.468099 83.708403 
L 482.432634 78.458531 
L 542.999351 47.137806 
L 549.108556 45.920824 
" clip-path="url(#pcf713a33a6)" style="fill: none; stroke: #272727; stroke-width: 1.45; stroke-linecap: square"/>
    <g clip-path="url(#pcf713a33a6)">
     <use xlink:href="#m44ee07296b" x="335.21322" y="127.926937" style="fill: #272727; stroke: #ffffff; stroke-width: 0.75"/>
     <use xlink:href="#m44ee07296b" x="454.566435" y="92.161828" style="fill: #272727; stroke: #ffffff; stroke-width: 0.75"/>
     <use xlink:href="#m44ee07296b" x="472.468099" y="83.708403" style="fill: #272727; stroke: #ffffff; stroke-width: 0.75"/>
     <use xlink:href="#m44ee07296b" x="482.432634" y="78.458531" style="fill: #272727; stroke: #ffffff; stroke-width: 0.75"/>
     <use xlink:href="#m44ee07296b" x="542.999351" y="47.137806" style="fill: #272727; stroke: #ffffff; stroke-width: 0.75"/>
     <use xlink:href="#m44ee07296b" x="549.108556" y="45.920824" style="fill: #272727; stroke: #ffffff; stroke-width: 0.75"/>
    </g>
   </g>
   <g id="line2d_76">
    <path d="M 335.21322 144.830399 
L 454.566435 109.369474 
L 472.468099 102.962006 
L 482.432634 97.359708 
L 542.999351 109.146437 
L 549.108556 107.377637 
" clip-path="url(#pcf713a33a6)" style="fill: none; stroke: #7c6ccf; stroke-width: 1.45; stroke-linecap: square"/>
    <g clip-path="url(#pcf713a33a6)">
     <use xlink:href="#m1234159d55" x="335.21322" y="144.830399" style="fill: #7c6ccf; stroke: #ffffff; stroke-width: 0.75"/>
     <use xlink:href="#m1234159d55" x="454.566435" y="109.369474" style="fill: #7c6ccf; stroke: #ffffff; stroke-width: 0.75"/>
     <use xlink:href="#m1234159d55" x="472.468099" y="102.962006" style="fill: #7c6ccf; stroke: #ffffff; stroke-width: 0.75"/>
     <use xlink:href="#m1234159d55" x="482.432634" y="97.359708" style="fill: #7c6ccf; stroke: #ffffff; stroke-width: 0.75"/>
     <use xlink:href="#m1234159d55" x="542.999351" y="109.146437" style="fill: #7c6ccf; stroke: #ffffff; stroke-width: 0.75"/>
     <use xlink:href="#m1234159d55" x="549.108556" y="107.377637" style="fill: #7c6ccf; stroke: #ffffff; stroke-width: 0.75"/>
    </g>
   </g>
   <g id="line2d_77">
    <path d="M 335.21322 187.824801 
L 454.566435 186.253433 
L 472.468099 185.603917 
L 482.432634 184.74212 
L 542.999351 184.45165 
L 549.108556 187.346293 
" clip-path="url(#pcf713a33a6)" style="fill: none; stroke: #b64342; stroke-width: 1.45; stroke-linecap: square"/>
    <g clip-path="url(#pcf713a33a6)">
     <use xlink:href="#m41295e9005" x="335.21322" y="187.824801" style="fill: #b64342; stroke: #ffffff; stroke-width: 0.75"/>
     <use xlink:href="#m41295e9005" x="454.566435" y="186.253433" style="fill: #b64342; stroke: #ffffff; stroke-width: 0.75"/>
     <use xlink:href="#m41295e9005" x="472.468099" y="185.603917" style="fill: #b64342; stroke: #ffffff; stroke-width: 0.75"/>
     <use xlink:href="#m41295e9005" x="482.432634" y="184.74212" style="fill: #b64342; stroke: #ffffff; stroke-width: 0.75"/>
     <use xlink:href="#m41295e9005" x="542.999351" y="184.45165" style="fill: #b64342; stroke: #ffffff; stroke-width: 0.75"/>
     <use xlink:href="#m41295e9005" x="549.108556" y="187.346293" style="fill: #b64342; stroke: #ffffff; stroke-width: 0.75"/>
    </g>
   </g>
   <g id="patch_6">
    <path d="M 324.518453 194.92 
L 324.518453 38.825625 
" style="fill: none; stroke: #000000; stroke-width: 1.1; stroke-linejoin: miter; stroke-linecap: square"/>
   </g>
   <g id="patch_7">
    <path d="M 324.518453 194.92 
L 559.803323 194.92 
" style="fill: none; stroke: #000000; stroke-width: 1.1; stroke-linejoin: miter; stroke-linecap: square"/>
   </g>
   <g id="text_14">
    <text style="font-weight: 700; font-size: 10px; font-family: 'Arial', 'Helvetica', 'DejaVu Sans', sans-serif; text-anchor: middle" x="442.160888" y="32.825625" transform="rotate(-0 442.160888 32.825625)">Light laptop | Feature scale</text>
   </g>
  </g>
  <g id="text_15">
   <text style="font-weight: 700; font-size: 10.8px; font-family: 'Arial', 'Helvetica', 'DejaVu Sans', sans-serif; text-anchor: middle" x="306.853823" y="14.930438" transform="rotate(-0 306.853823 14.930438)">Memory scalability</text>
  </g>
  <g id="legend_1">
   <g id="line2d_78">
    <path d="M 568.660073 98.598281 
L 576.660073 98.598281 
L 584.660073 98.598281 
" style="fill: none; stroke: #33b5a5; stroke-width: 1.45; stroke-linecap: square"/>
    <defs>
     <path id="m1c6e2f36a3" d="M 0 2.1 
C 0.556927 2.1 1.091118 1.878731 1.484924 1.484924 
C 1.878731 1.091118 2.1 0.556927 2.1 0 
C 2.1 -0.556927 1.878731 -1.091118 1.484924 -1.484924 
C 1.091118 -1.878731 0.556927 -2.1 0 -2.1 
C -0.556927 -2.1 -1.091118 -1.878731 -1.484924 -1.484924 
C -1.878731 -1.091118 -2.1 -0.556927 -2.1 0 
C -2.1 0.556927 -1.878731 1.091118 -1.484924 1.484924 
C -1.091118 1.878731 -0.556927 2.1 0 2.1 
z
" style="stroke: #33b5a5"/>
    </defs>
    <g>
     <use xlink:href="#m1c6e2f36a3" x="576.660073" y="98.598281" style="fill: #33b5a5; stroke: #33b5a5"/>
    </g>
   </g>
   <g id="text_16">
    <text style="font-size: 8px; font-family: 'Arial', 'Helvetica', 'DejaVu Sans', sans-serif; text-anchor: start" x="591.060073" y="101.398281" transform="rotate(-0 591.060073 101.398281)">LightGBM</text>
   </g>
   <g id="line2d_79">
    <path d="M 568.660073 110.008281 
L 576.660073 110.008281 
L 584.660073 110.008281 
" style="fill: none; stroke: #272727; stroke-width: 1.45; stroke-linecap: square"/>
    <defs>
     <path id="ma7582b0ae3" d="M 0 2.1 
C 0.556927 2.1 1.091118 1.878731 1.484924 1.484924 
C 1.878731 1.091118 2.1 0.556927 2.1 0 
C 2.1 -0.556927 1.878731 -1.091118 1.484924 -1.484924 
C 1.091118 -1.878731 0.556927 -2.1 0 -2.1 
C -0.556927 -2.1 -1.091118 -1.878731 -1.484924 -1.484924 
C -1.878731 -1.091118 -2.1 -0.556927 -2.1 0 
C -2.1 0.556927 -1.878731 1.091118 -1.484924 1.484924 
C -1.091118 1.878731 -0.556927 2.1 0 2.1 
z
" style="stroke: #272727"/>
    </defs>
    <g>
     <use xlink:href="#ma7582b0ae3" x="576.660073" y="110.008281" style="fill: #272727; stroke: #272727"/>
    </g>
   </g>
   <g id="text_17">
    <text style="font-size: 8px; font-family: 'Arial', 'Helvetica', 'DejaVu Sans', sans-serif; text-anchor: start" x="591.060073" y="112.808281" transform="rotate(-0 591.060073 112.808281)">TabICL</text>
   </g>
   <g id="line2d_80">
    <path d="M 568.660073 121.324531 
L 576.660073 121.324531 
L 584.660073 121.324531 
" style="fill: none; stroke: #7c6ccf; stroke-width: 1.45; stroke-linecap: square"/>
    <defs>
     <path id="m0ef47d8fdc" d="M 0 2.1 
C 0.556927 2.1 1.091118 1.878731 1.484924 1.484924 
C 1.878731 1.091118 2.1 0.556927 2.1 0 
C 2.1 -0.556927 1.878731 -1.091118 1.484924 -1.484924 
C 1.091118 -1.878731 0.556927 -2.1 0 -2.1 
C -0.556927 -2.1 -1.091118 -1.878731 -1.484924 -1.484924 
C -1.878731 -1.091118 -2.1 -0.556927 -2.1 0 
C -2.1 0.556927 -1.878731 1.091118 -1.484924 1.484924 
C -1.091118 1.878731 -0.556927 2.1 0 2.1 
z
" style="stroke: #7c6ccf"/>
    </defs>
    <g>
     <use xlink:href="#m0ef47d8fdc" x="576.660073" y="121.324531" style="fill: #7c6ccf; stroke: #7c6ccf"/>
    </g>
   </g>
   <g id="text_18">
    <text style="font-size: 8px; font-family: 'Arial', 'Helvetica', 'DejaVu Sans', sans-serif; text-anchor: start" x="591.060073" y="124.124531" transform="rotate(-0 591.060073 124.124531)">TabPFN</text>
   </g>
   <g id="line2d_81">
    <path d="M 568.660073 132.640781 
L 576.660073 132.640781 
L 584.660073 132.640781 
" style="fill: none; stroke: #b64342; stroke-width: 1.45; stroke-linecap: square"/>
    <defs>
     <path id="m6e0a7cc338" d="M 0 2.1 
C 0.556927 2.1 1.091118 1.878731 1.484924 1.484924 
C 1.878731 1.091118 2.1 0.556927 2.1 0 
C 2.1 -0.556927 1.878731 -1.091118 1.484924 -1.484924 
C 1.091118 -1.878731 0.556927 -2.1 0 -2.1 
C -0.556927 -2.1 -1.091118 -1.878731 -1.484924 -1.484924 
C -1.878731 -1.091118 -2.1 -0.556927 -2.1 0 
C -2.1 0.556927 -1.878731 1.091118 -1.484924 1.484924 
C -1.091118 1.878731 -0.556927 2.1 0 2.1 
z
" style="stroke: #b64342"/>
    </defs>
    <g>
     <use xlink:href="#m6e0a7cc338" x="576.660073" y="132.640781" style="fill: #b64342; stroke: #b64342"/>
    </g>
   </g>
   <g id="text_19">
    <text style="font-size: 8px; font-family: 'Arial', 'Helvetica', 'DejaVu Sans', sans-serif; text-anchor: start" x="591.060073" y="135.440781" transform="rotate(-0 591.060073 135.440781)">XGBoost</text>
   </g>
  </g>
 </g>
 <defs>
  <clipPath id="pfe78cbb4e2">
   <rect x="40.644375" y="38.825625" width="235.28487" height="156.094375"/>
  </clipPath>
  <clipPath id="pcf713a33a6">
   <rect x="324.518453" y="38.825625" width="235.28487" height="156.094375"/>
  </clipPath>
 </defs>
</svg>
